<svg width="24" height="24" viewBox="0 0 24 24" fill="none" xmlns="http://www.w3.org/2000/svg">
<path d="M15.1716 8.2847L20.0695 9.02992C20.4751 9.08968 20.8159 9.38495 20.9455 9.7892C21.075 10.197 20.9693 10.6399 20.6762 10.9422L17.1246 14.5347L17.9631 19.688C18.0313 20.1098 17.8643 20.5386 17.5234 20.7882C17.186 21.0378 16.7395 21.0694 16.3748 20.8691L11.9984 18.4612L7.62539 20.8691C7.25728 21.0694 6.81078 21.0378 6.47334 20.7882C6.13591 20.5386 5.96549 20.1098 6.03707 19.688L6.87554 14.5347L3.32329 10.9422C3.02983 10.6399 2.92553 10.197 3.05437 9.7892C3.18286 9.38495 3.52268 9.08968 3.93135 9.02992L8.82515 8.2847L11.0202 3.63305C11.2008 3.24582 11.5826 3 11.9984 3C12.4176 3 12.7994 3.24582 12.98 3.63305L15.1716 8.2847Z" fill="#FBBF24"/>
</svg>
