<svg width="25" height="24" viewBox="0 0 25 24" fill="none" xmlns="http://www.w3.org/2000/svg">
<path d="M12.5 0C5.87262 0 0.5 5.37262 0.5 12C0.5 18.6278 5.87262 24 12.5 24C19.1278 24 24.5 18.6278 24.5 12C24.5 5.37262 19.1278 0 12.5 0ZM12.5 22.5236C6.71037 22.5236 2 17.7896 2 12C2 6.21033 6.71037 1.49995 12.5 1.49995C18.2896 1.49995 23 6.21035 23 12C23 17.7896 18.2896 22.5236 12.5 22.5236ZM17.75 11.25H13.25V6.75C13.25 6.336 12.914 6 12.5 6C12.086 6 11.75 6.336 11.75 6.75V11.25H7.25C6.836 11.25 6.5 11.586 6.5 12C6.5 12.414 6.836 12.75 7.25 12.75H11.75V17.25C11.75 17.664 12.086 18 12.5 18C12.914 18 13.25 17.664 13.25 17.25V12.75H17.75C18.164 12.75 18.5 12.414 18.5 12C18.5 11.586 18.164 11.25 17.75 11.25Z" fill="#858585"/>
</svg>
