<svg width="54" height="55" viewBox="0 0 54 55" fill="none" xmlns="http://www.w3.org/2000/svg">
<g clip-path="url(#clip0_159_283)">
<path fill-rule="evenodd" clip-rule="evenodd" d="M14.7739 0.453679C15.1168 0.138307 15.5595 -0.012899 15.9978 0.00438162C16.4362 0.0216623 16.8658 0.203109 17.1827 0.544402L19.7781 3.33091L20.16 3.74132L19.7477 4.1215L18.0637 5.67244L17.6601 6.04829L17.2781 5.63787L14.6871 2.85137C14.3703 2.51008 14.2184 2.06942 14.2357 1.63308C14.2487 1.19675 14.431 0.769051 14.7739 0.453679ZM15.9587 1.11034C15.8112 1.1017 15.6593 1.15787 15.5378 1.26587C15.4206 1.37819 15.3555 1.52508 15.3468 1.67196C15.3424 1.82317 15.3945 1.97438 15.503 2.09102L17.7208 4.46711L18.5845 3.6722L16.3667 1.29179C16.2539 1.17947 16.1107 1.11898 15.9587 1.11034Z" fill="#D0D0D0"/>
<path fill-rule="evenodd" clip-rule="evenodd" d="M0 20.8708C7.24803 27.7528 14.0317 34.7039 16.6444 44.7224C17.5298 48.1051 21.1538 58.2229 25.5678 53.9805C28.4713 51.2545 26.9696 46.4202 26.566 44.3336C26.0321 41.586 28.5538 43.2147 29.5997 43.975C31.1362 45.0983 32.7637 46.7313 34.4824 48.1526C40.168 52.8659 47.0862 53.6522 51.244 48.6019C56.1484 42.6444 53.8698 37.0757 49.317 31.6582C45.2242 26.7894 40.0551 21.9292 34.7906 17.1511C29.4261 12.2909 23.9706 7.51284 19.4482 2.91187C12.9683 8.89529 6.48417 14.883 0 20.8708Z" fill="#D0D0D0"/>
<path fill-rule="evenodd" clip-rule="evenodd" d="M5.29942 26.0981C5.36018 26.1629 5.42094 26.2234 5.4817 26.2882L5.49038 26.1024L5.29942 26.0981ZM5.36018 15.9889L5.86797 16.0062L5.82891 17.0171L5.32112 16.9998L5.36018 15.9889ZM5.2647 18.5119L5.77249 18.5291L5.73343 19.5401L5.22563 19.5228L5.2647 18.5119ZM5.16921 21.0392L5.67701 21.0564L5.63795 22.0674L5.13015 22.0501L5.16921 21.0392ZM5.07373 23.5621L5.58153 23.5794L5.54246 24.5903L5.03467 24.5731L5.07373 23.5621Z" fill="white"/>
<path fill-rule="evenodd" clip-rule="evenodd" d="M12.2045 9.59937L12.1351 9.66417L12.2045 9.66849V9.59937ZM11.6403 11.1633L12.1481 11.1849L12.1091 12.1958L11.6013 12.1785L11.6403 11.1633ZM11.5448 13.6906L12.0526 13.7078L12.0136 14.7188L11.5058 14.7015L11.5448 13.6906ZM11.445 16.2135L11.9528 16.2351L11.9138 17.2461L11.406 17.2288L11.445 16.2135ZM11.3539 18.7408L11.8617 18.7581L11.8226 19.769L11.3148 19.7518L11.3539 18.7408ZM11.2584 21.2638L11.7662 21.2811L11.7271 22.292L11.2193 22.2747L11.2584 21.2638ZM11.1629 23.7911L11.6707 23.8084L11.6316 24.8193L11.1239 24.7977L11.1629 23.7911ZM11.0674 26.3141L11.5752 26.3314L11.5362 27.3423L11.0284 27.325L11.0674 26.3141ZM10.9719 28.8371L11.4797 28.8543L11.4407 29.8653L10.9329 29.848L10.9719 28.8371ZM10.8765 31.3643L11.3843 31.386L11.3452 32.3925L10.8374 32.3753L10.8765 31.3643Z" fill="white"/>
<path fill-rule="evenodd" clip-rule="evenodd" d="M16.5098 44.2169C16.5575 44.3854 16.6009 44.5538 16.6443 44.7223C16.6877 44.8822 16.7355 45.055 16.7875 45.2408L16.9568 45.2494L16.9959 44.2385L16.5098 44.2169ZM18.4498 3.8363L17.9941 4.25536L17.9724 4.82562L18.4802 4.84722L18.5192 3.8363H18.4498ZM17.916 6.342L18.4238 6.35928L18.3847 7.3702L17.8769 7.35292L17.916 6.342ZM17.8205 8.86497L18.3283 8.88225L18.2892 9.89317L17.7814 9.87589L17.8205 8.86497ZM17.725 11.3923L18.2328 11.4095L18.1937 12.4205L17.6859 12.4032L17.725 11.3923ZM17.6295 13.9196L18.1373 13.9368L18.0983 14.9478L17.5905 14.9305L17.6295 13.9196ZM17.534 16.4425L18.0418 16.4598L18.0028 17.4707L17.495 17.4535L17.534 16.4425ZM17.4429 18.9655L17.9507 18.9828L17.9116 19.9937L17.4038 19.9721L17.4429 18.9655ZM17.3474 21.4928L17.8552 21.5101L17.8161 22.521L17.3084 22.4994L17.3474 21.4928ZM17.2519 24.0158L17.7554 24.0331L17.7163 25.044L17.2085 25.0267L17.2519 24.0158ZM17.1564 26.5388L17.6642 26.5604L17.6252 27.5713L17.1174 27.554L17.1564 26.5388ZM17.061 29.0661L17.5688 29.0877L17.5297 30.0986L17.0219 30.077L17.061 29.0661ZM16.9655 31.589L17.4733 31.6063L17.4342 32.6172L16.9264 32.6L16.9655 31.589ZM16.87 34.1163L17.3778 34.1336L17.3387 35.1445L16.8309 35.1272L16.87 34.1163ZM16.7745 36.6393L17.2823 36.6566L17.2432 37.6675L16.7355 37.6459L16.7745 36.6393ZM16.679 39.1666L17.1825 39.1839L17.1434 40.1948L16.6356 40.1732L16.679 39.1666ZM16.5835 41.6896L17.0913 41.7069L17.0523 42.7178L16.5445 42.7005L16.5835 41.6896Z" fill="white"/>
<path fill-rule="evenodd" clip-rule="evenodd" d="M22.1912 54.6803C22.3561 54.7667 22.521 54.8358 22.6946 54.8877L22.7033 54.5593L22.1955 54.5421L22.1912 54.6803ZM24.2657 7.59053L23.975 7.31836L23.9663 7.58189L24.2657 7.59053ZM23.9099 9.09395L24.4177 9.11555L24.3786 10.1265L23.8708 10.1049L23.9099 9.09395ZM23.8144 11.6212L24.3222 11.6385L24.2831 12.6494L23.7753 12.6322L23.8144 11.6212ZM23.7189 14.1442L24.2267 14.1615L24.1876 15.1724L23.6798 15.1508L23.7189 14.1442ZM23.6234 16.6715L24.1312 16.6888L24.0921 17.6997L23.5843 17.6824L23.6234 16.6715ZM23.5279 19.1945L24.0357 19.2161L23.9967 20.227L23.4889 20.2097L23.5279 19.1945ZM23.4324 21.7175L23.9402 21.7347L23.9012 22.7457L23.3934 22.7284L23.4324 21.7175ZM23.337 24.2448L23.8448 24.262L23.8057 25.273L23.2979 25.2557L23.337 24.2448ZM23.2415 26.7677L23.7493 26.785L23.7102 27.7959L23.2024 27.7787L23.2415 26.7677ZM23.146 29.295L23.6538 29.3123L23.6147 30.3232L23.1069 30.3059L23.146 29.295ZM23.0548 31.818L23.5626 31.8353L23.5236 32.8462L23.0158 32.8246L23.0548 31.818ZM22.9594 34.3453L23.4672 34.3626L23.4281 35.3735L22.9203 35.3562L22.9594 34.3453ZM22.8639 36.8683L23.3717 36.8856L23.3326 37.8965L22.8248 37.8749L22.8639 36.8683ZM22.7684 39.3913L23.2762 39.4085L23.2371 40.4194L22.7293 40.4022L22.7684 39.3913ZM22.6729 41.9185L23.1807 41.9358L23.1417 42.9467L22.6339 42.9295L22.6729 41.9185ZM22.5774 44.4415L23.0852 44.4588L23.0462 45.4697L22.5384 45.4481L22.5774 44.4415ZM22.482 46.9688L22.9897 46.9861L22.9507 47.997L22.4429 47.9797L22.482 46.9688ZM22.3865 49.4918L22.8943 49.5091L22.8552 50.52L22.3474 50.4984L22.3865 49.4918ZM22.291 52.0191L22.7988 52.0364L22.7597 53.0473L22.2519 53.03L22.291 52.0191Z" fill="white"/>
<path fill-rule="evenodd" clip-rule="evenodd" d="M30.0338 12.8654L29.8689 12.7142L29.8645 12.8568L30.0338 12.8654ZM29.8081 14.3732L30.3159 14.3948L30.2769 15.4057L29.7691 15.3884L29.8081 14.3732ZM29.7126 16.8962L30.2204 16.9134L30.1814 17.9244L29.6736 17.9071L29.7126 16.8962ZM29.6172 19.4191L30.1206 19.4407L30.0859 20.4516L29.5781 20.4344L29.6172 19.4191ZM29.5217 21.9464L30.0295 21.968L29.9904 22.9789L29.4826 22.9573L29.5217 21.9464ZM29.4262 24.4737L29.934 24.491L29.8949 25.5019L29.3871 25.4846L29.4262 24.4737ZM29.3307 26.9967L29.8385 27.014L29.7994 28.0249L29.2916 28.0076L29.3307 26.9967ZM29.2352 29.5197L29.743 29.537L29.704 30.5479L29.1962 30.5263L29.2352 29.5197ZM29.1397 32.047L29.6475 32.0642L29.6085 33.0752L29.1007 33.0579L29.1397 32.047ZM29.0443 34.5699L29.5521 34.5872L29.513 35.5981L29.0052 35.5809L29.0443 34.5699ZM28.9488 37.0972L29.4566 37.1188L29.4175 38.1298L28.9097 38.1125L28.9488 37.0972ZM28.8533 39.6202L29.3611 39.6375L29.322 40.6484L28.8142 40.6311L28.8533 39.6202ZM28.7578 42.1432L29.2656 42.1648L29.2265 43.1757L28.7188 43.1584L28.7578 42.1432Z" fill="white"/>
<path fill-rule="evenodd" clip-rule="evenodd" d="M34.6257 48.2692C34.6995 48.3254 34.769 48.3858 34.8427 48.442L35.1292 48.455L35.1682 47.444L34.6605 47.4268L34.6257 48.2692ZM35.8714 18.1404L35.7628 18.041L35.7585 18.1361L35.8714 18.1404ZM35.7021 19.6481L36.2099 19.6654L36.1708 20.6763L35.663 20.659L35.7021 19.6481ZM35.6066 22.1754L36.1144 22.197L36.0753 23.2079L35.5675 23.1907L35.6066 22.1754ZM35.5155 24.6984L36.0233 24.72L35.9842 25.7309L35.4764 25.7136L35.5155 24.6984ZM35.42 27.2214L35.9278 27.2386L35.8887 28.2496L35.3809 28.2323L35.42 27.2214ZM35.3245 29.7487L35.8323 29.7659L35.7932 30.7769L35.2854 30.7596L35.3245 29.7487ZM35.229 32.2716L35.7368 32.2889L35.6977 33.2998L35.19 33.2826L35.229 32.2716ZM35.1335 34.7989L35.6413 34.8162L35.6023 35.8271L35.0945 35.8098L35.1335 34.7989ZM35.038 37.3219L35.5458 37.3392L35.5068 38.3501L34.999 38.3328L35.038 37.3219ZM34.9426 39.8492L35.4504 39.8665L35.4113 40.8774L34.9035 40.8601L34.9426 39.8492ZM34.8471 42.3722L35.3549 42.3895L35.3158 43.4004L34.808 43.3831L34.8471 42.3722ZM34.7516 44.8995L35.2594 44.9168L35.2203 45.9277L34.7125 45.9104L34.7516 44.8995Z" fill="white"/>
<path fill-rule="evenodd" clip-rule="evenodd" d="M41.6001 24.9274L42.1079 24.9446L42.0689 25.9556L41.5611 25.934L41.6001 24.9274ZM41.5047 27.4503L42.0125 27.4676L41.9734 28.4785L41.4656 28.4613L41.5047 27.4503ZM41.4135 29.9776L41.9213 29.9949L41.8823 31.0058L41.3745 30.9886L41.4135 29.9776ZM41.318 32.5006L41.8258 32.5179L41.7868 33.5288L41.279 33.5115L41.318 32.5006ZM41.2182 35.0236L41.726 35.0409L41.687 36.0518L41.1792 36.0345L41.2182 35.0236ZM41.1227 37.5509L41.6305 37.5682L41.5915 38.5791L41.0837 38.5618L41.1227 37.5509ZM41.0316 40.0739L41.5394 40.0911L41.5003 41.1021L40.9925 41.0848L41.0316 40.0739ZM40.9361 42.6012L41.4439 42.6184L41.4048 43.6294L40.897 43.6121L40.9361 42.6012ZM40.8406 45.1241L41.3484 45.1414L41.3094 46.1523L40.8016 46.1307L40.8406 45.1241ZM40.7451 47.6514L41.2529 47.6687L41.2139 48.6796L40.7061 48.6623L40.7451 47.6514ZM40.6497 50.1744L41.1575 50.1917L41.1184 51.2026L40.6106 51.1853L40.6497 50.1744Z" fill="white"/>
<path fill-rule="evenodd" clip-rule="evenodd" d="M47.4985 30.2023L48.0063 30.2195L47.9673 31.2305L47.4595 31.2089L47.4985 30.2023ZM47.4031 32.7252L47.9109 32.7468L47.8718 33.7578L47.364 33.7405L47.4031 32.7252ZM47.3076 35.2525L47.8154 35.2698L47.7763 36.2807L47.2685 36.2591L47.3076 35.2525ZM47.2121 37.7755L47.7199 37.7971L47.6808 38.808L47.173 38.7864L47.2121 37.7755ZM47.1166 40.3028L47.6244 40.3201L47.5853 41.331L47.0775 41.3137L47.1166 40.3028ZM47.0211 42.8301L47.5289 42.8474L47.4899 43.8583L46.9821 43.841L47.0211 42.8301ZM46.93 45.3531L47.4378 45.3704L47.3987 46.3813L46.8909 46.364L46.93 45.3531ZM46.8345 47.8761L47.3423 47.8933L47.3032 48.9043L46.7954 48.887L46.8345 47.8761ZM46.739 50.4034L47.2468 50.4206L47.2077 51.4316L46.7 51.4143L46.739 50.4034Z" fill="white"/>
<path fill-rule="evenodd" clip-rule="evenodd" d="M53.0017 45.9147C53.0538 45.8024 53.1059 45.6944 53.1536 45.5864L53.0104 45.5821L53.0017 45.9147ZM53.618 39.0284C53.5269 38.6957 53.4184 38.3674 53.2968 38.0391L53.2578 39.0154L53.618 39.0284ZM53.2057 40.5318L53.7135 40.5491L53.6744 41.56L53.1666 41.5427L53.2057 40.5318ZM53.1102 43.0548L53.618 43.0721L53.5789 44.083L53.0711 44.0657L53.1102 43.0548Z" fill="white"/>
<path d="M18.5196 3.8362L18.5007 4.34131L19.5156 4.37881L19.5345 3.87371L18.5196 3.8362Z" fill="white"/>
<path fill-rule="evenodd" clip-rule="evenodd" d="M11.6793 10.0876L11.6099 10.1524L11.6793 10.1567V10.0876ZM13.2157 9.7074L13.194 10.2129L14.2096 10.2517L14.227 9.74628L13.2157 9.7074ZM15.7547 9.80244L15.7373 10.3079L16.7529 10.3468L16.7746 9.84132L15.7547 9.80244ZM18.2893 9.89748L18.272 10.4029L19.2832 10.4418L19.3049 9.93637L18.2893 9.89748ZM20.8283 9.99253L20.811 10.498L21.8265 10.5369L21.8482 10.0314L20.8283 9.99253ZM23.363 10.0876L23.3456 10.593L24.3612 10.6319L24.3785 10.1265L23.363 10.0876ZM25.8976 10.1826L25.8802 10.6881L26.8958 10.727L26.9132 10.2215L25.8976 10.1826Z" fill="white"/>
<path fill-rule="evenodd" clip-rule="evenodd" d="M34.2915 16.7017L34.1309 16.5549L33.2802 16.5246L33.2629 17.0301L34.2785 17.069L34.2915 16.7017ZM5.82016 15.5007L5.36445 15.9198L5.36011 15.9889L6.3757 16.0278L6.39306 15.5223L5.82016 15.5007ZM7.91645 15.5785L7.89475 16.084L8.91034 16.1228L8.9277 15.6174L7.91645 15.5785ZM10.4511 15.6692L10.4337 16.1747L11.4493 16.2136L11.4667 15.7081L10.4511 15.6692ZM12.9901 15.7686L12.9727 16.274L13.9883 16.3129L14.01 15.8075L12.9901 15.7686ZM15.5247 15.8593L15.503 16.3648L16.5186 16.4036L16.5403 15.8982L15.5247 15.8593ZM18.0637 15.9543L18.0463 16.4598L19.0619 16.4987L19.0836 15.9932L18.0637 15.9543ZM20.5983 16.0494L20.5766 16.5549L21.5922 16.5937L21.6096 16.0883L20.5983 16.0494ZM23.1373 16.1444L23.12 16.6499L24.1355 16.6888L24.1529 16.1833L23.1373 16.1444ZM25.672 16.2395L25.6503 16.7449L26.6658 16.7838L26.6875 16.2784L25.672 16.2395ZM28.2109 16.3345L28.1936 16.84L29.2092 16.8789L29.2265 16.3734L28.2109 16.3345ZM30.7456 16.4296L30.7282 16.935L31.7438 16.9739L31.7655 16.4684L30.7456 16.4296Z" fill="white"/>
<path fill-rule="evenodd" clip-rule="evenodd" d="M0.525146 21.3676C0.707432 21.5404 0.889718 21.7175 1.072 21.8946L1.0937 21.3892L0.525146 21.3676ZM41.5047 23.4067C41.3224 23.2339 41.1402 23.0567 40.9579 22.8839L40.6627 22.8753L40.6454 23.3807L41.5047 23.4067ZM2.61275 21.4496L2.59539 21.9551L3.61098 21.994L3.62835 21.4885L2.61275 21.4496ZM5.15173 21.5404L5.13437 22.0458L6.14997 22.0847L6.16733 21.5792L5.15173 21.5404ZM7.68637 21.6354L7.66901 22.1409L8.68027 22.1797L8.69763 21.6743L7.68637 21.6354ZM10.2254 21.7304L10.208 22.2359L11.2236 22.2748L11.2453 21.7693L10.2254 21.7304ZM12.76 21.8255L12.7426 22.3309L13.7582 22.3698L13.7799 21.8644L12.76 21.8255ZM15.2946 21.9205L15.2773 22.426L16.2929 22.4649L16.3102 21.9594L15.2946 21.9205ZM17.8336 22.0156L17.8119 22.521L18.8275 22.5599L18.8449 22.0545L17.8336 22.0156ZM20.3683 22.1106L20.3509 22.6161L21.3665 22.655L21.3839 22.1495L20.3683 22.1106ZM22.9072 22.2057L22.8899 22.7111L23.9055 22.75L23.9228 22.2445L22.9072 22.2057ZM25.4419 22.3007L25.4245 22.8062L26.4401 22.8451L26.4575 22.3396L25.4419 22.3007ZM27.9809 22.3958L27.9635 22.9012L28.9748 22.9401L28.9965 22.4346L27.9809 22.3958ZM30.5155 22.4908L30.4981 22.9963L31.5137 23.0351L31.5354 22.5297L30.5155 22.4908ZM33.0545 22.5858L33.0371 23.0913L34.0527 23.1302L34.0744 22.6247L33.0545 22.5858ZM35.5891 22.6766L35.5718 23.182L36.5874 23.2166L36.6047 22.7111L35.5891 22.6766ZM38.1281 22.7716L38.1064 23.2771L39.122 23.3159L39.1394 22.8105L38.1281 22.7716Z" fill="white"/>
<path fill-rule="evenodd" clip-rule="evenodd" d="M7.46072 27.6965L7.44336 28.202L8.45895 28.2409L8.47631 27.7354L7.46072 27.6965ZM9.99536 27.7916L9.978 28.297L10.9936 28.3359L11.011 27.8305L9.99536 27.7916ZM12.53 27.8866L12.5126 28.3921L13.5282 28.431L13.5499 27.9255L12.53 27.8866ZM15.069 27.9817L15.0516 28.4871L16.0672 28.526L16.0846 28.0205L15.069 27.9817ZM17.6036 28.0767L17.5863 28.5822L18.6019 28.621L18.6236 28.1156L17.6036 28.0767ZM20.1383 28.1718L20.1209 28.6772L21.1365 28.7161L21.1539 28.2106L20.1383 28.1718ZM22.6772 28.2625L22.6599 28.7679L23.6755 28.8068L23.6972 28.3014L22.6772 28.2625ZM25.2162 28.3575L25.1989 28.863L26.2145 28.9019L26.2318 28.3964L25.2162 28.3575ZM27.7509 28.4526L27.7335 28.958L28.7491 28.9926L28.7665 28.4871L27.7509 28.4526ZM30.2855 28.5476L30.2681 29.0531L31.2837 29.0919L31.3011 28.5865L30.2855 28.5476ZM32.8245 28.6427L32.8071 29.1481L33.8227 29.187L33.8401 28.6815L32.8245 28.6427ZM35.3591 28.7377L35.3418 29.2432L36.3574 29.282L36.3791 28.7766L35.3591 28.7377ZM37.8981 28.8327L37.8807 29.3382L38.892 29.3771L38.9137 28.8716L37.8981 28.8327ZM40.4328 28.9278L40.4154 29.4332L41.431 29.4721L41.4483 28.9667L40.4328 28.9278ZM42.9717 29.0228L42.9544 29.5283L43.97 29.5672L43.9917 29.0617L42.9717 29.0228ZM45.5064 29.1179L45.489 29.6233L46.5046 29.6622L46.522 29.1567L45.5064 29.1179Z" fill="white"/>
<path fill-rule="evenodd" clip-rule="evenodd" d="M12.3042 33.9436L12.2869 34.4491L13.3025 34.4879L13.3198 33.9825L12.3042 33.9436ZM14.8389 34.0386L14.8215 34.5441L15.8371 34.583L15.8545 34.0775L14.8389 34.0386ZM17.3778 34.1337L17.3605 34.6392L18.3761 34.678L18.3934 34.1726L17.3778 34.1337ZM19.9125 34.2287L19.8951 34.7342L20.9107 34.7731L20.9281 34.2676L19.9125 34.2287ZM22.4515 34.3238L22.4341 34.8292L23.4497 34.8681L23.4671 34.3627L22.4515 34.3238ZM24.9861 34.4188L24.9644 34.9243L25.98 34.9632L26.0017 34.4577L24.9861 34.4188ZM27.5208 34.5139L27.5034 35.0193L28.519 35.0582L28.5363 34.5527L27.5208 34.5139ZM30.0597 34.6089L30.038 35.1144L31.0536 35.1533L31.071 34.6478L30.0597 34.6089ZM32.5944 34.704L32.577 35.2094L33.5926 35.2483L33.61 34.7428L32.5944 34.704ZM35.1334 34.799L35.116 35.3045L36.1316 35.3433L36.1489 34.8379L35.1334 34.799ZM37.668 34.894L37.6463 35.3995L38.6619 35.4384L38.6792 34.9329L37.668 34.894ZM40.207 34.9891L40.1896 35.4945L41.2052 35.5334L41.2269 35.028L40.207 34.9891ZM42.7416 35.0841L42.7243 35.5896L43.7398 35.6285L43.7572 35.123L42.7416 35.0841ZM45.2806 35.1792L45.2589 35.6846L46.2745 35.7235L46.2919 35.2181L45.2806 35.1792ZM47.8152 35.2742L47.7979 35.7797L48.8135 35.8186L48.8352 35.3131L47.8152 35.2742ZM50.3542 35.3693L50.3369 35.8747L51.3525 35.9136L51.3698 35.4081L50.3542 35.3693Z" fill="white"/>
<path fill-rule="evenodd" clip-rule="evenodd" d="M15.0776 40.1171C15.1514 40.2899 15.2209 40.4584 15.2903 40.6312L15.6071 40.6441L15.6245 40.1387L15.0776 40.1171ZM17.1479 40.1948L17.1305 40.7003L18.1461 40.7392L18.1678 40.2337L17.1479 40.1948ZM19.6825 40.2899L19.6652 40.7953L20.6808 40.8342L20.6981 40.3288L19.6825 40.2899ZM22.2215 40.3849L22.2041 40.8904L23.2197 40.9293L23.2371 40.4238L22.2215 40.3849ZM24.7561 40.48L24.7388 40.9854L25.7544 41.0243L25.7717 40.5188L24.7561 40.48ZM27.2951 40.575L27.2778 41.0805L28.2934 41.115L28.3107 40.6096L27.2951 40.575ZM29.8298 40.67L29.8124 41.1755L30.828 41.2144L30.8454 40.7089L29.8298 40.67ZM32.3687 40.7651L32.3514 41.2705L33.367 41.3094L33.3843 40.804L32.3687 40.7651ZM34.9034 40.8558L34.886 41.3613L35.9016 41.4002L35.919 40.8947L34.9034 40.8558ZM37.4424 40.9509L37.425 41.4563L38.4406 41.4909L38.458 40.9854L37.4424 40.9509ZM39.977 41.0459L39.9553 41.5514L40.9709 41.5902L40.9883 41.0848L39.977 41.0459ZM42.516 41.1409L42.4986 41.6464L43.5142 41.6853L43.5316 41.1798L42.516 41.1409ZM45.0506 41.236L45.0289 41.7414L46.0445 41.7803L46.0619 41.2749L45.0506 41.236ZM47.5853 41.331L47.5679 41.8365L48.5792 41.8754L48.5965 41.3699L47.5853 41.331ZM50.1243 41.4261L50.1069 41.9315L51.1225 41.9704L51.1398 41.465L50.1243 41.4261ZM52.6589 41.5211L52.6415 42.0266L53.6571 42.0655L53.6745 41.56L52.6589 41.5211Z" fill="white"/>
<path fill-rule="evenodd" clip-rule="evenodd" d="M17.1001 46.2646C17.1522 46.4288 17.2129 46.6016 17.2694 46.7744L17.9117 46.8004L17.9291 46.2949L17.1001 46.2646ZM27.1345 47.1416C27.1128 46.9991 27.0868 46.8565 27.0651 46.7183L27.0477 47.1373L27.1345 47.1416ZM32.985 46.8565L33.1456 47.0034L33.1543 46.8652L32.985 46.8565ZM19.4568 46.3511L19.4394 46.8565L20.455 46.8954L20.4724 46.3899L19.4568 46.3511ZM21.9914 46.4461L21.9741 46.9516L22.9897 46.9904L23.007 46.485L21.9914 46.4461ZM24.5304 46.5411L24.5131 47.0466L25.5286 47.0855L25.546 46.58L24.5304 46.5411ZM34.6777 46.917L34.6603 47.4225L35.6759 47.4613L35.6932 46.9559L34.6777 46.917ZM37.2123 47.012L37.1949 47.5175L38.2105 47.5564L38.2279 47.0509L37.2123 47.012ZM39.7513 47.1071L39.7296 47.6125L40.7452 47.6514L40.7669 47.146L39.7513 47.1071ZM42.2859 47.2021L42.2642 47.7076L43.2798 47.7465L43.2972 47.241L42.2859 47.2021ZM44.8206 47.2972L44.8032 47.8026L45.8144 47.8415L45.8318 47.3361L44.8206 47.2972ZM47.3595 47.3922L47.3422 47.8977L48.3578 47.9366L48.3751 47.4311L47.3595 47.3922ZM49.8942 47.4873L49.8768 47.9927L50.8924 48.0316L50.9098 47.5261L49.8942 47.4873Z" fill="white"/>
</g>
<defs>
<clipPath id="clip0_159_283">
<rect width="54" height="55" fill="white"/>
</clipPath>
</defs>
</svg>
