<svg width="20" height="20" viewBox="0 0 20 20" fill="none" xmlns="http://www.w3.org/2000/svg">
<path d="M9.99992 0.833313C4.93075 0.833313 0.833252 4.93081 0.833252 9.99998C0.833252 15.0691 4.93075 19.1666 9.99992 19.1666C15.0691 19.1666 19.1666 15.0691 19.1666 9.99998C19.1666 4.93081 15.0691 0.833313 9.99992 0.833313ZM13.9416 13.9416C13.8568 14.0266 13.756 14.094 13.6452 14.14C13.5343 14.186 13.4154 14.2097 13.2953 14.2097C13.1753 14.2097 13.0564 14.186 12.9455 14.14C12.8346 14.094 12.7339 14.0266 12.6491 13.9416L9.99992 11.2925L7.35075 13.9416C7.17936 14.113 6.94689 14.2093 6.7045 14.2093C6.46211 14.2093 6.22965 14.113 6.05825 13.9416C5.88686 13.7702 5.79057 13.5378 5.79057 13.2954C5.79057 13.1754 5.81421 13.0565 5.86014 12.9456C5.90606 12.8348 5.97338 12.734 6.05825 12.6491L8.70742 9.99998L6.05825 7.35081C5.88686 7.17942 5.79057 6.94695 5.79057 6.70456C5.79057 6.46217 5.88686 6.22971 6.05825 6.05831C6.22965 5.88692 6.46211 5.79063 6.7045 5.79063C6.94689 5.79063 7.17936 5.88692 7.35075 6.05831L9.99992 8.70748L12.6491 6.05831C12.734 5.97345 12.8347 5.90613 12.9456 5.8602C13.0565 5.81427 13.1753 5.79063 13.2953 5.79063C13.4154 5.79063 13.5342 5.81427 13.6451 5.8602C13.756 5.90613 13.8567 5.97345 13.9416 6.05831C14.0265 6.14318 14.0938 6.24393 14.1397 6.35481C14.1856 6.4657 14.2093 6.58454 14.2093 6.70456C14.2093 6.82458 14.1856 6.94343 14.1397 7.05431C14.0938 7.16519 14.0265 7.26595 13.9416 7.35081L11.2924 9.99998L13.9416 12.6491C14.2899 12.9975 14.2899 13.5841 13.9416 13.9416Z" fill="#2E2E2E"/>
</svg>
