<svg width="13" height="17" viewBox="0 0 13 17" fill="none" xmlns="http://www.w3.org/2000/svg">
<path d="M8.66667 0.53125C8.66667 1.52181 8.85287 2.4349 9.22526 3.27051C9.59766 4.10612 10.1337 4.87533 10.8333 5.57812C11.533 6.28092 12.069 7.05013 12.4414 7.88574C12.8138 8.72135 13 9.63444 13 10.625C13 11.2116 12.9238 11.776 12.7715 12.3184C12.6191 12.8607 12.3991 13.367 12.1113 13.8374C11.8236 14.3078 11.485 14.7394 11.0957 15.1323C10.7064 15.5252 10.2691 15.8573 9.78385 16.1284C9.29861 16.3996 8.77951 16.6126 8.22656 16.7676C7.67361 16.9225 7.09809 17 6.5 17C5.90191 17 5.32639 16.9253 4.77344 16.7759C4.22049 16.6265 3.70421 16.4106 3.22461 16.1284C2.74501 15.8462 2.3049 15.5142 1.9043 15.1323C1.50369 14.7505 1.16515 14.3216 0.888672 13.8457C0.612196 13.3698 0.394965 12.8607 0.236979 12.3184C0.0789931 11.776 0 11.2116 0 10.625C0 10.1602 0.0507812 9.70361 0.152344 9.25537C0.253906 8.80713 0.400608 8.37825 0.592448 7.96875C0.784288 7.55924 1.02127 7.16911 1.30339 6.79834C1.5855 6.42757 1.9043 6.09277 2.25977 5.79395C2.29926 6.00423 2.35286 6.22005 2.42057 6.44141C2.48828 6.66276 2.56727 6.88411 2.65755 7.10547C2.74783 7.32682 2.85503 7.53711 2.97917 7.73633C3.1033 7.93555 3.23307 8.12093 3.36849 8.29248C3.48134 8.43083 3.62804 8.5 3.80859 8.5C3.96094 8.5 4.08789 8.44743 4.18945 8.34229C4.29102 8.23714 4.34462 8.10986 4.35026 7.96045C4.35026 7.89958 4.3418 7.84424 4.32487 7.79443C4.30794 7.74463 4.27973 7.69482 4.24023 7.64502C4.08225 7.41813 3.94401 7.19401 3.82552 6.97266C3.70703 6.7513 3.60265 6.52441 3.51237 6.29199C3.42209 6.05957 3.3572 5.81885 3.31771 5.56982C3.27821 5.3208 3.25564 5.05794 3.25 4.78125C3.25 4.12272 3.37695 3.50293 3.63086 2.92188C3.88477 2.34082 4.23459 1.83447 4.68034 1.40283C5.12609 0.971191 5.64236 0.630859 6.22917 0.381836C6.81597 0.132812 7.44792 0.00553385 8.125 0H8.66667V0.53125ZM6.5 15.9375C7.25043 15.9375 7.95291 15.7992 8.60742 15.5225C9.26194 15.2458 9.83746 14.8667 10.334 14.3853C10.8305 13.9038 11.217 13.3421 11.4935 12.7002C11.77 12.0583 11.911 11.3665 11.9167 10.625C11.9167 9.78939 11.7587 9.01188 11.4427 8.29248C11.1267 7.57308 10.6697 6.92008 10.0716 6.3335C9.33811 5.60856 8.76259 4.80892 8.34505 3.93457C7.92752 3.06022 7.67925 2.11393 7.60026 1.0957C7.13194 1.15658 6.7003 1.29492 6.30534 1.51074C5.91037 1.72656 5.56337 2.00049 5.26432 2.33252C4.96528 2.66455 4.73676 3.03809 4.57878 3.45312C4.42079 3.86816 4.33898 4.31087 4.33333 4.78125C4.33333 5.21289 4.39822 5.60303 4.528 5.95166C4.65777 6.30029 4.84961 6.64893 5.10352 6.99756C5.21072 7.14144 5.29253 7.29085 5.34896 7.4458C5.40538 7.60075 5.43642 7.7723 5.44206 7.96045C5.44206 8.1818 5.39974 8.38932 5.3151 8.58301C5.23047 8.77669 5.11198 8.94548 4.95964 9.08936C4.80729 9.23324 4.6352 9.34945 4.44336 9.43799C4.25152 9.52653 4.03993 9.56803 3.80859 9.5625C3.54905 9.5625 3.32053 9.51546 3.12305 9.42139C2.92556 9.32731 2.75065 9.20003 2.59831 9.03955C2.44596 8.87907 2.31055 8.69922 2.19206 8.5C2.07357 8.30078 1.96072 8.10156 1.85352 7.90234C1.59397 8.30632 1.40213 8.74072 1.27799 9.20557C1.15386 9.67041 1.08898 10.1436 1.08333 10.625C1.08333 11.361 1.22439 12.05 1.50651 12.6919C1.78863 13.3338 2.17513 13.8983 2.66602 14.3853C3.1569 14.8722 3.7296 15.2513 4.38411 15.5225C5.03863 15.7936 5.74392 15.932 6.5 15.9375Z" fill="#FF0000"/>
</svg>
