<svg width="7" height="12" viewBox="0 0 7 12" fill="none" xmlns="http://www.w3.org/2000/svg">
<path d="M6.33019 5.28995L2.09019 1.04995C1.99722 0.95622 1.88662 0.881826 1.76476 0.831057C1.6429 0.780288 1.5122 0.75415 1.38019 0.75415C1.24818 0.75415 1.11747 0.780288 0.99561 0.831057C0.873751 0.881826 0.76315 0.95622 0.670187 1.04995C0.483936 1.23731 0.379395 1.49076 0.379395 1.75495C0.379395 2.01913 0.483936 2.27259 0.670187 2.45995L4.21019 5.99995L0.670187 9.53995C0.483936 9.72731 0.379395 9.98076 0.379395 10.2449C0.379395 10.5091 0.483936 10.7626 0.670187 10.9499C0.763627 11.0426 0.874443 11.116 0.996281 11.1657C1.11812 11.2155 1.24858 11.2407 1.38019 11.2399C1.51179 11.2407 1.64226 11.2155 1.76409 11.1657C1.88593 11.116 1.99675 11.0426 2.09019 10.9499L6.33019 6.70995C6.42392 6.61699 6.49831 6.50638 6.54908 6.38453C6.59985 6.26267 6.62599 6.13196 6.62599 5.99995C6.62599 5.86794 6.59985 5.73723 6.54908 5.61537C6.49831 5.49351 6.42392 5.38291 6.33019 5.28995Z" fill="#F0FDF4"/>
</svg>
