<svg width="52" height="52" viewBox="0 0 52 52" fill="none" xmlns="http://www.w3.org/2000/svg">
<g clip-path="url(#clip0_131_340)">
<path d="M52 26.0021C52 40.3618 40.3577 52.0041 25.9979 52.0041C11.6423 52 0 40.3618 0 26.0021C0 11.6423 11.6423 0 26.0021 0C40.3618 0 52 11.6423 52 26.0021Z" fill="#D0D0D0"/>
<path d="M16.9703 41.4141C16.3125 41.4141 15.8767 40.8838 15.6835 39.8355L15.6794 39.8067L13.2128 23.9999L12.7442 26.3597C12.3865 27.8519 11.3423 28.2014 10.7873 28.1849H3.7123C3.18609 28.1849 2.75854 27.7574 2.75854 27.2312C2.75854 26.705 3.18609 26.2774 3.7123 26.2774H10.7421C10.7709 26.2404 10.8325 26.1418 10.886 25.9321L12.0782 19.9013C12.1481 19.5231 12.3577 18.4049 13.3074 18.4049C13.3115 18.4049 13.3197 18.4049 13.3279 18.4049C14.2858 18.4213 14.4461 19.4943 14.5242 20.0123L16.9004 35.2476L19.4656 13.0852C19.6095 11.7368 19.8069 10.6104 20.8182 10.5899C21.8459 10.5652 22.0145 11.7122 22.1378 12.5508L24.0864 26.2898C24.107 26.3185 24.218 26.3473 24.3701 26.3432H24.3906H27.5725C27.6013 26.3103 27.6506 26.2363 27.6959 26.1048L28.8757 22.0883C29.1511 21.0359 29.7596 20.9126 30.0967 20.929C30.997 20.9825 31.1285 21.9527 31.1696 22.2733L32.6373 32.2589L35.219 14.8817C35.2724 14.5323 35.4328 13.484 36.3618 13.484C36.3659 13.484 36.3701 13.484 36.3742 13.484C37.3115 13.4922 37.4389 14.4994 37.5006 14.9845L39.4081 28.7523C39.6465 28.1726 39.8973 27.6258 40.1193 27.26C40.3495 26.8817 40.9127 26.4501 41.7596 26.4624L48.2837 26.5035C48.814 26.5076 49.2375 26.9393 49.2334 27.4655C49.2293 27.9917 48.8017 28.4152 48.2796 28.4152C48.2755 28.4152 48.2755 28.4152 48.2755 28.4152L41.739 28.374C41.7144 28.374 41.6938 28.374 41.6815 28.374C41.2087 29.2209 40.4975 31.2517 40.2508 31.9958L40.2467 32.0123C40.1398 32.3165 39.811 33.2497 38.923 33.1428C38.6599 33.1099 38.0309 32.929 37.9199 31.8972L36.3289 20.4028L33.9322 36.5179C33.8007 37.373 33.6239 38.5405 32.6208 38.5405H32.6167C31.626 38.5364 31.4615 37.3771 31.4081 36.9989L29.7637 25.8293L29.5129 26.6844C29.0977 27.9301 28.1686 28.2466 27.6589 28.2425H24.4029C22.9518 28.2754 22.2899 27.2723 22.1995 26.5858L20.8922 17.3566L18.3762 39.0585C18.2365 40.0904 18.0597 41.3771 16.999 41.4018C16.9949 41.4141 16.9826 41.4141 16.9703 41.4141Z" fill="white"/>
<path d="M16.9703 41.5046C16.2632 41.5046 15.8027 40.9496 15.5972 39.8561L15.5931 39.8273L13.2005 24.5098L12.8305 26.3762C12.4605 27.9137 11.3752 28.2919 10.7832 28.2713H3.71228C3.13674 28.2713 2.66809 27.8027 2.66809 27.2271C2.66809 26.6516 3.13674 26.1829 3.71228 26.1829H10.6969C10.7256 26.1377 10.7668 26.0514 10.7996 25.9075L11.9918 19.8808C12.0617 19.4943 12.2796 18.3145 13.3074 18.3145C14.3639 18.3309 14.5365 19.4985 14.6105 19.9959L16.888 34.5899L19.3793 13.0689C19.5273 11.6752 19.737 10.52 20.8181 10.4954C21.9117 10.4748 22.1049 11.704 22.2282 12.5221L24.1727 26.2323C24.2015 26.2364 24.2714 26.2528 24.3742 26.2487H24.3988H27.5396C27.5602 26.2158 27.5931 26.1624 27.626 26.0678L28.8017 22.0555C29.0936 20.9455 29.7513 20.8099 30.1131 20.8345C31.0833 20.8921 31.2231 21.9157 31.2683 22.2569L32.6496 31.6506L35.145 14.8613C35.1984 14.4954 35.367 13.3895 36.3742 13.3895C37.406 13.4018 37.5417 14.4995 37.6033 14.9681L39.4656 28.4152C39.6876 27.8931 39.8891 27.4861 40.0617 27.2107C40.3002 26.816 40.9086 26.3597 41.7801 26.372L48.3043 26.4132C48.8798 26.4173 49.3444 26.8859 49.3402 27.4615C49.3361 28.0329 48.8675 28.4974 48.2961 28.4974L41.7555 28.4563H41.7513C41.2827 29.3196 40.5838 31.3135 40.3495 32.0206C40.2303 32.3618 39.8808 33.3443 38.9271 33.2292C38.6434 33.1963 37.9651 32.999 37.8459 31.9096L36.3372 21.0277L34.0309 36.5385C33.8952 37.4265 33.7102 38.6393 32.629 38.6393C31.5602 38.6351 31.3834 37.4224 31.3259 37.0195L29.7431 26.2487L29.5992 26.7215C29.2005 27.9178 28.3166 28.3412 27.6753 28.3412C27.6712 28.3412 27.663 28.3412 27.6588 28.3412H24.4029C24.3783 28.3412 24.3577 28.3412 24.333 28.3412C22.8736 28.3412 22.2077 27.3094 22.1131 26.6064L20.9004 18.0555L18.4625 39.0791C18.3187 40.148 18.1378 41.4758 16.999 41.5005L16.9703 41.5046ZM13.2251 23.4985L15.7739 39.8232C15.9589 40.8222 16.3659 41.3279 16.9744 41.3279V41.4142L16.9908 41.3237C17.9898 41.2991 18.1624 40.0534 18.2981 39.0545L20.8921 16.6742L22.294 26.5776C22.3803 27.2312 23.0052 28.185 24.407 28.1603H27.6671C27.6712 28.1603 27.6753 28.1603 27.6835 28.1603C28.2673 28.1603 29.0689 27.7698 29.4389 26.6639L29.8007 25.4265L31.5026 36.9908C31.5561 37.3525 31.7123 38.4543 32.6249 38.4584C33.5581 38.4584 33.7226 37.3772 33.8541 36.5098L36.3372 19.7862L38.0144 31.8849C38.1213 32.8551 38.6969 33.0236 38.9394 33.0524C39.7534 33.147 40.0699 32.2672 40.1686 31.9794C40.4112 31.2395 41.1347 29.1757 41.6116 28.3248L41.6362 28.2837L41.6815 28.2795C41.6979 28.2795 41.7226 28.2795 41.7472 28.2795L48.2796 28.3207C48.7606 28.3207 49.147 27.9342 49.1511 27.4573C49.1552 26.9805 48.7688 26.5899 48.2878 26.5858L41.7637 26.5447C40.9538 26.5324 40.4153 26.9435 40.1974 27.297C40.0001 27.6177 39.7616 28.1151 39.4903 28.777L39.367 29.0771L37.4142 14.9887C37.3567 14.5283 37.2334 13.5745 36.3742 13.5663C35.5026 13.5663 35.3546 14.5611 35.3053 14.89L32.6373 32.8551L31.0833 22.2816C31.0422 21.9774 30.9189 21.0606 30.0926 21.0113C29.7801 20.9949 29.221 21.11 28.962 22.1048L27.7822 26.1213C27.7246 26.2816 27.6712 26.3597 27.6383 26.3926L27.6136 26.4214H24.37C24.2837 26.4255 24.0782 26.4173 24.0165 26.335L24.0001 26.2939L22.0514 12.555C21.924 11.7081 21.7678 10.668 20.851 10.668C20.8387 10.668 20.8305 10.668 20.8223 10.668C19.8849 10.6886 19.6917 11.7739 19.5561 13.0853L16.9168 35.8931L14.4379 20.0206C14.3639 19.5272 14.2118 18.5036 13.3279 18.4872C12.4276 18.4872 12.2303 19.5601 12.1686 19.9096L10.9764 25.9404C10.923 26.1542 10.8613 26.2652 10.8161 26.3227L10.7914 26.3556H3.71228C3.23541 26.3556 2.84486 26.7461 2.84486 27.223C2.84486 27.6999 3.23541 28.0904 3.71228 28.0904H10.7873C11.3341 28.111 12.3166 27.7575 12.6578 26.3309L13.2251 23.4985Z" fill="#D0D0D0"/>
</g>
<defs>
<clipPath id="clip0_131_340">
<rect width="52" height="52" fill="white"/>
</clipPath>
</defs>
</svg>
