<svg width="23" height="23" viewBox="0 0 23 23" fill="none" xmlns="http://www.w3.org/2000/svg">
<g clip-path="url(#clip0_480_612)">
<path d="M19.1667 11.4452C19.1667 7.24675 15.7397 3.83317 11.5001 3.83317C7.26041 3.83317 3.83341 7.24675 3.83341 11.4452C3.83341 12.5856 3.97429 13.3188 4.14775 13.8564C4.26466 14.2129 4.54354 13.8612 4.68154 13.7318C5.13432 13.3072 5.73422 13.0749 6.35488 13.0838C6.97554 13.0928 7.5685 13.3423 8.00887 13.7797C9.37067 15.1329 10.627 17.0093 8.8915 18.7343C7.96 19.66 6.557 20.0453 5.48941 19.0486C4.11133 17.7606 2.91437 16.2618 2.325 14.4486C2.07966 13.6877 1.91675 12.7495 1.91675 11.4443C1.91675 6.1763 6.21296 1.9165 11.5001 1.9165C16.7872 1.9165 21.0834 6.1763 21.0834 11.4452C21.0834 12.7505 20.9215 13.6887 20.6752 14.4477C20.0858 16.2618 18.8888 17.7606 17.5107 19.0477C16.4432 20.0453 15.0402 19.661 14.1087 18.7343C12.3741 17.0093 13.6295 15.1329 14.9903 13.7797C15.4307 13.342 16.0239 13.0923 16.6448 13.0834C17.2657 13.0744 17.8658 13.3069 18.3186 13.7318C18.5841 13.981 18.7154 14.278 18.8524 13.8564C19.0259 13.3197 19.1667 12.5847 19.1667 11.4452Z" fill="white"/>
</g>
<defs>
<clipPath id="clip0_480_612">
<rect width="23" height="23" fill="white"/>
</clipPath>
</defs>
</svg>
