<svg width="20" height="20" viewBox="0 0 20 20" fill="none" xmlns="http://www.w3.org/2000/svg">
<g clip-path="url(#clip0_276_1907)">
<path d="M12.8678 6.9994L15.6535 4.21375C15.6535 4.21374 15.6535 4.21372 15.6535 4.21371C15.7765 4.09118 15.9414 4.02004 16.115 4.01474C16.2885 4.00944 16.4575 4.07039 16.5878 4.18522C16.718 4.30004 16.7996 4.46012 16.8161 4.63295C16.8324 4.80424 16.7835 4.97532 16.6792 5.11206L16.6165 5.18306L13.834 7.9656L13.6478 8.15185L13.903 8.21701C14.5436 8.38059 15.2532 8.18096 15.7094 7.64376L15.7095 7.64384L15.7133 7.63894L15.7992 7.52894L15.7993 7.52903L15.803 7.52386L17.0536 5.77334C17.0536 5.77329 17.0536 5.77323 17.0537 5.77317C17.1549 5.63239 17.3058 5.53534 17.4759 5.50167C17.646 5.46798 17.8226 5.50026 17.9698 5.59195C18.117 5.68364 18.2239 5.82788 18.2687 5.99544C18.3131 6.16142 18.2933 6.33797 18.2134 6.48995L18.1628 6.57073L16.9155 8.31862C16.4739 8.93663 15.8242 9.37466 15.0857 9.55235C14.3479 9.72987 13.5708 9.63564 12.8968 9.28697L12.7487 9.20471L12.6499 9.14978L12.5699 9.22975L10.6557 11.1431L10.5496 11.2491L10.6557 11.3552L14.1198 14.8202L14.1198 14.8202C14.2375 14.9379 14.3082 15.0944 14.3186 15.2605C14.329 15.4251 14.2794 15.5878 14.1793 15.7186L14.1167 15.7896C13.9994 15.9053 13.8441 15.9749 13.6796 15.9852C13.515 15.9956 13.3523 15.946 13.2214 15.8459L13.1504 15.7832L9.68948 12.3214L9.5834 12.2153L9.47732 12.3214L6.01317 15.7864C5.89551 15.9041 5.73896 15.9748 5.57289 15.9852C5.40833 15.9956 5.24563 15.946 5.11477 15.8459L5.04385 15.7833C4.92807 15.666 4.85855 15.5107 4.8482 15.3462C4.83785 15.1816 4.88736 15.0189 4.98749 14.888L5.05027 14.8169L8.51115 11.3552L8.61719 11.2492L8.51113 11.1431L7.16947 9.80143L7.09044 9.72241L6.99211 9.77553C6.65381 9.95827 6.28855 10.0859 5.91006 10.1536L5.70554 10.1839C5.23054 10.2436 4.74815 10.1922 4.29638 10.0338C3.8441 9.87513 3.43488 9.61356 3.10103 9.26968L3.10104 9.26967L3.09953 9.26816C2.34927 8.51709 1.92179 7.57414 1.81571 6.67166L1.81571 6.67164C1.71093 5.78099 1.91485 4.84574 2.54774 4.21363L2.54787 4.2135C3.17999 3.5806 4.11442 3.3767 5.00504 3.48147C5.90764 3.5884 6.85137 4.01593 7.6015 4.76607L7.60149 4.76608L7.60308 4.76762C7.94684 5.10139 8.20835 5.51048 8.36696 5.96261C8.52558 6.41473 8.57697 6.89753 8.51707 7.37292L8.51695 7.37397C8.46907 7.77696 8.35176 8.1597 8.19303 8.49281L8.10727 8.66104L8.05776 8.75815L8.13484 8.83523L9.4765 10.1769L9.58252 10.2829L9.68859 10.1769L11.6036 8.26361L11.6856 8.1817L11.627 8.08169C11.2439 7.4276 11.109 6.65749 11.2468 5.91211C11.3846 5.16741 11.7855 4.49708 12.3764 4.02339L12.5164 3.91756L14.2664 2.66794C14.2664 2.66793 14.2664 2.66792 14.2664 2.66791C14.4078 2.56703 14.5823 2.52379 14.7545 2.54699C14.9267 2.57019 15.0835 2.6581 15.1932 2.79284L15.3095 2.69815L15.1932 2.79284C15.3029 2.92757 15.3571 3.09902 15.3449 3.27232C15.3328 3.444 15.2563 3.60472 15.1309 3.72242L15.0568 3.78215L13.3097 5.03036C13.3096 5.03038 13.3096 5.03039 13.3096 5.03041C13.0352 5.22605 12.8218 5.49532 12.694 5.80713C12.5662 6.11896 12.5292 6.46059 12.5873 6.79254L12.5872 6.79256L12.5883 6.79757L12.615 6.92424L12.672 7.1952L12.8678 6.9994Z" fill="#BFBFBF" stroke="white" stroke-width="0.3"/>
</g>
<defs>
<clipPath id="clip0_276_1907">
<rect width="20" height="20" fill="white"/>
</clipPath>
</defs>
</svg>
