<svg width="28" height="52" viewBox="0 0 28 52" fill="none" xmlns="http://www.w3.org/2000/svg">
<g clip-path="url(#clip0_131_192)">
<path d="M0.00379025 7.09561C0.00379025 7.09561 -0.422122 -2.88489e-05 6.88305 -2.88489e-05H21.6835C21.6835 -2.88489e-05 28.1217 -0.158225 27.9962 7.09561L28 30.2307C28 30.2307 28 39.4061 18.7516 41.4935L18.7402 38.0402L9.23698 38.0248L9.23318 41.5552C9.23318 41.5552 0.00379025 40.0273 0.00379025 29.6443V7.09561Z" fill="#D0D0D0"/>
<path d="M23.5317 24.8714C23.5317 26.0675 22.5772 27.0321 21.4021 27.0321H6.59785C5.41898 27.0321 4.46448 26.0636 4.46448 24.8714V6.91041C4.46448 5.7143 5.41898 4.74969 6.59785 4.74969H21.4021C22.581 4.74969 23.5317 5.71816 23.5317 6.91041V24.8714Z" fill="white"/>
<path d="M13.9981 8.42676C13.9981 8.42676 9.26739 13.7745 8.55627 17.2124C8.55627 17.2124 7.91359 20.5461 10.3208 22.5525C10.3208 22.5525 11.9864 24.0611 14.8841 23.8373C14.8841 23.8373 16.584 23.7331 17.9492 22.3672C17.9492 22.3672 20.1548 20.0676 19.4133 16.9655C19.4171 16.9655 18.6907 13.5778 13.9981 8.42676Z" fill="#D0D0D0"/>
<path d="M17.1658 16.3558C17.1658 16.3558 17.1278 18.8831 15.3747 20.1255C15.3747 20.1255 13.6026 21.3872 11.7202 21.0554C11.7202 21.0554 12.6443 22.3017 14.8575 21.993C14.8575 21.993 17.4358 21.7152 17.7971 18.9603C17.7971 18.9603 17.9834 17.5519 17.1658 16.3558Z" fill="white"/>
<path d="M9.82267 32.0982C9.82267 33.5528 8.65902 34.7335 7.22536 34.7335C5.79171 34.7335 4.62805 33.5528 4.62805 32.0982C4.62805 30.6436 5.79171 29.4629 7.22536 29.4629C8.65902 29.4629 9.82267 30.6397 9.82267 32.0982Z" fill="white"/>
<path d="M23.3644 32.0982C23.3644 33.5528 22.2008 34.7335 20.7671 34.7335C19.3335 34.7335 18.1698 33.5528 18.1698 32.0982C18.1698 30.6436 19.3335 29.4629 20.7671 29.4629C22.2008 29.4629 23.3644 30.6397 23.3644 32.0982Z" fill="white"/>
<path d="M10.8874 39.7842H17.1202V50.3563C17.1202 50.3563 17.105 51.9266 15.4736 51.9961H12.5873C12.5873 51.9961 10.895 52.1196 10.8456 50.3756L10.8874 39.7842Z" fill="#D0D0D0"/>
</g>
<defs>
<clipPath id="clip0_131_192">
<rect width="28" height="52" fill="white"/>
</clipPath>
</defs>
</svg>
