<svg width="42" height="42" viewBox="0 0 42 42" fill="none" xmlns="http://www.w3.org/2000/svg">
<g clip-path="url(#clip0_155_186)">
<path d="M21.0003 42.0005C32.5984 42.0005 42.0005 32.5984 42.0005 21.0003C42.0005 9.40214 32.5984 0 21.0003 0C9.40214 0 0 9.40214 0 21.0003C0 32.5984 9.40214 42.0005 21.0003 42.0005Z" fill="#D0D0D0"/>
<path d="M21.0004 37.3613C30.1748 37.3613 37.6121 29.924 37.6121 20.7496C37.6121 11.5753 30.1748 4.13794 21.0004 4.13794C11.826 4.13794 4.38867 11.5753 4.38867 20.7496C4.38867 29.924 11.826 37.3613 21.0004 37.3613Z" fill="white"/>
<path d="M21.0004 37.4748C11.7779 37.4748 4.27515 29.9721 4.27515 20.7496C4.27515 11.5272 11.7779 4.02441 21.0004 4.02441C30.2228 4.02441 37.7256 11.5272 37.7256 20.7496C37.7256 29.9721 30.2228 37.4748 21.0004 37.4748ZM21.0004 4.25093C11.9027 4.25093 4.50166 11.652 4.50166 20.7496C4.50166 29.8473 11.9027 37.2483 21.0004 37.2483C30.098 37.2483 37.4991 29.8473 37.4991 20.7496C37.4991 11.652 30.0975 4.25093 21.0004 4.25093Z" fill="#D0D0D0"/>
<path d="M25.6986 2.29804H16.0735V1.08173C16.0735 0.96976 16.1644 0.878845 16.2764 0.878845H25.4577C25.5908 0.878845 25.6981 0.98671 25.6981 1.11923V2.29804H25.6986Z" fill="white"/>
<path d="M25.8387 4.87189H11.9478V33.077H25.8387V4.87189Z" fill="white"/>
<path d="M25.8392 33.1905H11.9477C11.8851 33.1905 11.8347 33.1397 11.8347 33.0775V4.87191C11.8347 4.80925 11.8856 4.75891 11.9477 4.75891H25.8387C25.9013 4.75891 25.9517 4.80976 25.9517 4.87191V33.077C25.9522 33.1397 25.9013 33.1905 25.8392 33.1905ZM12.0612 32.964H25.7257V4.98491H12.0612V32.964Z" fill="#D0D0D0"/>
<path d="M29.3896 32.3025L25.8394 33.1479V4.87191L30.2818 4.09631V31.173C30.2813 31.7107 29.9125 32.1776 29.3896 32.3025Z" fill="white"/>
<path d="M25.8393 33.2609C25.8142 33.2609 25.7895 33.2527 25.769 33.2367C25.7418 33.2152 25.7258 33.1823 25.7258 33.1479V4.87189C25.7258 4.81693 25.7654 4.76968 25.8198 4.76043L30.2623 3.98483C30.2952 3.97918 30.3291 3.98791 30.3548 4.00949C30.3805 4.03106 30.3954 4.0629 30.3954 4.09629V31.1729C30.3954 31.7652 29.9927 32.2747 29.4163 32.4124L25.8661 33.2578C25.8568 33.2599 25.8481 33.2609 25.8393 33.2609ZM25.9523 4.96691V33.0041L29.3634 32.192C29.8375 32.079 30.1683 31.6599 30.1683 31.1729V4.23087L25.9523 4.96691Z" fill="#D0D0D0"/>
<path d="M11.9036 4.95104L15.967 2.10443L25.5038 2.19226L25.8392 4.92484L11.9036 4.95104Z" fill="white"/>
<path d="M11.9037 5.06454C11.8543 5.06454 11.8107 5.03269 11.7958 4.98544C11.7809 4.93818 11.7984 4.88682 11.8389 4.85857L15.9024 2.01145C15.9219 1.9981 15.9465 1.99091 15.9686 1.99091L25.5054 2.07925C25.5624 2.07977 25.6097 2.1224 25.6169 2.1789L25.9518 4.91147C25.9559 4.94383 25.9456 4.97568 25.924 5.00033C25.9025 5.02448 25.8716 5.03834 25.8393 5.03834L11.9037 5.06454ZM16.0025 2.21794L12.2637 4.83751L25.7114 4.81183L25.4042 2.30474L16.0025 2.21794Z" fill="#D0D0D0"/>
<path d="M30.1755 4.09627L25.5039 2.1922L25.8393 4.92478L30.1755 4.09627Z" fill="white"/>
<path d="M25.8393 5.03778C25.8156 5.03778 25.792 5.03007 25.7725 5.0162C25.7473 4.99771 25.7309 4.96946 25.7268 4.93864L25.3919 2.20607C25.3873 2.166 25.4037 2.12645 25.4355 2.10231C25.4674 2.07766 25.51 2.07201 25.547 2.08742L30.2186 3.99149C30.2648 4.01049 30.2936 4.05775 30.2884 4.10757C30.2833 4.1574 30.2463 4.19797 30.197 4.20773L25.8603 5.03624C25.8531 5.03726 25.8459 5.03778 25.8393 5.03778ZM25.64 2.36992L25.9369 4.79072L29.7789 4.05672L25.64 2.36992Z" fill="#D0D0D0"/>
<path d="M26.0503 5.02034C25.9958 5.02034 25.9481 4.98131 25.9388 4.92583C25.9286 4.8642 25.9696 4.80564 26.0313 4.79537L29.9802 4.12558C30.0423 4.11633 30.1004 4.15691 30.1106 4.21855C30.1209 4.28018 30.0798 4.33874 30.0182 4.34901L26.0693 5.0188C26.0631 5.01983 26.0565 5.02034 26.0503 5.02034Z" fill="white"/>
<path d="M25.5573 2.21018H15.9321V1.28768C15.9321 1.14951 16.0441 1.03754 16.1823 1.03754H25.3261C25.454 1.03754 25.5573 1.14078 25.5573 1.26868V2.21018Z" fill="white"/>
<path d="M25.5572 2.32321H15.9321C15.8694 2.32321 15.8191 2.27236 15.8191 2.21021V1.28771C15.8191 1.08739 15.9819 0.924561 16.1822 0.924561H25.3261C25.5161 0.924561 25.6702 1.07917 25.6702 1.2687V2.20969C25.6707 2.27236 25.6199 2.32321 25.5572 2.32321ZM16.0456 2.09669H25.4442V1.2687C25.4442 1.20347 25.3913 1.15056 25.3261 1.15056H16.1822C16.1067 1.15056 16.0456 1.21169 16.0456 1.28719V2.09669Z" fill="#D0D0D0"/>
<path d="M15.5419 23.8474C15.5245 23.8474 15.507 23.8432 15.4906 23.835C15.4351 23.8063 15.413 23.7385 15.4413 23.6825C15.8095 22.9639 16.1578 22.1683 16.4752 21.3182C16.4973 21.2596 16.5625 21.2298 16.6211 21.2519C16.6796 21.274 16.7094 21.3392 16.6873 21.3978C16.3663 22.2561 16.015 23.0594 15.6426 23.7862C15.6226 23.8253 15.583 23.8474 15.5419 23.8474Z" fill="white"/>
<path d="M5.53864 24.9239C5.50628 24.9239 5.47443 24.9101 5.45183 24.8839C4.58737 23.8586 4.11123 23.0507 3.86365 22.5535C3.83591 22.4975 3.85851 22.4297 3.9145 22.4014C3.97049 22.3737 4.03829 22.3963 4.06654 22.4523C4.26429 22.8504 4.73017 23.6768 5.62493 24.738C5.66499 24.7858 5.65934 24.8572 5.61157 24.8977C5.59052 24.9152 5.56432 24.9239 5.53864 24.9239Z" fill="white"/>
<path d="M14.8098 20.2354C14.7888 20.2354 14.7677 20.2298 14.7487 20.2175C14.6963 20.1836 14.6809 20.1137 14.7148 20.0608C15.3384 19.0916 15.833 18.0566 16.1848 16.9846C16.2044 16.925 16.268 16.8927 16.3276 16.9122C16.3872 16.9317 16.4196 16.9959 16.4001 17.055C16.0426 18.1449 15.5397 19.1974 14.9054 20.1831C14.8838 20.217 14.8473 20.2354 14.8098 20.2354Z" fill="white"/>
<path d="M5.92701 21.2879C5.8926 21.2879 5.85819 21.2719 5.8361 21.2422C5.0492 20.1799 4.52272 19.3067 4.22686 18.5722C4.20323 18.5142 4.23148 18.4485 4.28952 18.4248C4.34756 18.4017 4.41331 18.4294 4.43694 18.4875C4.7256 19.2035 5.24284 20.0603 6.01844 21.1071C6.05542 21.1574 6.04515 21.2283 5.99481 21.2653C5.97376 21.2807 5.95013 21.2879 5.92701 21.2879Z" fill="white"/>
<path d="M5.94225 16.8145C5.90168 16.8145 5.86264 16.7924 5.84209 16.7544C5.64177 16.3764 5.42502 16.0148 5.21494 15.665C4.78245 14.9449 4.37462 14.2648 4.18611 13.5616C4.16967 13.501 4.20563 13.4394 4.26624 13.423C4.32633 13.4065 4.38849 13.443 4.40492 13.5031C4.5847 14.1754 4.98534 14.8421 5.40909 15.5484C5.62071 15.9008 5.83901 16.2649 6.0419 16.6481C6.07118 16.7036 6.05012 16.7719 5.99464 16.8012C5.97821 16.8104 5.96023 16.8145 5.94225 16.8145Z" fill="white"/>
<path d="M13.4832 16.5963C13.4663 16.5963 13.4488 16.5922 13.4324 16.5845C13.3764 16.5562 13.3538 16.4884 13.382 16.4324C14.1253 14.9547 14.5069 13.8231 14.6194 12.7625C14.6261 12.7003 14.6816 12.6541 14.7437 12.6618C14.8059 12.6685 14.8511 12.7239 14.8444 12.7861C14.7288 13.875 14.34 15.0312 13.5839 16.5341C13.5649 16.5737 13.5248 16.5963 13.4832 16.5963Z" fill="white"/>
<path d="M12.3999 11.7008C12.385 11.7008 12.3696 11.6977 12.3547 11.6915C12.2972 11.6669 12.271 11.6001 12.2956 11.5426C12.9094 10.1275 13.2346 9.18084 13.3085 7.93629C13.3121 7.87362 13.3645 7.82791 13.4282 7.82996C13.4904 7.83356 13.5381 7.88698 13.5345 7.94964C13.4585 9.2281 13.1277 10.1932 12.5032 11.6325C12.4852 11.6751 12.4436 11.7008 12.3999 11.7008Z" fill="white"/>
<path d="M6.67523 12.1502C6.63824 12.1502 6.60229 12.1322 6.58072 12.0993C5.76505 10.863 5.20672 9.96978 4.88467 8.86083C4.86721 8.80074 4.90162 8.73807 4.96172 8.72061C5.02181 8.70314 5.08448 8.73756 5.10194 8.79765C5.41475 9.87579 5.96537 10.7557 6.76974 11.9745C6.80415 12.0269 6.78977 12.0968 6.73738 12.1312C6.71837 12.144 6.6968 12.1502 6.67523 12.1502Z" fill="white"/>
<path d="M8.80483 8.74216C8.74371 8.74216 8.69337 8.69388 8.69183 8.63224L8.57575 4.60067C8.57369 4.538 8.623 4.48612 8.68566 4.48407C8.74679 4.4851 8.80021 4.53132 8.80226 4.59399L8.91834 8.62557C8.9204 8.68823 8.87109 8.74011 8.80843 8.74216C8.8074 8.74216 8.80637 8.74216 8.80483 8.74216Z" fill="white"/>
<path d="M11.2887 35.394L11.2579 35.3961C11.0047 35.4146 10.7843 35.225 10.7658 34.9718L9.0364 11.597C9.01791 11.3438 9.20745 11.1234 9.46067 11.1049L9.49149 11.1029C9.74471 11.0844 9.96507 11.2739 9.98356 11.5271L11.713 34.902C11.732 35.1552 11.5419 35.3755 11.2887 35.394Z" fill="white"/>
<path d="M11.224 35.5106C10.9272 35.5106 10.6755 35.281 10.6529 34.98L8.92343 11.6052C8.90032 11.2903 9.13711 11.015 9.45197 10.9919L9.48279 10.9898C9.79919 10.9657 10.0725 11.204 10.0961 11.5184L11.8255 34.8932C11.8368 35.0458 11.788 35.1937 11.6884 35.3098C11.5887 35.4259 11.4495 35.4957 11.297 35.507L11.2662 35.5096C11.2523 35.5101 11.2384 35.5106 11.224 35.5106ZM9.52594 11.2148C9.5172 11.2148 9.50899 11.2148 9.50025 11.2158L9.46943 11.2179C9.27939 11.2323 9.13557 11.3982 9.14995 11.5887L10.8789 34.9636C10.8933 35.1541 11.0592 35.2985 11.2497 35.2836L11.28 35.281C11.3725 35.2743 11.4562 35.2317 11.5168 35.1618C11.5774 35.092 11.6067 35.0021 11.6 34.9102L9.87059 11.5353C9.85723 11.3535 9.7052 11.2148 9.52594 11.2148Z" fill="#D0D0D0"/>
<path d="M11.0438 11.0587C11.2436 12.7111 10.4572 14.0245 9.7782 14.1775C9.19111 14.3095 7.8166 13.0794 7.61628 11.4265C7.41647 9.77406 8.80896 5.65722 8.86237 6.09793C8.88549 6.28335 10.844 9.4063 11.0438 11.0587Z" fill="white"/>
<path d="M9.68729 14.3003C9.49056 14.3003 9.24915 14.2053 8.99335 14.0245C8.35284 13.5724 7.64402 12.5981 7.50431 11.4403C7.32094 9.92713 8.48793 6.18781 8.76427 5.9803C8.80331 5.95103 8.85159 5.94435 8.89371 5.96233C8.92607 5.97619 8.96613 6.00855 8.97538 6.08457C8.98873 6.12772 9.13307 6.39019 9.28665 6.66858C9.88709 7.75802 11.0043 9.78588 11.1568 11.0453C11.371 12.8174 10.5132 14.1282 9.80337 14.288C9.7669 14.2962 9.72786 14.3003 9.68729 14.3003ZM8.82796 6.29825C8.50899 7.01016 7.5644 10.055 7.72877 11.4126C7.86077 12.502 8.5244 13.4163 9.12382 13.839C9.37242 14.0142 9.60716 14.0994 9.75355 14.0666C10.3648 13.9289 11.1281 12.6941 10.9318 11.072C10.7849 9.85625 9.639 7.77651 9.08838 6.77696C8.95945 6.54377 8.8783 6.39584 8.82796 6.29825Z" fill="#D0D0D0"/>
<path d="M9.9399 14.2196C10.7776 15.7549 10.4648 18.2974 9.77759 18.7561C9.1833 19.1532 7.1575 17.6744 6.31975 16.1391C5.482 14.6038 5.46864 9.91994 5.69208 10.3293C5.78607 10.5014 9.10215 12.6839 9.9399 14.2196Z" fill="white"/>
<path d="M9.52851 18.9344C9.4489 18.9344 9.36158 18.9226 9.26656 18.8995C8.41083 18.6889 6.92589 17.4864 6.22014 16.1931C5.75427 15.3394 5.5745 13.6526 5.50875 12.7234C5.50207 12.6263 5.34387 10.3483 5.60429 10.2066C5.65976 10.1763 5.74194 10.185 5.79125 10.2754C5.82207 10.3114 6.07787 10.5035 6.34958 10.7069C7.4159 11.5061 9.4001 12.9946 10.0396 14.1662C10.866 15.681 10.6195 18.3309 9.84029 18.8512C9.75606 18.9061 9.65179 18.9344 9.52851 18.9344ZM5.71575 10.5065C5.61816 11.2631 5.70239 14.7703 6.41944 16.0847C7.08717 17.3082 8.52742 18.4844 9.321 18.6796C9.49667 18.7228 9.63278 18.7166 9.71497 18.6616C10.357 18.2327 10.6503 15.757 9.84081 14.2736C9.22495 13.1451 7.19144 11.6201 6.21398 10.8871C5.95511 10.693 5.80461 10.5795 5.71575 10.5065Z" fill="#D0D0D0"/>
<path d="M9.35777 14.3748C8.75526 16.0169 9.43892 18.4854 10.1863 18.8378C10.8324 19.1429 12.6189 17.3821 13.2214 15.74C13.8239 14.0979 13.1479 9.46333 12.9872 9.90095C12.9188 10.0859 9.96027 12.7327 9.35777 14.3748Z" fill="white"/>
<path d="M10.3541 18.9857C10.2745 18.9857 10.2021 18.9703 10.1379 18.94C9.29088 18.5404 8.65705 15.9552 9.25133 14.3357C9.71104 13.0829 11.4549 11.3191 12.3917 10.3714C12.6301 10.13 12.8556 9.90246 12.8843 9.85367C12.9157 9.76635 12.9958 9.74477 13.0554 9.76737C13.3338 9.86959 13.5125 12.1461 13.5202 12.2426C13.5921 13.1718 13.6625 14.8663 13.3271 15.7796C12.8196 17.1628 11.5278 18.5702 10.7121 18.9051C10.5801 18.9585 10.4604 18.9857 10.3541 18.9857ZM12.9896 10.0802C12.9121 10.1654 12.7801 10.3005 12.5525 10.5301C11.6937 11.3992 9.90674 13.2067 9.46398 14.4133C8.88151 15.9999 9.53589 18.4053 10.2344 18.7351C10.3238 18.7772 10.4594 18.7633 10.6269 18.6945C11.3829 18.3842 12.6347 17.0092 13.1149 15.7005C13.6301 14.2956 13.1971 10.8142 12.9896 10.0802Z" fill="#D0D0D0"/>
<path d="M9.93747 19.335C9.15673 21.0855 9.70684 22.8555 10.4979 23.2962C11.182 23.6778 13.2803 22.8647 14.0605 21.1142C14.8412 19.3637 14.4452 14.2458 14.2372 14.7127C14.1493 14.9094 10.7177 17.5845 9.93747 19.335Z" fill="white"/>
<path d="M10.9324 23.5016C10.7372 23.5016 10.5698 23.4662 10.4424 23.3953C9.64575 22.951 9.01243 21.1307 9.83374 19.2888C10.4285 17.9548 12.4646 16.1566 13.5587 15.1904C13.8386 14.9433 14.1031 14.7096 14.1375 14.6588C14.1761 14.5704 14.2588 14.5545 14.3173 14.5807C14.608 14.7101 14.6353 17.2861 14.6358 17.3117C14.6455 18.3318 14.5967 20.1887 14.1637 21.1605C13.6306 22.3557 12.5427 23.081 11.7024 23.3604C11.4204 23.4544 11.1579 23.5016 10.9324 23.5016ZM14.2331 14.8874C14.1447 14.9736 13.9886 15.1128 13.7087 15.3599C12.7045 16.2465 10.615 18.092 10.0402 19.3807C9.27079 21.107 9.82963 22.7938 10.5523 23.1971C10.7686 23.3178 11.1713 23.2982 11.6305 23.1457C12.4251 22.8812 13.4534 22.1965 13.9567 21.068C14.6152 19.5923 14.4057 15.6727 14.2331 14.8874Z" fill="#D0D0D0"/>
<path d="M10.0969 19.2112C11.1267 20.8277 10.8432 22.6593 10.1257 23.212C9.50517 23.6902 7.31038 23.195 6.28053 21.5781C5.25068 19.9617 4.88907 14.8406 5.16387 15.2721C5.27944 15.4534 9.06704 17.5943 10.0969 19.2112Z" fill="white"/>
<path d="M9.43934 23.4991C9.28576 23.4991 9.11934 23.4837 8.94367 23.4529C8.071 23.2998 6.88859 22.743 6.18542 21.6387C5.21669 20.1178 4.82118 15.5793 5.01277 15.212C5.04821 15.1437 5.10523 15.1344 5.12834 15.1334C5.1643 15.1308 5.21669 15.1442 5.25932 15.2115C5.29528 15.2495 5.59165 15.4416 5.90497 15.645C7.12949 16.4396 9.40852 17.9189 10.1929 19.1506C11.2761 20.8513 10.9181 22.7451 10.1954 23.3019C10.0259 23.4318 9.76191 23.4991 9.43934 23.4991ZM5.19306 15.4447C5.1381 16.247 5.50792 20.1543 6.37598 21.5175C7.0396 22.5596 8.1578 23.0851 8.98271 23.23C9.45937 23.3137 9.86053 23.2731 10.0567 23.1221C10.7121 22.6172 11.0167 20.8657 10.0013 19.2718C9.24313 18.0817 6.90503 16.5639 5.78118 15.8345C5.46786 15.6311 5.29271 15.5166 5.19306 15.4447Z" fill="#D0D0D0"/>
<path d="M10.4985 23.3578C11.6896 24.8684 11.5535 26.7555 10.8647 27.4012C10.2694 27.96 7.97854 27.7253 6.78791 26.2147C5.59678 24.7041 4.79498 19.5682 5.11293 19.9708C5.24648 20.1403 9.30733 21.8472 10.4985 23.3578Z" fill="white"/>
<path d="M9.86352 27.7916C9.7798 27.7916 9.69248 27.7885 9.60311 27.7813C8.71707 27.715 7.48844 27.2867 6.69795 26.2846C6.03637 25.4458 5.55304 23.6336 5.32395 22.6279C5.3183 22.6023 4.74354 20.0654 5.00036 19.863C5.05121 19.8229 5.13545 19.8178 5.20068 19.9005C5.24074 19.9339 5.55971 20.0926 5.89769 20.26C7.21929 20.9155 9.67861 22.1359 10.5867 23.2875C11.8395 24.8767 11.634 26.8342 10.9417 27.4839C10.7295 27.6832 10.3443 27.7916 9.86352 27.7916ZM5.15342 20.1347C5.15702 20.9288 5.86122 24.8566 6.87618 26.1443C7.62096 27.0889 8.78179 27.4926 9.62006 27.5553C10.1501 27.5949 10.5862 27.5065 10.7865 27.3185C11.4168 26.7268 11.5832 24.9172 10.409 23.4277C9.53274 22.3162 7.00973 21.0644 5.79702 20.4629C5.45031 20.2909 5.26078 20.1958 5.15342 20.1347Z" fill="#D0D0D0"/>
<path d="M10.6421 22.9059C9.68621 24.5752 10.0987 26.4217 10.8748 26.9595C11.5461 27.4244 13.7769 26.8553 14.7327 25.1859C15.6886 23.5166 15.7256 18.3185 15.4708 18.7633C15.3635 18.9508 11.598 21.2365 10.6421 22.9059Z" fill="white"/>
<path d="M11.5257 27.2292C11.2272 27.2292 10.9802 27.1696 10.8107 27.0525C10.0305 26.5116 9.53838 24.606 10.5441 22.8498C11.2724 21.5776 13.5258 20.0084 14.7364 19.1655C15.0457 18.9498 15.3379 18.7464 15.378 18.6996C15.4145 18.6349 15.4704 18.6236 15.5002 18.6236H15.5007C15.5244 18.6236 15.5824 18.6313 15.6214 18.6986C15.8387 19.0715 15.7201 23.6902 14.8315 25.2424C14.1976 26.3498 13.0455 26.9544 12.1785 27.1506C11.9438 27.203 11.7234 27.2292 11.5257 27.2292ZM15.4545 18.9313C15.3574 19.0073 15.1838 19.1295 14.8659 19.3509C13.7554 20.1245 11.444 21.7337 10.7408 22.9623C9.79829 24.6086 10.2292 26.3739 10.9396 26.8665C11.1656 27.0232 11.6099 27.0468 12.1287 26.9292C12.9485 26.7438 14.0374 26.1736 14.6353 25.1294C15.4499 23.7066 15.568 19.7171 15.4545 18.9313Z" fill="#D0D0D0"/>
<path d="M10.298 27.1326C11.4892 28.6432 11.353 30.5303 10.6643 31.176C10.0689 31.7348 7.7781 31.5001 6.58748 29.9895C5.39634 28.4788 4.59454 23.3429 4.91249 23.7456C5.04552 23.9156 9.10689 25.622 10.298 27.1326Z" fill="white"/>
<path d="M9.66327 31.5664C9.57955 31.5664 9.49223 31.5633 9.40285 31.5561C8.51682 31.4898 7.28819 31.0615 6.49769 30.0593C5.83612 29.2206 5.35279 27.4084 5.1237 26.4032C5.11805 26.3775 4.54277 23.8407 4.80011 23.6378C4.85096 23.5977 4.9352 23.5926 5.00043 23.6753C5.04049 23.7092 5.35998 23.8674 5.69744 24.0348C7.01853 24.6902 9.47836 25.9106 10.386 27.0617C11.6387 28.6509 11.4333 30.6084 10.7409 31.2582C10.5293 31.458 10.144 31.5664 9.66327 31.5664ZM4.95317 23.9095C4.95677 24.7036 5.66046 28.6319 6.67593 29.9191C7.42071 30.8637 8.58154 31.2674 9.4198 31.3301C9.94988 31.3702 10.386 31.2813 10.5863 31.0933C11.2165 30.5016 11.3829 28.692 10.2088 27.2025C9.33248 26.0909 6.80999 24.8397 5.59728 24.2377C5.25057 24.0662 5.06052 23.9706 4.95317 23.9095Z" fill="#D0D0D0"/>
<path d="M11.0156 27.1916C10.0597 28.861 10.4722 30.7075 11.2483 31.2453C11.9196 31.7101 14.1504 31.141 15.1063 29.4717C16.0622 27.8024 16.0991 22.6043 15.8444 23.0491C15.737 23.2366 11.9715 25.5223 11.0156 27.1916Z" fill="white"/>
<path d="M11.8985 31.515C11.6 31.515 11.3525 31.4554 11.1835 31.3383C10.4033 30.7979 9.91119 28.8918 10.9169 27.1357C11.6452 25.8634 13.8986 24.2942 15.1087 23.4513C15.4185 23.2356 15.7107 23.0322 15.7508 22.9849C15.798 22.9012 15.8823 22.894 15.9378 22.9264C16.2218 23.0892 16.0266 25.6826 16.0246 25.7088C15.946 26.7371 15.7343 28.6006 15.2038 29.5277C14.5699 30.6351 13.4173 31.2397 12.5508 31.4359C12.3171 31.4888 12.0967 31.515 11.8985 31.515ZM11.1136 27.2476C10.1711 28.8939 10.602 30.6598 11.3129 31.1518C11.5389 31.3085 11.9832 31.3321 12.5015 31.2145C13.3213 31.0291 14.4102 30.4589 15.0081 29.4147C15.8227 27.9914 15.9408 24.0019 15.8273 23.2166C15.7302 23.2926 15.5561 23.4154 15.2387 23.6362C14.1282 24.4103 11.8168 26.0195 11.1136 27.2476Z" fill="#D0D0D0"/>
<path d="M33.1791 6.63214L9.37695 34.6842L12.768 36.4979L36.7977 8.60966L33.1791 6.63214Z" fill="#D0D0D0"/>
<path d="M38.064 24.8177C38.064 27.8446 35.4625 30.2982 32.2532 30.2982C29.044 30.2982 26.4424 27.8446 26.4424 24.8177C26.4424 21.7908 29.2417 15.4417 32.451 15.4417C35.6607 15.4417 38.064 21.7908 38.064 24.8177Z" fill="white"/>
<path d="M32.2537 30.4112C28.9874 30.4112 26.3298 27.9021 26.3298 24.8177C26.3298 21.6932 29.1636 15.3281 32.4519 15.3281C35.7023 15.3281 38.1775 21.6526 38.1775 24.8177C38.1775 27.9021 35.5199 30.4112 32.2537 30.4112ZM32.4514 15.5546C29.3454 15.5546 26.5558 21.8462 26.5558 24.8177C26.5558 27.7773 29.1117 30.1847 32.2532 30.1847C35.3946 30.1847 37.9505 27.7768 37.9505 24.8177C37.9505 23.2315 37.3115 20.9124 36.3597 19.0459C35.6956 17.7422 34.3041 15.5546 32.4514 15.5546Z" fill="#D0D0D0"/>
<path d="M35.3242 24.9009C35.3242 26.5877 33.9893 27.9555 32.3425 27.9555C30.6958 27.9555 29.3608 26.5877 29.3608 24.9009C29.3608 23.2141 30.6075 21.4503 32.2542 21.4503C33.9004 21.4503 35.3242 23.2141 35.3242 24.9009Z" fill="white"/>
<path d="M32.342 28.0685C30.6352 28.0685 29.2468 26.6473 29.2468 24.9009C29.2468 23.2151 30.4816 21.3367 32.2532 21.3367C33.8896 21.3367 35.4367 23.0687 35.4367 24.9009C35.4372 26.6478 34.0489 28.0685 32.342 28.0685ZM32.2537 21.5632C30.6152 21.5632 29.4739 23.322 29.4739 24.9009C29.4739 26.523 30.7605 27.842 32.3425 27.842C33.9246 27.842 35.2112 26.5225 35.2112 24.9009C35.2107 23.1853 33.7736 21.5632 32.2537 21.5632Z" fill="#D0D0D0"/>
<path d="M29.7844 32.8053C28.4834 35.5199 23.6202 38.0999 21.7398 37.1276C20.0309 36.2441 18.8259 30.8915 20.1269 28.1769C21.428 25.4623 24.4241 24.832 27.0909 26.11C29.7577 27.3884 31.0855 30.0907 29.7844 32.8053Z" fill="white"/>
<path d="M22.7456 37.4486C22.33 37.4486 21.972 37.3757 21.6875 37.2283C19.9396 36.3242 18.6894 30.9146 20.0248 28.1281C20.6617 26.7998 21.7137 25.9035 23.0671 25.5367C24.3399 25.1916 25.7863 25.359 27.1398 26.0077C30.0259 27.391 31.1554 30.2063 29.8862 32.8541C28.974 34.7576 26.4243 36.4742 24.4889 37.123C23.8432 37.3397 23.252 37.4486 22.7456 37.4486ZM24.4165 25.5881C23.9737 25.5881 23.5407 25.6436 23.1267 25.7555C21.8385 26.1043 20.8369 26.9585 20.2293 28.2262C18.9641 30.8658 20.1558 36.1815 21.7918 37.0274C22.3675 37.3253 23.3003 37.2832 24.4175 36.9088C26.3092 36.2749 28.7973 34.6041 29.6828 32.7565C30.894 30.2289 29.8087 27.5379 27.0427 26.2122C26.1803 25.7992 25.2799 25.5881 24.4165 25.5881Z" fill="#D0D0D0"/>
<path d="M26.7433 26.0946C28.0721 25.753 29.2833 25.8172 30.2176 26.8347C30.2392 26.8583 30.2135 26.8943 30.1842 26.8809C28.9649 26.3355 28.236 26.5065 26.9493 26.5085C26.2287 26.5101 26.8281 26.1023 26.7433 26.0946Z" fill="#D0D0D0"/>
<path d="M26.656 26.0186C27.9802 24.9409 29.2627 25.0257 30.2217 25.8229C30.2494 25.846 30.2274 25.8907 30.1919 25.8845C28.8539 25.6534 27.9894 25.7119 26.7973 26.2024C26.7166 26.2353 26.7397 26.0037 26.656 26.0186Z" fill="#D0D0D0"/>
<path d="M27.1059 26.055C26.5404 24.8064 25.7324 23.9034 24.3569 23.8109C24.324 23.8089 24.3117 23.8525 24.341 23.8674C25.5403 24.4812 26.0545 25.2388 26.7253 26.335C26.7715 26.4094 27.0468 25.9939 27.1059 26.055Z" fill="#D0D0D0"/>
<path d="M26.7849 26.1182C25.9661 25.0097 24.9815 24.2937 23.6059 24.5017C23.5787 24.5059 23.5772 24.5449 23.6044 24.5521C24.9116 24.8983 25.4566 25.4982 26.6641 26.4654C26.7314 26.5193 26.714 26.0704 26.7849 26.1182Z" fill="#D0D0D0"/>
<path d="M26.5588 26.0149L27.4495 23.3219C27.7356 23.2027 28.0058 23.268 28.2595 23.5233L26.8059 26L26.5588 26.0149Z" fill="#D0D0D0"/>
<path d="M24.1812 27.5821C24.1036 27.7439 23.9341 27.8235 23.8021 27.7603C23.6706 27.6971 23.6265 27.5148 23.704 27.353C23.7816 27.1912 23.9511 27.1116 24.0831 27.1747C24.2146 27.2384 24.2588 27.4203 24.1812 27.5821Z" fill="#D0D0D0"/>
<path d="M24.305 25.9883C24.2274 26.1501 24.0579 26.2297 23.9259 26.1665C23.7944 26.1033 23.7502 25.921 23.8278 25.7592C23.9054 25.5974 24.0749 25.5178 24.2069 25.5809C24.3389 25.6441 24.3825 25.8265 24.305 25.9883Z" fill="#D0D0D0"/>
<path d="M20.9007 28.8631C20.8231 29.0249 20.6536 29.1045 20.5216 29.0414C20.3901 28.9782 20.346 28.7958 20.4235 28.634C20.5011 28.4723 20.6706 28.3926 20.8026 28.4558C20.9341 28.5195 20.9782 28.7018 20.9007 28.8631Z" fill="#D0D0D0"/>
<path d="M29.668 29.2653C29.5905 29.4271 29.421 29.5067 29.2889 29.4435C29.1575 29.3803 29.1133 29.198 29.1908 29.0362C29.2684 28.8744 29.4379 28.7948 29.5699 28.858C29.7019 28.9212 29.7456 29.1035 29.668 29.2653Z" fill="#D0D0D0"/>
<path d="M28.5379 33.0704C28.4603 33.2321 28.2908 33.3118 28.1588 33.2486C28.0273 33.1854 27.9832 33.0031 28.0607 32.8413C28.1383 32.6795 28.3078 32.5999 28.4398 32.663C28.5713 32.7262 28.6155 32.9086 28.5379 33.0704Z" fill="#D0D0D0"/>
<path d="M26.772 35.5307C26.6945 35.6925 26.525 35.7721 26.393 35.7089C26.2615 35.6457 26.2173 35.4634 26.2948 35.3016C26.3724 35.1398 26.5419 35.0602 26.6739 35.1234C26.8054 35.1865 26.8496 35.3689 26.772 35.5307Z" fill="#D0D0D0"/>
<path d="M23.9317 36.1158C23.8541 36.2776 23.6846 36.3572 23.5526 36.294C23.4211 36.2308 23.377 36.0485 23.4545 35.8867C23.5321 35.7249 23.7016 35.6453 23.8336 35.7084C23.9651 35.7721 24.0093 35.954 23.9317 36.1158Z" fill="#D0D0D0"/>
<path d="M21.2447 35.6016C21.1671 35.7634 20.9976 35.843 20.8656 35.7798C20.7341 35.7167 20.6899 35.5343 20.7675 35.3725C20.8451 35.2107 21.0146 35.1311 21.1466 35.1943C21.2781 35.2575 21.3222 35.4398 21.2447 35.6016Z" fill="#D0D0D0"/>
<path d="M20.3587 31.4966C20.2811 31.6584 20.1116 31.738 19.9796 31.6748C19.8481 31.6116 19.804 31.4293 19.8815 31.2675C19.9591 31.1057 20.1286 31.0261 20.2606 31.0892C20.3921 31.1529 20.4363 31.3353 20.3587 31.4966Z" fill="#D0D0D0"/>
<path d="M23.0691 32.7961C22.9916 32.9579 22.8221 33.0375 22.6901 32.9743C22.5586 32.9111 22.5144 32.7288 22.592 32.567C22.6695 32.4052 22.839 32.3256 22.971 32.3887C23.1025 32.4519 23.1467 32.6343 23.0691 32.7961Z" fill="#D0D0D0"/>
<path d="M27.636 29.9443C27.5585 30.1061 27.389 30.1857 27.257 30.1225C27.1255 30.0594 27.0813 29.877 27.1589 29.7152C27.2364 29.5534 27.4059 29.4738 27.5379 29.537C27.6694 29.6007 27.7136 29.7825 27.636 29.9443Z" fill="#D0D0D0"/>
<path d="M25.1783 30.8997C25.1007 31.0615 24.9312 31.1411 24.7992 31.0779C24.6677 31.0147 24.6235 30.8324 24.7011 30.6706C24.7787 30.5088 24.9482 30.4292 25.0802 30.4924C25.2117 30.5561 25.2553 30.7379 25.1783 30.8997Z" fill="#D0D0D0"/>
<path d="M27.2142 27.2626C27.1366 27.4244 26.9671 27.504 26.8351 27.4408C26.7036 27.3777 26.6594 27.1953 26.737 27.0335C26.8145 26.8717 26.984 26.7921 27.1161 26.8553C27.2481 26.9185 27.2917 27.1008 27.2142 27.2626Z" fill="#D0D0D0"/>
</g>
<defs>
<clipPath id="clip0_155_186">
<rect width="42" height="42" fill="white"/>
</clipPath>
</defs>
</svg>
