<svg width="22" height="23" viewBox="0 0 22 23" fill="none" xmlns="http://www.w3.org/2000/svg">
<path d="M11 22.1668C16.8916 22.1668 21.6666 17.3918 21.6666 11.5002C21.6666 5.6085 16.8916 0.833496 11 0.833496C5.10831 0.833496 0.333313 5.6085 0.333313 11.5002C0.333313 17.3918 5.10831 22.1668 11 22.1668ZM11 6.16683C11.5541 6.16683 12 6.61266 12 7.16683V11.8335C12 12.3877 11.5541 12.8335 11 12.8335C10.4458 12.8335 9.99998 12.3877 9.99998 11.8335V7.16683C9.99998 6.61266 10.4458 6.16683 11 6.16683ZM12.3333 15.5002C12.3333 16.2377 11.7375 16.8335 11 16.8335C10.2625 16.8335 9.66665 16.2377 9.66665 15.5002C9.66665 14.7627 10.2625 14.1668 11 14.1668C11.7375 14.1668 12.3333 14.7627 12.3333 15.5002Z" fill="#6B7280"/>
</svg>
