<svg width="20" height="20" viewBox="0 0 20 20" fill="none" xmlns="http://www.w3.org/2000/svg">
<path fill-rule="evenodd" clip-rule="evenodd" d="M8.16941 12.7105C8.68981 13.0633 9.32404 13.2766 9.99892 13.2766C11.7878 13.2766 13.2433 11.808 13.2433 10.0031C13.2433 9.32215 13.0318 8.68221 12.6822 8.15714L11.7959 9.05141C11.9423 9.33035 12.0236 9.65852 12.0236 10.0031C12.0236 11.1271 11.1129 12.046 9.99892 12.046C9.65741 12.046 9.33217 11.9639 9.05571 11.8162L8.16941 12.7105ZM15.3574 5.45795C16.5364 6.54091 17.5365 8.00126 18.2846 9.75697C18.3496 9.91285 18.3496 10.0933 18.2846 10.241C16.5445 14.3267 13.4465 16.7716 9.99892 16.7716H9.99079C8.42148 16.7716 6.91722 16.2547 5.59184 15.3112L4.01439 16.9029C3.89243 17.0259 3.73794 17.0834 3.58344 17.0834C3.42895 17.0834 3.26633 17.0259 3.15249 16.9029C2.94921 16.6978 2.91669 16.3696 3.07931 16.1317L3.10371 16.0988L15.1297 3.96478C15.1459 3.94837 15.1622 3.93196 15.1703 3.91555C15.1866 3.89914 15.2029 3.88274 15.211 3.86633L15.9753 3.09513C16.2193 2.85721 16.6014 2.85721 16.8372 3.09513C17.0812 3.33305 17.0812 3.72686 16.8372 3.96478L15.3574 5.45795ZM6.74866 10.0063C6.74866 10.2196 6.77305 10.4329 6.80558 10.6298L3.79705 13.6654C2.98393 12.7137 2.27652 11.5651 1.71547 10.2442C1.65042 10.0965 1.65042 9.91605 1.71547 9.76017C3.45554 5.67446 6.55351 3.2378 9.99299 3.2378H10.0011C11.1639 3.2378 12.2941 3.51674 13.3349 4.04182L10.6191 6.78203C10.4239 6.74921 10.2125 6.7246 10.0011 6.7246C8.20413 6.7246 6.74866 8.19316 6.74866 10.0063Z" fill="#828282"/>
</svg>
