<svg width="45" height="53" viewBox="0 0 45 53" fill="none" xmlns="http://www.w3.org/2000/svg">
<g clip-path="url(#clip0_140_865)">
<path d="M8.94993 36.2002C8.94993 36.2002 7.90872 32.0231 5.10368 32.467C2.29865 32.9109 0.955877 32.1653 0.955877 32.1653C0.955877 32.1653 0.0739697 39.3872 8.94993 36.2002Z" fill="#D0D0D0"/>
<path d="M4.75661 30.3784C4.75661 30.3784 5.64989 27.0833 3.53901 26.3094C1.42812 25.5297 0.785181 24.4996 0.785181 24.4996C0.785181 24.4996 -2.61727 29.1492 4.75661 30.3784Z" fill="#D0D0D0"/>
<path d="M36.05 36.2002C36.05 36.2002 37.0913 32.0231 39.8963 32.467C42.7013 32.9109 44.0441 32.1653 44.0441 32.1653C44.0441 32.1653 44.926 39.3872 36.05 36.2002Z" fill="#D0D0D0"/>
<path d="M40.249 30.3784C40.249 30.3784 39.3557 27.0833 41.4666 26.3094C43.5775 25.5297 44.2204 24.4996 44.2204 24.4996C44.2204 24.4996 47.6229 29.1492 40.249 30.3784Z" fill="#D0D0D0"/>
<path d="M32.312 27.4362C32.312 27.4362 30.7587 29.2117 26.4743 30.0199C24.0562 30.4808 23.2141 32.7743 22.941 34.6865V29.502C37.3075 29.4621 32.312 19.5314 32.312 19.5314C32.312 19.5314 30.7587 21.307 26.4743 22.1151C24.0562 22.5761 23.2141 24.8695 22.941 26.7817V22.6273C28.8754 22.32 29.2281 14.1591 27.1514 12.5827C25.0064 10.9551 22.3493 6.00397 22.3493 6.00397C22.3493 6.00397 19.6922 10.9551 17.5471 12.5827C15.4704 14.1591 15.8232 22.32 21.7575 22.6273V26.6963C21.473 24.8012 20.6196 22.5647 18.2356 22.1151C13.9512 21.3013 12.3979 19.5314 12.3979 19.5314C12.3979 19.5314 7.40236 29.4565 21.7575 29.502V34.6068C21.473 32.7117 20.6196 30.4751 18.2356 30.0256C13.9512 29.2117 12.3979 27.4419 12.3979 27.4419C12.3979 27.4419 7.40236 37.3669 21.7575 37.4124V42.5172C21.473 40.6221 20.6196 38.3856 18.2356 37.936C13.9512 37.1222 12.3979 35.3523 12.3979 35.3523C12.3979 35.3523 7.40236 45.2773 21.7575 45.3229V52.4195C21.7575 52.7439 22.0249 53.0114 22.3493 53.0114C22.6736 53.0114 22.941 52.7439 22.941 52.4195V45.3172C37.3075 45.2717 32.312 35.3409 32.312 35.3409C32.312 35.3409 30.7587 37.1165 26.4743 37.9246C24.0562 38.3856 23.2141 40.679 22.941 42.5912V37.4067C37.3075 37.3669 32.312 27.4362 32.312 27.4362Z" fill="#D0D0D0"/>
<path d="M6.25874 12.2299C6.98776 12.2299 7.57875 11.6388 7.57875 10.9096C7.57875 10.1804 6.98776 9.58929 6.25874 9.58929C5.52971 9.58929 4.93872 10.1804 4.93872 10.9096C4.93872 11.6388 5.52971 12.2299 6.25874 12.2299Z" fill="#D0D0D0"/>
<path d="M37.3701 12.2299C38.0991 12.2299 38.6901 11.6388 38.6901 10.9096C38.6901 10.1804 38.0991 9.58929 37.3701 9.58929C36.641 9.58929 36.05 10.1804 36.05 10.9096C36.05 11.6388 36.641 12.2299 37.3701 12.2299Z" fill="#D0D0D0"/>
<path d="M22.5087 2.64061C23.2378 2.64061 23.8288 2.04949 23.8288 1.3203C23.8288 0.591121 23.2378 0 22.5087 0C21.7797 0 21.1887 0.591121 21.1887 1.3203C21.1887 2.04949 21.7797 2.64061 22.5087 2.64061Z" fill="#D0D0D0"/>
</g>
<defs>
<clipPath id="clip0_140_865">
<rect width="45" height="53" fill="white"/>
</clipPath>
</defs>
</svg>
