<svg width="34" height="34" viewBox="0 0 34 34" fill="none" xmlns="http://www.w3.org/2000/svg">
<rect width="34" height="34" rx="17" fill="#E5E5E5"/>
<path d="M22.705 21.4677C23.0563 21.8182 23.0563 22.3867 22.705 22.7372C22.3536 23.0876 21.7835 23.0876 21.4321 22.7372L17.0006 18.2848L12.5376 22.7357C12.1863 23.0861 11.6162 23.0861 11.2648 22.7357C10.9134 22.3852 10.9134 21.8167 11.2648 21.4662L15.7292 17.0168L11.2635 12.5323C10.9122 12.1818 10.9122 11.6133 11.2635 11.2628C11.6149 10.9124 12.185 10.9124 12.5364 11.2628L17.0006 15.7489L21.4636 11.298C21.8149 10.9476 22.385 10.9476 22.7365 11.298C23.0879 11.6484 23.0878 12.217 22.7365 12.5674L18.272 17.0168L22.705 21.4677Z" fill="white"/>
</svg>
