<svg width="6" height="13" viewBox="0 0 6 13" fill="none" xmlns="http://www.w3.org/2000/svg">
<g clip-path="url(#clip0_1501_1213)">
<path d="M5.57149 6.5C5.57218 6.55328 5.56109 6.60611 5.53895 6.65508C5.5168 6.70406 5.48409 6.7481 5.44292 6.78437L1.58578 10.4406C1.41435 10.6031 1.14863 10.6031 0.977204 10.4406C0.805776 10.2781 0.805776 10.0263 0.977204 9.86375L4.53435 6.49187L0.985776 3.12813C0.814347 2.96563 0.814347 2.71375 0.985776 2.55125C1.1572 2.38875 1.42292 2.38875 1.59435 2.55125L5.45149 6.2075C5.5372 6.28875 5.58006 6.39437 5.58006 6.49187L5.57149 6.5Z" fill="#00D291"/>
</g>
<defs>
<clipPath id="clip0_1501_1213">
<rect width="13" height="6" fill="white" transform="matrix(0 -1 1 0 0 13)"/>
</clipPath>
</defs>
</svg>
