<svg width="10" height="10" viewBox="0 0 10 10" fill="none" xmlns="http://www.w3.org/2000/svg">
<path d="M2.50002 9.16675C2.27085 9.16675 2.0746 9.08508 1.91127 8.92175C1.74794 8.75842 1.66641 8.5623 1.66669 8.33342V4.16675C1.66669 3.93758 1.74835 3.74133 1.91169 3.578C2.07502 3.41466 2.27113 3.33314 2.50002 3.33342H2.91669V2.50008C2.91669 1.92369 3.11988 1.4323 3.52627 1.02591C3.93266 0.619526 4.42391 0.416471 5.00002 0.416748C5.57641 0.416748 6.0678 0.619943 6.47419 1.02633C6.88058 1.43272 7.08363 1.92397 7.08335 2.50008V3.33342H7.50002C7.72919 3.33342 7.92544 3.41508 8.08877 3.57842C8.2521 3.74175 8.33363 3.93786 8.33335 4.16675V8.33342C8.33335 8.56258 8.25169 8.75883 8.08835 8.92216C7.92502 9.0855 7.72891 9.16703 7.50002 9.16675H2.50002ZM5.00002 7.08342C5.22919 7.08342 5.42544 7.00175 5.58877 6.83842C5.7521 6.67508 5.83363 6.47897 5.83335 6.25008C5.83335 6.02092 5.75169 5.82467 5.58835 5.66133C5.42502 5.498 5.22891 5.41647 5.00002 5.41675C4.77085 5.41675 4.5746 5.49842 4.41127 5.66175C4.24794 5.82508 4.16641 6.02119 4.16669 6.25008C4.16669 6.47925 4.24835 6.6755 4.41169 6.83883C4.57502 7.00217 4.77113 7.08369 5.00002 7.08342ZM3.75002 3.33342H6.25002V2.50008C6.25002 2.15286 6.12849 1.85772 5.88544 1.61467C5.64238 1.37161 5.34724 1.25008 5.00002 1.25008C4.6528 1.25008 4.35766 1.37161 4.1146 1.61467C3.87155 1.85772 3.75002 2.15286 3.75002 2.50008V3.33342Z" fill="#01B698"/>
</svg>
