<svg width="36" height="36" viewBox="0 0 36 36" fill="none" xmlns="http://www.w3.org/2000/svg">
<path d="M14.7899 26.9999C14.5842 26.9992 14.3809 26.9562 14.1925 26.8737C14.0041 26.7911 13.8347 26.6707 13.6949 26.5199L6.40488 18.7649C6.13237 18.4745 5.98639 18.0877 5.99905 17.6896C6.01171 17.2916 6.18197 16.9149 6.47238 16.6424C6.7628 16.3699 7.14957 16.2239 7.54761 16.2365C7.94566 16.2492 8.32237 16.4195 8.59488 16.7099L14.7749 23.2949L27.3899 9.49487C27.5179 9.33545 27.6772 9.20389 27.8579 9.10826C28.0386 9.01263 28.237 8.95496 28.4408 8.93878C28.6446 8.92261 28.8496 8.94827 29.0431 9.01419C29.2366 9.08012 29.4146 9.18491 29.5662 9.32213C29.7178 9.45936 29.8397 9.62612 29.9244 9.81218C30.0092 9.99824 30.0551 10.1997 30.0591 10.4041C30.0632 10.6085 30.0255 10.8116 29.9482 11.0009C29.871 11.1902 29.7558 11.3617 29.6099 11.5049L15.8999 26.5049C15.7613 26.6584 15.5926 26.7816 15.4041 26.8668C15.2157 26.952 15.0117 26.9973 14.8049 26.9999H14.7899Z" fill="#00D291"/>
</svg>
