<svg width="15" height="15" viewBox="0 0 15 15" fill="none" xmlns="http://www.w3.org/2000/svg">
<path fill-rule="evenodd" clip-rule="evenodd" d="M0.5 7.5C0.5 5.64348 1.2375 3.86301 2.55025 2.55025C3.86301 1.2375 5.64348 0.5 7.5 0.5C9.35652 0.5 11.137 1.2375 12.4497 2.55025C13.7625 3.86301 14.5 5.64348 14.5 7.5C14.5 9.35652 13.7625 11.137 12.4497 12.4497C11.137 13.7625 9.35652 14.5 7.5 14.5C5.64348 14.5 3.86301 13.7625 2.55025 12.4497C1.2375 11.137 0.5 9.35652 0.5 7.5ZM7.10053 10.496L11.1307 5.45787L10.4027 4.87547L6.96613 9.16973L4.532 7.1416L3.93467 7.8584L7.10053 10.4969V10.496Z" fill="#96EDD2"/>
</svg>
