<svg width="51" height="47" viewBox="0 0 51 47" fill="none" xmlns="http://www.w3.org/2000/svg">
<g clip-path="url(#clip0_131_186)">
<path d="M24.9294 47C24.9294 47 2.30562 30.6128 0.810477 16.4459C0.810477 16.4459 -0.566625 5.42986 9.99772 0.64503C9.99772 0.64503 16.9108 -2.86932 24.7799 6.54006C24.7799 6.54006 31.7284 -1.95066 39.5936 0.465209C39.5936 0.465209 50.4885 3.85055 48.6864 17.3333C48.6904 17.3333 47.8287 29.6589 24.9294 47Z" fill="#D0D0D0"/>
<path d="M27.1368 33.2202C27.0109 33.2202 26.8771 33.2046 26.7433 33.1694C25.8738 32.9544 25.4607 32.11 25.3623 31.379L23.3124 19.4873L19.2912 25.6364L0 25.609L0.00393458 23.1932L17.9732 23.2166L22.1674 16.8017C22.5215 16.2427 23.1904 15.7071 24.0167 15.8752C25.2285 16.1215 25.4528 17.5366 25.5393 18.0839L27.5735 29.8857L32.1652 23.3495H51V25.7654H33.4321L29.1946 31.8012C28.927 32.1725 28.1873 33.2202 27.1368 33.2202Z" fill="white"/>
</g>
<defs>
<clipPath id="clip0_131_186">
<rect width="51" height="47" fill="white"/>
</clipPath>
</defs>
</svg>
