<svg width="23" height="23" viewBox="0 0 23 23" fill="none" xmlns="http://www.w3.org/2000/svg">
<path d="M22.0266 19.6974V11.9456C22.0266 11.3209 21.8978 10.7028 21.6481 10.1288C21.3984 9.55483 21.033 9.03697 20.5741 8.60674L13.1343 1.63323C12.7006 1.22668 12.1253 1 11.5272 1C10.9291 1 10.3538 1.22668 9.92011 1.63323L2.47911 8.60674C2.02021 9.03697 1.65479 9.55483 1.40508 10.1288C1.15538 10.7028 1.02661 11.3209 1.02661 11.9456V19.6974C1.02661 20.3081 1.27244 20.8937 1.71003 21.3256C2.14761 21.7574 2.74111 22 3.35994 22H19.6933C20.3121 22 20.9056 21.7574 21.3432 21.3256C21.7808 20.8937 22.0266 20.3081 22.0266 19.6974Z" stroke="#B0B0B0" stroke-width="1.5" stroke-linecap="round" stroke-linejoin="round"/>
</svg>
