<svg width="35" height="46" viewBox="0 0 35 46" fill="none" xmlns="http://www.w3.org/2000/svg">
<g clip-path="url(#clip0_131_358)">
<path d="M34.8962 4.15023C34.8962 4.15023 34.9092 3.4524 34.2251 3.3489L18.1516 0.0433896C18.1516 0.0433896 17.7593 -0.0634552 17.3346 0.0600841L0.888249 3.55591C0.888249 3.55591 0.518667 3.64272 0.551087 4.207C0.551087 4.207 0.47328 23.5759 2.2142 30.2771C2.2142 30.2771 2.71995 32.4107 4.14964 34.6611C4.14964 34.6611 9.39834 42.5142 17.4902 44.9783C17.4902 44.9783 17.8079 45.1052 18.1094 44.9783C18.1094 44.9783 25.8382 42.2971 30.9119 35.0484C30.9119 35.0484 32.588 32.7713 33.2655 29.7295C33.2623 29.7295 35.4992 18.9616 34.8962 4.15023Z" fill="#D0D0D0"/>
<mask id="mask0_131_358" style="mask-type:luminance" maskUnits="userSpaceOnUse" x="0" y="0" width="35" height="46">
<path d="M34.8962 4.15023C34.8962 4.15023 34.9092 3.4524 34.2251 3.3489L18.1516 0.0433896C18.1516 0.0433896 17.7593 -0.0634552 17.3346 0.0600841L0.888249 3.55591C0.888249 3.55591 0.518667 3.64272 0.551087 4.207C0.551087 4.207 0.47328 23.5759 2.2142 30.2771C2.2142 30.2771 2.71995 32.4107 4.14964 34.6611C4.14964 34.6611 9.39834 42.5142 17.4902 44.9783C17.4902 44.9783 17.8079 45.1052 18.1094 44.9783C18.1094 44.9783 25.8382 42.2971 30.9119 35.0484C30.9119 35.0484 32.588 32.7713 33.2655 29.7295C33.2623 29.7295 35.4992 18.9616 34.8962 4.15023Z" fill="white"/>
</mask>
<g mask="url(#mask0_131_358)">
<path d="M17.4189 45.9833C14.8837 45.6194 10.1602 42.1469 10.1602 42.1469C4.79155 38.3105 2.61944 33.5426 2.61944 33.5426C1.06655 30.6744 0.551086 24.7245 0.551086 24.7245C-0.220497 18.2704 0.0453427 2.60433 0.0453427 2.60433C-0.0259801 1.31218 0.661312 0.96827 0.661312 0.96827C1.02117 0.741225 0.962812 1.15859 0.962812 1.15859C0.810441 1.92319 0.790989 2.9282 0.790989 2.9282C0.790989 2.9282 1.02441 19.9432 1.72791 25.4992C1.72791 25.4992 2.22717 31.5359 4.77534 34.9082C4.77534 34.9082 9.78738 42.4808 17.5162 44.8481C17.5162 44.8481 17.7788 44.9616 18.0965 44.8514C18.0965 44.8514 20.9623 44.0267 23.0955 42.9015C23.0955 42.9015 22.8621 43.6628 22.217 44.0734C22.217 44.0734 19.1307 45.3489 18.3137 45.7362C18.3137 45.7362 18.0576 45.8965 17.9538 45.9332C17.9441 45.9366 17.8112 46.0401 17.4189 45.9833Z" fill="#D0D0D0"/>
</g>
<path d="M32.7403 5.22207L18.0608 2.25045C18.0608 2.25045 17.7463 2.177 17.4124 2.26047L3.13164 5.22207C3.13164 5.22207 3.01169 22.1503 4.26308 28.2004C4.26308 28.2004 4.4965 29.4057 5.03466 30.7813C5.39128 31.6929 5.84191 32.7212 6.55189 33.763C6.55189 33.763 11.042 40.3072 17.3022 42.5309C17.3022 42.5309 17.7755 42.7713 18.3266 42.4742C18.3266 42.4742 24.6776 39.9199 28.4707 34.5075C28.4707 34.5075 29.3298 33.3289 30.1792 31.596C30.6428 30.6545 31.0253 29.6461 31.2555 28.3773C31.2555 28.3807 32.7468 20.2304 32.7403 5.22207Z" fill="white"/>
<path d="M17.7529 42.7245C17.4708 42.7245 17.273 42.6277 17.2601 42.621C11.055 40.4173 6.51953 33.8898 6.47414 33.823C5.73173 32.7312 5.26814 31.6427 4.94718 30.8213C4.41226 29.4524 4.17236 28.2337 4.16912 28.2237C2.9307 22.2337 3.03444 5.39564 3.03768 5.22535V5.14856L17.3962 2.17026C17.7431 2.08345 18.0706 2.15691 18.0835 2.16024L32.8344 5.14856V5.22535C32.8408 20.0701 31.3625 28.3205 31.3463 28.4006C31.1421 29.5292 30.8082 30.5309 30.2603 31.6461C29.4174 33.3656 28.5518 34.5609 28.5453 34.5709C24.7814 39.9432 18.4239 42.5442 18.3591 42.5709C18.1386 42.6845 17.9279 42.7245 17.7529 42.7245ZM3.22247 5.29881C3.21599 6.5509 3.16087 22.4173 4.35067 28.1803C4.35391 28.1936 4.59057 29.3956 5.11901 30.7479C5.43672 31.5626 5.89383 32.6344 6.62651 33.7128C6.6719 33.7763 11.1717 40.2571 17.3314 42.4474C17.3606 42.4607 17.782 42.6678 18.2845 42.3973C18.3559 42.3673 24.6647 39.7863 28.3961 34.4574C28.4059 34.444 29.2617 33.2621 30.0949 31.5592C30.6331 30.4607 30.9638 29.4758 31.1648 28.3673C31.181 28.2871 32.6496 20.0801 32.6496 5.30549L18.0446 2.34054C18.0381 2.34054 17.7431 2.27377 17.4351 2.35056L3.22247 5.29881Z" fill="#D0D0D0"/>
<path d="M30.7206 6.8548L18.0219 4.23376C17.8631 4.1937 17.6524 4.19704 17.4773 4.24044L5.15467 6.79804C5.15467 6.79804 5.05093 22.6511 6.1305 27.8765C6.1305 27.8765 6.33474 28.9182 6.7951 30.1069C7.09984 30.8915 7.49211 31.7797 8.10484 32.6845C8.10484 32.6845 11.9822 38.3339 17.3865 40.2538C17.3865 40.2538 17.795 40.4608 18.2716 40.2037C18.2716 40.2037 23.7537 38 27.0313 33.3256C27.0313 33.3256 27.7737 32.3072 28.5064 30.8114C28.9051 29.9967 29.2391 29.1286 29.4368 28.0334C29.4368 28.0334 30.7239 19.8164 30.7206 6.8548Z" fill="#D0D0D0"/>
<path d="M11.1003 18.2103H16.4982V12.6544H19.6299V18.2103H25.0245V21.4357H19.6299V26.995H16.4982V21.4357H11.1003V18.2103Z" fill="white"/>
</g>
<defs>
<clipPath id="clip0_131_358">
<rect width="35" height="46" fill="white"/>
</clipPath>
</defs>
</svg>
