<svg width="24" height="24" viewBox="0 0 24 24" fill="none" xmlns="http://www.w3.org/2000/svg">
<path d="M11.9987 3C12.3124 3 12.5989 3.1846 12.7353 3.4754L15.0745 8.44319L20.3018 9.24138C20.6087 9.28709 20.8611 9.50861 20.96 9.81101C21.0554 10.1169 20.977 10.451 20.7588 10.6725L16.967 14.5474L17.8638 20.0152C17.9149 20.3317 17.7887 20.6552 17.533 20.8416C17.2807 21.0279 16.9158 21.0525 16.6703 20.9013L11.9987 18.3274L7.2999 20.9013C7.05438 21.0525 6.72021 21.0279 6.46447 20.8416C6.21214 20.6552 6.08597 20.3317 6.10643 20.0152L7.03051 14.5474L3.24246 10.6725C3.02218 10.451 2.94409 10.1169 3.04093 9.81101C3.13743 9.50861 3.39215 9.28709 3.6987 9.24138L8.92301 8.44319L11.2622 3.4754C11.402 3.18457 11.685 3 11.9987 3ZM11.9987 5.77609L10.2085 9.58246C10.0892 9.83211 9.85732 10.0079 9.59135 10.0501L5.55676 10.662L8.48654 13.6543C8.67408 13.8477 8.75933 14.1255 8.715 14.3962L8.0262 18.6017L11.6134 16.6255C11.8555 16.4919 12.1454 16.4919 12.3841 16.6255L15.9713 18.6017L15.2825 14.3962C15.2381 14.1255 15.3268 13.8477 15.5143 13.6543L18.4434 10.662L14.4095 10.0501C14.1402 10.0079 13.9083 9.83211 13.7923 9.58246L11.9987 5.77609Z" fill="#FBBF24"/>
</svg>
