<svg width="20" height="20" viewBox="0 0 20 20" fill="none" xmlns="http://www.w3.org/2000/svg">
<path fill-rule="evenodd" clip-rule="evenodd" d="M10.7422 4.35664C10.506 4.60938 10.5068 5.01828 10.744 5.26994L14.5934 9.35411H3.93937L3.85713 9.36C3.56131 9.40276 3.33331 9.67296 3.33331 9.99991C3.33331 10.3566 3.60465 10.6457 3.93937 10.6457H14.5921L10.744 14.7298L10.6851 14.8021C10.5086 15.0545 10.5275 15.4133 10.7422 15.6431C10.9784 15.8958 11.3621 15.8966 11.5993 15.645L16.4739 10.4721C16.5873 10.3593 16.66 10.2006 16.6661 10.0238C16.6722 9.85005 16.6129 9.67418 16.4881 9.54177L11.5992 4.35467L11.5311 4.2923C11.2935 4.10526 10.9569 4.12687 10.7422 4.35664Z" fill="#FFA634"/>
</svg>
