<svg width="50" height="48" viewBox="0 0 50 48" fill="none" xmlns="http://www.w3.org/2000/svg">
<g clip-path="url(#clip0_159_304)">
<path fill-rule="evenodd" clip-rule="evenodd" d="M18.6869 31.4961C24.6037 27.0427 29.9194 24.7267 34.3297 22.7992C38.2482 21.0932 41.4603 19.6904 43.7903 17.3743C46.5028 14.6735 48.8055 11.5492 49.6524 8.59582C50.3628 6.12043 50.0583 3.76163 48.142 1.85359C46.2257 -0.0544369 43.8527 -0.357546 41.3705 0.349708C38.4004 1.19297 35.2664 3.48572 32.55 6.1865C30.2238 8.50256 28.8149 11.7007 27.0976 15.6023C25.1657 19.9935 22.8395 25.2824 18.3668 31.1774L17.3794 32.4754L18.6869 31.4961ZM34.1462 22.3873C30.017 24.1865 25.0993 26.3316 19.6236 30.2487C23.5538 24.7927 25.7082 19.8963 27.5152 15.7849C29.2091 11.9261 30.6024 8.76292 32.87 6.50515C35.5357 3.851 38.6033 1.601 41.4876 0.781055C43.8215 0.120434 46.0345 0.39634 47.8142 2.16836C49.5939 3.94038 49.8749 6.14375 49.2075 8.4637C48.3879 11.3355 46.1281 14.3899 43.4585 17.0479C41.1949 19.3096 38.0179 20.6969 34.1462 22.3873Z" fill="#D0D0D0"/>
<path fill-rule="evenodd" clip-rule="evenodd" d="M20.9155 29.2771C26.1298 24.9209 30.5127 22.2745 34.1502 20.0789C37.3779 18.1321 40.0241 16.5349 42.159 14.4093C44.6529 11.9261 46.9088 9.202 48.0485 6.84708C49.0203 4.8419 49.1881 3.0932 48.0406 1.95071C46.8932 0.804335 45.133 0.975319 43.1191 1.93905C40.7539 3.07377 38.018 5.31988 35.5241 7.80304C33.3892 9.92869 31.7851 12.5634 29.8297 15.7771C27.6246 19.3989 24.9706 23.7629 20.5916 28.9546L18.9133 30.9442L20.9155 29.2771ZM33.9161 19.6942C30.6767 21.645 26.8518 23.9533 22.3869 27.4973C25.9424 23.0479 28.2608 19.2396 30.2239 16.0142C32.1637 12.8277 33.7521 10.2163 35.8519 8.12946C38.3146 5.67739 41.0076 3.46237 43.322 2.35097C45.1564 1.46884 46.7371 1.29009 47.7245 2.27325C48.7119 3.25641 48.5324 4.82636 47.6465 6.65278C46.5302 8.9533 44.3056 11.6385 41.8428 14.0906C39.7392 16.1813 37.1125 17.7629 33.9161 19.6942Z" fill="#D0D0D0"/>
<path fill-rule="evenodd" clip-rule="evenodd" d="M20.9233 29.2694C25.9112 24.6878 29.8336 21.5712 33.0925 18.987C35.969 16.702 38.3302 14.8251 40.4534 12.715C42.9356 10.2435 45.3125 7.65538 46.7761 5.64242C48.0445 3.90149 48.6261 2.54139 48.0367 1.9546C47.4474 1.36781 46.0853 1.95071 44.3329 3.20978C42.3112 4.66703 39.7118 7.03361 37.2296 9.50512C35.1064 11.6191 33.2252 13.9701 30.9303 16.8341C28.3349 20.079 25.2048 23.9844 20.6033 28.9468L20.9233 29.2694ZM32.8076 18.6334C30.2903 20.6308 27.3748 22.9468 23.87 26.0168C26.9533 22.5271 29.2794 19.6243 31.2855 17.1178C33.5687 14.2655 35.4421 11.9261 37.5535 9.82766C40.0241 7.36393 42.6039 5.01289 44.6022 3.57507C46.1594 2.45201 47.3225 1.88465 47.7167 2.27325C48.107 2.66574 47.5372 3.82377 46.4092 5.37429C44.9651 7.36393 42.6039 9.92869 40.1295 12.3924C38.0219 14.4948 35.6724 16.36 32.8076 18.6334Z" fill="#D0D0D0"/>
<path fill-rule="evenodd" clip-rule="evenodd" d="M5.6474 47.557L22.0122 32.1645C24.3813 29.9378 19.6471 25.8148 17.6995 27.8705L2.23626 44.1606C0.675106 45.8083 3.87938 49.2163 5.6474 47.557ZM5.10099 45.7733C4.82388 45.7733 4.55068 45.6684 4.33993 45.4586C4.12917 45.2487 4.02379 44.9728 4.02379 44.7008C4.02379 44.4249 4.12917 44.1529 4.33993 43.943C4.55068 43.7332 4.82388 43.6321 5.10099 43.6282C5.37419 43.6282 5.6513 43.7332 5.85815 43.943C6.06891 44.1529 6.17429 44.4249 6.17429 44.6969C6.17429 44.9728 6.06891 45.2448 5.85815 45.4547C5.6513 45.6684 5.37419 45.7733 5.10099 45.7733Z" fill="#D0D0D0"/>
<path d="M17.1364 15.5851L15.5024 17.2115L36.3328 37.9576L37.9668 36.3311L17.1364 15.5851Z" fill="#D0D0D0"/>
<path fill-rule="evenodd" clip-rule="evenodd" d="M1.30747 5.92611L5.7997 1.45331C7.54039 -0.279848 10.3895 -0.279848 12.1302 1.45331L21.6025 10.8847C22.1763 11.4598 22.1763 12.3963 21.6025 12.9676L12.9498 21.5867C12.3331 22.2007 11.3223 22.2007 10.7056 21.5867L1.30747 12.2331C-0.437125 10.4999 -0.437125 7.65927 1.30747 5.92611ZM7.07595 3.64114C6.83787 3.87818 6.83787 4.26678 7.07595 4.50383L16.88 14.2655C17.1181 14.5025 17.5084 14.5025 17.7465 14.2655C17.9845 14.0284 17.9845 13.6398 17.7465 13.4028L7.94239 3.64114C7.70432 3.40409 7.31403 3.40409 7.07595 3.64114ZM3.60237 7.09969C3.3643 7.33673 3.3643 7.72533 3.60237 7.96238L13.4064 17.724C13.6445 17.9611 14.0348 17.9611 14.2768 17.724C14.5149 17.487 14.5149 17.0984 14.2768 16.8613L4.46881 7.09969C4.23074 6.86264 3.84045 6.86264 3.60237 7.09969ZM5.33916 5.37041C5.10108 5.60746 5.10108 5.99606 5.33916 6.23311L15.1432 15.9948C15.3813 16.2318 15.7716 16.2318 16.0097 15.9948C16.2478 15.7577 16.2478 15.3691 16.0097 15.1321L6.20951 5.37041C5.96753 5.13336 5.57724 5.13336 5.33916 5.37041ZM8.81274 1.91186C8.57466 2.14891 8.57466 2.53751 8.81274 2.77844L18.6168 12.5362C18.8549 12.7733 19.2452 12.7733 19.4833 12.5362C19.7213 12.2992 19.7213 11.9106 19.4833 11.6696L9.67918 1.91186C9.4411 1.67482 9.05082 1.67482 8.81274 1.91186ZM1.86558 8.82896C1.62751 9.06601 1.62751 9.45461 1.86558 9.69166L11.6697 19.4533C11.9077 19.6904 12.298 19.6904 12.5361 19.4533C12.7742 19.2163 12.7742 18.8277 12.5361 18.5906L2.73203 8.82896C2.49395 8.59191 2.10366 8.59191 1.86558 8.82896Z" fill="#D0D0D0"/>
<path fill-rule="evenodd" clip-rule="evenodd" d="M27.5309 27.5673C28.4013 26.7007 29.8258 26.7007 30.6962 27.5673L47.2757 44.0751C48.146 44.9416 48.146 46.36 47.2757 47.2266C46.4053 48.0932 44.9808 48.0932 44.1104 47.2266L27.5309 30.7188C26.6606 29.8523 26.6606 28.4339 27.5309 27.5673ZM44.2197 44.18C43.8528 44.5453 43.8528 45.1359 44.2197 45.5012C44.5866 45.8665 45.1798 45.8665 45.5467 45.5012C45.9136 45.1359 45.9136 44.5453 45.5467 44.18C45.1798 43.8147 44.5866 43.8147 44.2197 44.18Z" fill="#D0D0D0"/>
</g>
<defs>
<clipPath id="clip0_159_304">
<rect width="50" height="48" fill="white"/>
</clipPath>
</defs>
</svg>
