<svg width="19" height="14" viewBox="0 0 19 14" fill="none" xmlns="http://www.w3.org/2000/svg">
<path d="M5.7 6.65C7.53766 6.65 9.025 5.16266 9.025 3.325C9.025 1.48734 7.53766 0 5.7 0C3.86234 0 2.375 1.48734 2.375 3.325C2.375 5.16266 3.86234 6.65 5.7 6.65ZM7.98 7.6H7.73359C7.11609 7.89687 6.43031 8.075 5.7 8.075C4.96969 8.075 4.28687 7.89687 3.66641 7.6H3.42C1.53187 7.6 0 9.13188 0 11.02V11.875C0 12.6617 0.638281 13.3 1.425 13.3H9.975C10.7617 13.3 11.4 12.6617 11.4 11.875V11.02C11.4 9.13188 9.86812 7.6 7.98 7.6ZM14.25 6.65C15.8234 6.65 17.1 5.37344 17.1 3.8C17.1 2.22656 15.8234 0.95 14.25 0.95C12.6766 0.95 11.4 2.22656 11.4 3.8C11.4 5.37344 12.6766 6.65 14.25 6.65ZM15.675 7.6H15.5622C15.1495 7.7425 14.7131 7.8375 14.25 7.8375C13.7869 7.8375 13.3505 7.7425 12.9378 7.6H12.825C12.2194 7.6 11.6612 7.77516 11.1714 8.05719C11.8958 8.83797 12.35 9.87406 12.35 11.02V12.16C12.35 12.2253 12.3352 12.2877 12.3322 12.35H17.575C18.3617 12.35 19 11.7117 19 10.925C19 9.08734 17.5127 7.6 15.675 7.6Z" fill="white"/>
</svg>
