<svg width="35" height="48" viewBox="0 0 35 48" fill="none" xmlns="http://www.w3.org/2000/svg">
<g clip-path="url(#clip0_143_882)">
<path d="M17.7372 47.4309C17.6278 47.4309 17.548 47.4296 17.4996 47.4283C17.4516 47.4296 17.3715 47.4309 17.2621 47.4309C16.1357 47.4309 12.1652 47.2823 8.37388 45.3706C6.14269 44.2456 4.3545 42.7036 3.05891 40.788C1.48633 38.4627 0.650587 35.5955 0.574582 32.2661C0.448648 26.7425 2.33606 21.738 4.00087 17.3225C4.21743 16.7479 4.42224 16.2055 4.62099 15.6653C6.29534 11.1183 8.15031 7.53089 10.1344 5.0029C12.4438 2.061 14.9218 0.569214 17.4996 0.569214C18.8521 0.569214 20.2046 0.98185 21.519 1.79567C22.7093 2.53281 23.8796 3.60878 24.9981 4.99431C27.0919 7.58879 28.9904 11.2083 30.6412 15.7531C30.7414 16.0289 30.8432 16.3076 30.9459 16.5892C32.6384 21.2239 34.5566 26.4775 34.4246 32.2658C34.349 35.5955 33.5129 38.4627 31.9403 40.7883C30.6447 42.7039 28.8565 44.2456 26.625 45.3709C22.834 47.2823 18.8642 47.4309 17.7372 47.4309Z" fill="#DDDDDD"/>
<path d="M34.4251 32.2665C34.3491 35.5959 33.5131 38.463 31.9408 40.7886C30.6449 42.7045 28.8564 44.2463 26.6252 45.3709C22.8341 47.2823 18.8647 47.4312 17.7377 47.4312C17.6283 47.4312 17.5481 47.4299 17.5001 47.4287C17.4521 47.4299 17.3719 47.4312 17.2625 47.4312C16.1361 47.4312 12.166 47.2823 8.37468 45.3709C6.14317 44.2456 4.3553 42.7039 3.05939 40.788C1.48713 38.463 0.651069 35.5952 0.575063 32.2665C0.566795 31.9044 0.567113 31.5439 0.576017 31.1863C0.652023 34.4753 1.45374 37.3094 2.9589 39.6083C4.20201 41.5073 5.91802 43.0357 8.05921 44.1514C11.6976 46.0466 15.5074 46.1936 16.5887 46.1936C16.6936 46.1936 16.7703 46.1924 16.8167 46.1911C16.8625 46.1924 16.9398 46.1936 17.0444 46.1936H17.0447C18.1256 46.1936 21.9351 46.0466 25.5732 44.1518C27.7144 43.0363 29.4304 41.508 30.6735 39.6086C32.1828 37.3037 32.9848 34.461 33.0577 31.1599C33.1842 25.4219 31.3436 20.2141 29.7195 15.6194C29.6206 15.3401 29.5229 15.064 29.4266 14.7904C27.8429 10.2854 26.0206 6.69672 24.0114 4.12514C23.6126 3.61515 23.2075 3.14716 22.7966 2.72339C23.5462 3.34855 24.2827 4.10828 24.9979 4.99432C27.092 7.5888 28.9906 11.2083 30.6414 15.7531C30.7412 16.0289 30.843 16.3076 30.946 16.5892C32.6385 21.2242 34.5568 26.4775 34.4251 32.2665Z" fill="#DDDDDD"/>
<path d="M17.7374 48C17.6318 48 17.5517 47.9987 17.4999 47.9978C17.4477 47.9987 17.3676 48 17.2623 48C16.1041 48 12.0214 47.847 8.11813 45.8786C5.79917 44.7091 3.93847 43.1037 2.58786 41.1067C0.952954 38.6898 0.0844571 35.7196 0.00590758 32.2791C-0.12257 26.6451 1.78551 21.5856 3.46876 17.1217L3.47194 17.1134C3.68692 16.543 3.89013 16.004 4.0873 15.4686C5.78232 10.866 7.66623 7.22637 9.68721 4.6513C12.1095 1.56496 14.7379 0 17.4995 0C18.9596 0 20.4126 0.441269 21.8182 1.31172C23.0629 2.08259 24.2818 3.20119 25.4404 4.63666C27.5739 7.28014 29.5036 10.955 31.1754 15.5586C31.2667 15.8096 31.3592 16.0635 31.4527 16.3196L31.4798 16.3941C33.1894 21.0762 35.1274 26.3832 34.9929 32.2791C34.9146 35.7196 34.0458 38.6901 32.4109 41.1074C31.0603 43.1044 29.1996 44.7097 26.8803 45.8792C22.9777 47.8473 18.8956 48 17.7374 48ZM17.4995 46.8591L17.5132 46.8594C17.5587 46.8604 17.6341 46.8617 17.7371 46.8617C18.8317 46.8617 22.6895 46.7176 26.3686 44.8624C28.5124 43.7817 30.2284 42.3036 31.469 40.4692C32.9795 38.2358 33.7825 35.4714 33.8557 32.2527C33.9851 26.5716 32.0865 21.3718 30.4112 16.7844L30.3839 16.71C30.2901 16.4533 30.1975 16.1991 30.1059 15.9474C28.4771 11.4622 26.6094 7.89703 24.555 5.35186C23.4773 4.01628 22.355 2.98262 21.2194 2.27952C19.9963 1.52201 18.7449 1.13801 17.4995 1.13801C15.1049 1.13801 12.7777 2.55662 10.5821 5.35408C8.63459 7.83531 6.80887 11.3709 5.15488 15.8618C4.95612 16.4014 4.75227 16.9422 4.53634 17.5149L4.53316 17.5232C2.8868 21.8904 1.02005 26.8401 1.14344 32.253C1.21691 35.4714 2.01989 38.2358 3.53014 40.4692C4.77071 42.3033 6.4864 43.7814 8.63013 44.8624C12.3096 46.7179 16.1674 46.862 17.2623 46.862C17.3653 46.862 17.4407 46.8607 17.4862 46.8598L17.4995 46.8591Z" fill="#DDDDDD"/>
<path d="M17.5002 3.1875C13.4646 3.1875 9.82393 8.56958 6.9901 16.584C5.4312 20.9932 3.28047 26.1484 3.40322 31.7615C3.70057 45.3514 17.5002 44.8096 17.5002 44.8096C17.5002 44.8096 31.2997 45.3517 31.5971 31.7615C31.7186 26.2152 29.772 21.0371 28.2462 16.6613C25.4203 8.55845 21.5621 3.1875 17.5002 3.1875Z" fill="#FFFEFF"/>
<path d="M31.5967 31.7614C31.2997 45.3514 17.4998 44.8096 17.4998 44.8096C17.4998 44.8096 5.87158 45.2661 3.73389 34.8293C6.94424 42.4426 15.8633 42.07 15.8633 42.07C15.8633 42.07 28.8436 42.6121 29.1235 29.0219C29.2373 23.476 27.4069 18.2978 25.9713 13.922C24.9378 10.7711 23.7573 8.03377 22.476 5.86401C24.6373 8.21289 26.6141 11.9813 28.2461 16.6619C29.7719 21.0374 31.7179 26.2155 31.5967 31.7614Z" fill="#DDDDDD"/>
<path d="M17.7228 45.382C17.6118 45.382 17.5361 45.3801 17.4998 45.3791C17.2912 45.3855 15.7686 45.4141 13.7622 44.9973C11.8001 44.5895 8.98754 43.6579 6.7325 41.5362C4.23609 39.187 2.9246 35.9025 2.83428 31.7742C2.72361 26.7087 4.40623 22.0615 5.89072 17.9616C6.08725 17.4188 6.27297 16.9063 6.45392 16.3944C8.67589 10.11 12.396 2.61865 17.5001 2.61865C19.6563 2.61865 21.7714 3.93705 23.7863 6.53758C25.634 8.92208 27.3153 12.2652 28.783 16.4742C28.8736 16.7345 28.9661 16.9976 29.0593 17.2636C30.5699 21.5719 32.2821 26.4551 32.1657 31.7742C32.0754 35.9025 30.7639 39.1867 28.2675 41.5362C26.0127 43.6582 23.2002 44.5895 21.2381 44.9973C19.5793 45.3416 18.2516 45.382 17.7228 45.382ZM17.5001 44.2401L17.5224 44.2411C17.537 44.2417 19.0527 44.2929 21.0403 43.8759C22.8514 43.4957 25.441 42.6364 27.4941 40.7011C29.7558 38.5692 30.9445 35.5573 31.0278 31.7494C31.1398 26.6368 29.4638 21.8573 27.9854 17.6402C27.8919 17.3736 27.7993 17.1099 27.7084 16.849C26.3012 12.814 24.6342 9.48934 22.8867 7.23464C21.0982 4.9268 19.2858 3.75666 17.4995 3.75666C14.036 3.75666 10.494 8.37964 7.52595 16.7736C7.34372 17.2893 7.15737 17.8041 6.95988 18.3488C5.50942 22.3552 3.86529 26.8961 3.97118 31.7488C4.0545 35.5567 5.24356 38.5685 7.50496 40.7004C9.55806 42.6357 12.148 43.495 13.9587 43.8752C15.9463 44.2923 17.462 44.2411 17.4772 44.2405L17.5001 44.2401Z" fill="#DDDDDD"/>
<path d="M17.4997 38.9885C21.4198 38.9885 24.5978 35.5747 24.5978 31.3635C24.5978 27.1524 21.4198 23.7385 17.4997 23.7385C13.5795 23.7385 10.4016 27.1524 10.4016 31.3635C10.4016 35.5747 13.5795 38.9885 17.4997 38.9885Z" fill="#DDDDDD"/>
<path d="M24.5976 31.3634C24.5976 35.5744 21.4197 38.9884 17.4996 38.9884C14.7001 38.9884 12.2794 37.2472 11.124 34.7186C12.3411 36.0507 14.0358 36.8772 15.9108 36.8772C19.6147 36.8772 22.6171 33.6515 22.6171 29.6728C22.6171 27.6335 21.8284 25.7921 20.5608 24.4819C22.9484 25.7097 24.5976 28.3299 24.5976 31.3634Z" fill="#DDDDDD"/>
<path d="M17.4997 39.5577C13.2723 39.5577 9.83301 35.8818 9.83301 31.3635C9.83301 26.8452 13.2723 23.1693 17.4997 23.1693C21.7274 23.1693 25.1667 26.8452 25.1667 31.3635C25.1667 35.8818 21.7274 39.5577 17.4997 39.5577ZM17.4997 24.3076C13.8995 24.3076 10.9705 27.4729 10.9705 31.3635C10.9705 35.2541 13.8995 38.4193 17.4997 38.4193C21.0999 38.4193 24.0288 35.2541 24.0288 31.3635C24.0288 27.4729 21.0999 24.3076 17.4997 24.3076Z" fill="#DDDDDD"/>
<path d="M13.7131 27.6931C13.4415 27.478 13.0427 27.5538 12.8684 27.8534C12.6134 28.2912 12.282 28.9736 12.0775 29.8326C11.7684 31.1319 11.7026 33.0819 13.0112 35.2122C13.1842 35.4941 13.5582 35.5726 13.8276 35.3808C14.0724 35.2064 14.1379 34.8724 13.9802 34.6163C13.0929 33.1764 12.8214 31.6734 13.1737 30.1412C13.3461 29.3907 13.638 28.7942 13.852 28.4261C13.9945 28.1811 13.9357 27.869 13.7137 27.6934L13.7131 27.6931Z" fill="white"/>
<path d="M15.0001 25.6331C14.8353 25.7463 14.6811 25.8682 14.5475 25.9814C14.2906 26.1991 14.2772 26.5907 14.5192 26.8248L14.5199 26.8255C14.7298 27.0288 15.0592 27.0396 15.2825 26.8509C15.3992 26.7526 15.5251 26.6537 15.6491 26.5681C15.8654 26.4189 15.9513 26.1408 15.8565 25.8955L15.8562 25.8949C15.7239 25.55 15.3044 25.4234 15.0001 25.6331Z" fill="white"/>
</g>
<defs>
<clipPath id="clip0_143_882">
<rect width="35" height="48" fill="white"/>
</clipPath>
</defs>
</svg>
