<svg width="63" height="45" viewBox="0 0 63 45" fill="none" xmlns="http://www.w3.org/2000/svg">
<g clip-path="url(#clip0_131_202)">
<path d="M17.8785 38.7933C17.8785 38.7933 24.6648 36.2338 20.966 25.6794C20.966 25.6794 19.1498 21.7778 23.2695 18.7858C23.2695 18.7858 31.4335 13.2077 25.6925 4.94071C25.6925 4.94071 20.966 -2.28729 11.03 0.73144C11.03 0.73144 -0.239254 3.66099 0.00438258 18.9062C0.00438258 18.9062 -0.239255 33.2374 7.63685 38.4232C7.63685 38.4276 11.9603 41.2948 17.8785 38.7933Z" fill="#D0D0D0"/>
<path d="M45.1215 38.7931C45.1215 38.7931 38.3351 36.2337 42.0339 25.6793C42.0339 25.6793 43.8501 21.7777 39.7305 18.7857C39.7305 18.7857 31.5664 13.2075 37.3074 4.94059C37.3074 4.94059 42.0339 -2.28741 51.9699 0.731318C51.9699 0.731318 63.2392 3.66087 62.9955 18.9061C62.9955 18.9061 63.2392 33.2373 55.3631 38.423C55.3631 38.4275 51.0352 41.2946 45.1215 38.7931Z" fill="#D0D0D0"/>
<path d="M22.2551 23.4319C22.2551 23.4319 22.1399 21.7643 24.4345 20.0476C24.4345 20.0476 25.9097 18.9953 26.5918 17.7601C26.5918 17.7601 30.6584 19.9316 31.6152 21.4432C31.6152 21.4432 33.6263 19.1379 36.4215 17.6977C36.4215 17.6977 36.8999 18.6831 38.7249 20.1635C38.7249 20.1635 40.7095 21.519 40.7936 23.3784C40.7936 23.3784 36.0228 25.8621 35.6285 29.4605L35.6374 44.9956H27.8189L27.7347 29.5809C27.7391 29.5853 27.7524 26.5488 22.2551 23.4319Z" fill="#D0D0D0"/>
</g>
<defs>
<clipPath id="clip0_131_202">
<rect width="63" height="45" fill="white"/>
</clipPath>
</defs>
</svg>
