<svg width="57" height="53" viewBox="0 0 57 53" fill="none" xmlns="http://www.w3.org/2000/svg">
<path d="M9.71254 32.9289C9.71254 32.9289 9.28128 31.9845 9.88946 31.0218C9.88946 31.0218 10.7999 29.2285 14.379 29.2873C14.379 29.2873 18.2935 29.3461 21.5187 31.3488C21.5187 31.3488 23.1959 32.3704 23.9736 32.804C23.9736 32.804 26.6164 34.3033 27.5859 35.3836C27.5859 35.3836 29.6795 37.3716 30.0702 41.7151C30.0702 41.7151 30.3061 45.0517 30.2508 50.9275C30.2508 50.9275 30.1918 51.0084 29.9633 51.001C29.9633 51.001 29.1524 51.0488 28.9644 51.001C28.9644 51.001 28.828 50.9753 28.7838 50.9128C28.7838 50.9128 28.8759 43.4201 28.6585 42.1671C28.6585 42.1671 28.4226 37.6582 25.8055 35.6041C25.8055 35.6041 24.309 34.5605 23.2253 34.5458C23.2253 34.5458 21.8026 34.4392 20.3945 35.2697C20.3945 35.2697 17.6853 36.7947 14.4417 36.1737C14.438 36.17 10.811 35.6666 9.71254 32.9289Z" fill="#D0D0D0"/>
<path d="M29.8086 0.598974C29.8086 0.598974 29.8233 0.0293975 31.6552 0C31.6552 0 33.3766 0.0183734 33.5056 0.547528V52.4084C33.5056 52.4084 33.5314 52.6142 32.9822 52.6436H30.0703C30.0703 52.6436 29.768 52.695 29.8049 52.254V0.598974H29.8086Z" fill="#D0D0D0"/>
<path d="M24.228 2.55396C24.228 2.55396 24.2427 2.01011 26.0747 1.98071C26.0747 1.98071 27.796 1.99541 27.925 2.50252V52.0299C27.925 52.0299 27.9508 52.2284 27.4016 52.2541H24.4897C24.4897 52.2541 24.1874 52.3019 24.2243 51.883V2.55396H24.228Z" fill="#D0D0D0"/>
<mask id="mask0_131_259" style="mask-type:luminance" maskUnits="userSpaceOnUse" x="24" y="1" width="4" height="52">
<path d="M24.228 2.55396C24.228 2.55396 24.2427 2.01011 26.0747 1.98071C26.0747 1.98071 27.796 1.99541 27.925 2.50252V52.0299C27.925 52.0299 27.9508 52.2284 27.4016 52.2541H24.4897C24.4897 52.2541 24.1874 52.3019 24.2243 51.883V2.55396H24.228Z" fill="white"/>
</mask>
<g mask="url(#mask0_131_259)">
<path d="M24.8214 3.965C24.8214 3.965 24.7882 2.99121 25.3743 2.96181C25.3743 2.96181 25.883 2.91772 25.883 3.965L25.894 52.4047H24.8214V3.965Z" fill="#D0D0D0"/>
<path opacity="0.9" d="M22.6983 38.1066C22.6983 38.1066 24.3791 38.5586 24.9578 39.3229C24.9578 39.3229 26.1336 40.9361 26.2 42.5346V48.6566C26.2 48.6566 26.2553 49.6635 25.754 50.2918C25.754 50.2918 25.0942 50.9533 24.6592 51.2215C24.6592 51.2215 24.0953 51.4935 24.11 52.5481C24.11 52.5481 27.4901 52.8237 28.2531 52.5481C28.2531 52.5481 28.4226 52.3754 28.3931 51.6404L29.2593 30.952C29.2593 30.952 29.6427 29.8275 26.587 30.217C26.587 30.217 23.8778 30.2611 22.6946 31.2974C22.6946 31.2974 22.1638 31.7604 22.2081 33.2266C22.2081 33.2266 22.3444 36.7653 22.4034 37.3496C22.4071 37.3496 22.1933 37.9449 22.6983 38.1066Z" fill="#D0D0D0"/>
</g>
<path d="M27.9324 52.0446C27.9324 52.3533 27.103 52.6032 26.0747 52.6032C25.05 52.6032 24.2169 52.3533 24.2169 52.0446C24.2169 51.736 25.0463 51.4861 26.0747 51.4861C27.0994 51.4861 27.9324 51.736 27.9324 52.0446Z" fill="#D0D0D0"/>
<path d="M29.2114 30.5367C29.2114 30.5367 29.1671 32.3373 30.1292 36.5007C30.1292 36.5007 30.5383 38.4887 30.7153 40.6935C30.7153 40.6935 30.8037 41.6894 30.7963 42.6007L30.8037 50.0272C30.8037 50.0272 30.8074 50.1301 30.9991 50.1301L32.4956 50.0823C32.4956 50.0823 32.5288 50.075 32.5324 50.0382V42.2185C32.5324 42.2185 32.5582 38.452 31.9132 36.159C31.9132 36.159 31.0028 32.205 31.0912 29.3755L29.3256 29.5261C29.3256 29.5298 29.2077 29.5261 29.2114 30.5367Z" fill="#D0D0D0"/>
<mask id="mask1_131_259" style="mask-type:luminance" maskUnits="userSpaceOnUse" x="29" y="29" width="4" height="22">
<path d="M29.2114 30.5367C29.2114 30.5367 29.1671 32.3373 30.1292 36.5007C30.1292 36.5007 30.5383 38.4887 30.7153 40.6935C30.7153 40.6935 30.8037 41.6894 30.7963 42.6007L30.8037 50.0272C30.8037 50.0272 30.8074 50.1301 30.9991 50.1301L32.4956 50.0823C32.4956 50.0823 32.5288 50.075 32.5324 50.0382V42.2185C32.5324 42.2185 32.5582 38.452 31.9132 36.159C31.9132 36.159 31.0028 32.205 31.0912 29.3755L29.3256 29.5261C29.3256 29.5298 29.2077 29.5261 29.2114 30.5367Z" fill="white"/>
</mask>
<g mask="url(#mask1_131_259)">
<path d="M29.9965 33.4875C29.9965 33.4875 29.9228 33.1237 30.1329 33.0575C30.1329 33.0575 30.4057 32.9767 30.5494 33.3184C30.5494 33.3184 30.66 33.5646 30.7116 33.9248C30.7116 33.9248 31.1503 36.3611 31.2203 36.8866C31.2203 36.8866 31.6405 39.5581 31.681 42.1303C31.681 42.1303 31.7032 43.1041 31.681 43.7839L31.6921 50.1375C31.6921 50.1375 31.3456 50.1852 31.1097 50.1375L31.0729 42.2589C31.0729 42.2589 31.0544 39.83 30.7817 38.1286C30.7817 38.1286 30.5642 36.7028 30.4942 36.2839C30.4905 36.2839 30.0666 33.899 29.9965 33.4875Z" fill="#D0D0D0"/>
</g>
<path d="M32.5325 50.0455C32.5325 50.1852 32.1454 50.2991 31.6663 50.2991C31.1871 50.2991 30.8 50.1852 30.8 50.0455C30.8 49.9059 31.1871 49.792 31.6663 49.792C32.1454 49.792 32.5325 49.9059 32.5325 50.0455Z" fill="#D0D0D0"/>
<path d="M22.8162 35.9384C22.8162 35.9384 25.0647 36.1331 26.0452 39.0398C26.0452 39.0398 26.1889 39.5175 26.3216 40.4031C26.4506 41.2593 26.5354 42.5197 26.528 44.1329C26.528 44.1329 26.5096 48.4103 26.5501 49.3583C26.5501 49.3583 26.5428 49.4171 26.7455 49.4502L28.0245 49.4906C28.0245 49.4906 28.242 49.509 28.2567 49.3363L28.2494 42.4022C28.2494 42.4022 28.2199 39.6682 27.5417 37.9889C27.5417 37.9889 26.657 35.3468 23.5866 34.6633C23.5866 34.6633 23.2401 34.564 23.0816 34.8727C23.0816 34.8727 22.7351 35.4717 22.7204 35.7583C22.7167 35.7657 22.6356 35.9237 22.8162 35.9384Z" fill="#D0D0D0"/>
<g opacity="0.9">
<path d="M28.2531 49.3621C28.2531 49.5017 27.8734 49.6119 27.4016 49.6119C26.9298 49.6119 26.5502 49.498 26.5502 49.3621C26.5502 49.2224 26.9298 49.1122 27.4016 49.1122C27.8734 49.1122 28.2531 49.2261 28.2531 49.3621Z" fill="#D0D0D0"/>
</g>
<path d="M4.95766 45.6654C4.95766 45.6654 6.76011 46.8339 9.82316 44.427C9.82316 44.427 11.4818 43.1445 12.337 42.3875C12.337 42.3875 14.8103 40.0615 17.2983 39.1832C17.2983 39.1832 19.0897 38.5842 20.5199 38.3895C20.5199 38.3895 22.8162 38.2756 24.8251 36.5595C24.8251 36.5595 27.4127 34.5421 29.4621 28.3466C29.4621 28.3466 31.8911 18.9541 31.5446 16.1576C31.5446 16.1576 31.6331 14.9634 28.5811 14.0557C28.5811 14.0557 22.2891 12.2404 16.4985 12.2955C16.4985 12.2955 11.3713 12.1927 7.65949 14.7098C7.65949 14.7098 3.74129 17.1094 1.74717 22.9007C1.74717 22.9007 -0.158479 27.483 0.792504 34.4833C0.792504 34.4833 1.64028 41.4542 3.83712 44.5372C3.84081 44.5409 4.30893 45.2391 4.95766 45.6654Z" fill="#D0D0D0"/>
<path d="M6.20719 46.4701C5.25621 46.4701 4.71437 46.132 4.67014 46.1026H4.66645C3.94032 45.6249 3.42428 44.8642 3.40216 44.8312C1.16109 41.6893 0.30594 34.8397 0.272766 34.5494C-0.670845 27.6336 1.10948 23.0734 1.25692 22.7206C3.25472 16.9293 7.08814 14.4525 7.37565 14.2725C11.1833 11.6965 16.2957 11.77 16.5095 11.7737C16.598 11.7737 16.6864 11.7737 16.7712 11.7737C22.4808 11.7737 28.4705 13.4824 28.7285 13.5559C31.81 14.4746 32.068 15.7534 32.0717 16.1355C32.4035 19.0385 30.0739 28.0966 29.9744 28.4825L29.9633 28.5156C27.9287 34.6523 25.3743 36.7983 25.1605 36.9673C23.1332 38.6944 20.8516 38.8966 20.5715 38.9149C19.2113 39.1023 17.4826 39.6756 17.4642 39.6829C15.1199 40.5134 12.7203 42.7513 12.6982 42.7733C11.8283 43.545 10.2139 44.7907 10.1438 44.8459C8.4925 46.1357 7.15081 46.4701 6.20719 46.4701ZM5.24147 45.2207C5.34099 45.2795 6.84856 46.0953 9.49878 44.0117C9.51721 43.997 11.1575 42.7292 11.9905 41.9943C12.0826 41.9061 14.5633 39.5911 17.1251 38.6871C17.2098 38.6577 18.9902 38.0697 20.4535 37.8713L20.4977 37.8676C20.5162 37.8676 22.6504 37.7317 24.4897 36.1626L24.5081 36.1479C24.5302 36.1295 27.0035 34.1195 28.9644 28.2032C29.0787 27.7549 31.353 18.8364 31.0286 16.2274L31.0175 16.1355C30.9733 15.9775 30.6563 15.2242 28.4373 14.5628C28.3784 14.5444 22.1417 12.7732 16.5095 12.8247C16.4432 12.8247 11.4855 12.7548 7.96172 15.1471L7.93961 15.1618C7.90275 15.1838 4.1541 17.5503 2.24845 23.077L2.23739 23.1064C2.21896 23.1505 0.398089 27.6557 1.31958 34.4171C1.33064 34.4943 2.17842 41.2998 4.27205 44.2395C4.28311 44.2542 4.69594 44.8606 5.24147 45.2207Z" fill="white"/>
<path d="M27.1767 27.2478C27.1767 27.2478 25.8018 27.7879 24.5338 27.4866C24.5338 27.4866 24.1099 27.369 23.5386 27.6336C23.5386 27.6336 21.9794 28.3208 21.3491 27.8504C21.3491 27.8504 20.9289 27.6042 21.3049 26.884C21.3049 26.884 21.644 26.0829 23.2106 25.3847C23.2106 25.3847 23.9699 25.1826 24.121 24.2456C24.121 24.2456 24.1652 23.8634 24.1947 23.5547C24.1947 23.5547 24.2095 22.7536 25.4774 22.2833C25.4774 22.2833 26.1704 22.1216 26.3547 21.6071C26.3547 21.6071 26.4174 21.3058 26.4211 20.9236C26.4211 20.9236 26.3658 20.3835 27.173 20.0711C27.173 20.0711 27.7701 19.8212 27.7628 19.281C27.7628 19.281 27.7259 18.6343 27.7259 18.3844C27.7259 18.3844 27.6448 17.565 28.3857 17.0138C28.3857 17.0138 28.9054 16.5765 28.9312 16.1502C28.9312 16.1502 28.9976 15.6394 28.8943 15.2132C28.8943 15.2132 28.7838 14.7538 29.1929 14.5848C29.1929 14.5848 30.2876 14.1769 31.176 14.684C31.176 14.684 31.9648 15.0625 32.396 16.1135C32.396 16.1135 32.7831 17.0505 32.2191 18.0133C32.2191 18.0133 30.236 21.7688 28.9939 24.1978C28.9939 24.1978 28.135 25.4141 27.8954 26.2372C27.9028 26.2446 27.7959 27.064 27.1767 27.2478Z" fill="white"/>
<path d="M24.5523 33.3405C24.5523 33.3405 24.3865 33.7006 24.7846 33.9248C24.7846 33.9248 25.26 34.2555 25.6581 34.2334C25.6581 34.2334 26.1484 34.3143 26.4248 33.6712C26.4248 33.6712 26.915 32.4255 27.232 31.3672C27.232 31.3672 27.7075 29.8716 28.2494 29.2836C28.2494 29.2836 27.5011 28.2217 27.479 28.0159C27.479 28.0159 26.4912 28.7361 26.0931 29.8495C26.0931 29.8495 25.894 30.3603 25.6729 31.3084C25.6729 31.3084 25.3669 32.499 24.8472 32.9693C24.8472 32.9657 24.6519 33.1421 24.5523 33.3405Z" fill="#D0D0D0"/>
<path d="M30.2508 50.9275C30.2508 51.0671 29.9228 51.1774 29.5173 51.1774C29.1119 51.1774 28.7838 51.0635 28.7838 50.9275C28.7838 50.7879 29.1119 50.6776 29.5173 50.6776C29.9228 50.6776 30.2508 50.7879 30.2508 50.9275Z" fill="#D0D0D0"/>
<path d="M25.3743 27.189C25.3743 27.189 24.9762 25.1936 26.1926 23.5437C26.1926 23.5437 27.3684 22.0738 28.43 19.7624C28.43 19.7624 28.9718 18.5829 29.4473 17.3151C29.4473 17.3151 30.1108 14.8089 32.9859 13.7727C32.9859 13.7727 36.6645 12.4167 42.8422 13.0451C42.8422 13.0451 49.8234 13.78 54.1581 16.1576C54.1581 16.1576 55.5072 16.8962 56.0859 17.6936C56.0859 17.6936 56.484 18.2264 56.4692 18.6527C56.4692 18.6527 56.5061 19.281 55.7468 19.8065C55.7468 19.8065 54.8069 20.5598 52.422 20.9604C52.422 20.9604 48.7582 21.394 44.6852 24.0508C44.6852 24.0508 42.1271 25.6493 38.7692 28.7617C38.7692 28.7617 35.9641 31.1393 33.2771 31.8007C33.2771 31.8007 30.284 32.6349 28.4779 31.4847C28.4816 31.4737 25.9162 29.9046 25.3743 27.189Z" fill="#D0D0D0"/>
<path d="M31.0139 32.6092C30.0813 32.6092 29.0419 32.4512 28.2015 31.9184C28.0983 31.8559 25.4444 30.1986 24.862 27.2919C24.8435 27.2001 24.4344 25.0504 25.7724 23.2351C25.7945 23.2057 26.9372 21.7652 27.9545 19.5457C27.9582 19.5347 28.489 18.3771 28.9497 17.1535C29.0419 16.8375 29.8491 14.3497 32.8126 13.2804C32.9638 13.2252 36.6719 11.8913 42.9012 12.5234C43.1924 12.5528 50.0372 13.2987 54.4162 15.6983C54.4751 15.7314 55.8721 16.5031 56.5172 17.3813C56.5983 17.4915 57.0111 18.0758 57 18.6491C57.0037 18.8291 56.9558 19.5971 56.0638 20.2218C55.909 20.3394 54.8548 21.0744 52.5179 21.4676L52.4921 21.4712C52.4552 21.4749 48.8909 21.9269 44.9801 24.4808C44.9469 24.5028 42.4109 26.1013 39.1341 29.1366L39.1157 29.1513C38.9977 29.2505 36.1853 31.617 33.4098 32.3005C33.3397 32.3189 32.2782 32.6092 31.0139 32.6092ZM25.8904 27.0862C26.3806 29.5335 28.7323 31.0107 28.7581 31.0254C30.3541 32.0433 33.1112 31.29 33.137 31.2826C35.6214 30.669 38.2568 28.4936 38.4227 28.3539C41.7769 25.2488 44.3018 23.6577 44.4087 23.5915C48.4486 20.9568 52.0608 20.4644 52.352 20.4276C54.5267 20.0602 55.4151 19.3877 55.4261 19.384L55.4519 19.3656C55.9385 19.0276 55.9495 18.6711 55.9495 18.6564V18.6307V18.6233C55.9532 18.4727 55.791 18.1567 55.6694 17.995C55.2455 17.4144 54.254 16.797 53.9075 16.6059C49.7129 14.3056 42.8606 13.5633 42.7906 13.556C36.8304 12.9533 33.207 14.2394 33.1739 14.2541C30.6047 15.1802 29.9855 17.3519 29.9597 17.4438L29.9449 17.4915C29.4658 18.763 28.935 19.9242 28.9129 19.9756C27.8366 22.3201 26.6571 23.8047 26.6091 23.8671C25.566 25.2819 25.8867 27.0568 25.8904 27.0862Z" fill="white"/>
<path d="M33.5093 52.4415C33.5093 52.7502 32.6836 53 31.6626 53C30.6416 53 29.8159 52.7502 29.8159 52.4415C29.8159 52.1328 30.6416 51.8829 31.6626 51.8829C32.6836 51.8829 33.5093 52.1328 33.5093 52.4415Z" fill="#D0D0D0"/>
</svg>
