<svg width="45" height="44" viewBox="0 0 45 44" fill="none" xmlns="http://www.w3.org/2000/svg">
<path d="M42.8898 0H2.11023C0.945308 0 0 0.944902 0 2.10933V41.8907C0 43.0551 0.945308 44 2.11023 44H42.8921C44.0571 44 45.0024 43.0551 45.0024 41.8907V2.10933C45 0.944902 44.0547 0 42.8898 0ZM42.1879 2.81085V15.4406H39.6098L36.0124 22H23.5563H22.5012H21.4461H8.98759L5.39255 15.443H2.81444V2.81085H42.1879Z" fill="#D0D0D0"/>
<path d="M20.8492 15.6577L18.2043 7.96724L22.4987 14.8631C23.6661 14.8631 24.6138 15.8104 24.6138 16.9772H35.2723C35.2723 9.92624 29.5527 4.20911 22.4987 4.20911C15.4447 4.20911 9.72754 9.92624 9.72754 16.9772H20.3861C20.3861 16.4761 20.5604 16.018 20.8492 15.6577ZM31.1856 15.3332H33.7088V16.185H31.1856V15.3332ZM21.9927 5.0872H22.7637V7.60932H21.9927V5.0872ZM13.8143 16.1826H11.2911V15.4095H13.8143V16.1826Z" fill="#D0D0D0"/>
</svg>
