<svg width="23" height="22" viewBox="0 0 23 22" fill="none" xmlns="http://www.w3.org/2000/svg">
<path d="M19.2766 0C20.1386 0 20.9652 0.34241 21.5747 0.951903C22.1842 1.5614 22.5266 2.38805 22.5266 3.25V18.75C22.5266 19.612 22.1842 20.4386 21.5747 21.0481C20.9652 21.6576 20.1386 22 19.2766 22H3.77661C2.91466 22 2.08801 21.6576 1.47851 21.0481C0.869021 20.4386 0.526611 19.612 0.526611 18.75V3.25C0.526611 2.38805 0.869021 1.5614 1.47851 0.951903C2.08801 0.34241 2.91466 0 3.77661 0H19.2766ZM21.0266 6.503H2.02661V18.75C2.02661 19.716 2.81061 20.5 3.77661 20.5H19.2766C19.7407 20.5 20.1859 20.3156 20.514 19.9874C20.8422 19.6592 21.0266 19.2141 21.0266 18.75V6.503ZM6.27561 14.501C6.60713 14.501 6.92507 14.6327 7.15949 14.8671C7.39391 15.1015 7.52561 15.4195 7.52561 15.751C7.52561 16.0825 7.39391 16.4005 7.15949 16.6349C6.92507 16.8693 6.60713 17.001 6.27561 17.001C5.94409 17.001 5.62615 16.8693 5.39173 16.6349C5.15731 16.4005 5.02561 16.0825 5.02561 15.751C5.02561 15.4195 5.15731 15.1015 5.39173 14.8671C5.62615 14.6327 5.94409 14.501 6.27561 14.501ZM11.5296 14.501C11.8611 14.501 12.1791 14.6327 12.4135 14.8671C12.6479 15.1015 12.7796 15.4195 12.7796 15.751C12.7796 16.0825 12.6479 16.4005 12.4135 16.6349C12.1791 16.8693 11.8611 17.001 11.5296 17.001C11.1981 17.001 10.8801 16.8693 10.6457 16.6349C10.4113 16.4005 10.2796 16.0825 10.2796 15.751C10.2796 15.4195 10.4113 15.1015 10.6457 14.8671C10.8801 14.6327 11.1981 14.501 11.5296 14.501ZM6.27561 9.501C6.60713 9.501 6.92507 9.6327 7.15949 9.86712C7.39391 10.1015 7.52561 10.4195 7.52561 10.751C7.52561 11.0825 7.39391 11.4005 7.15949 11.6349C6.92507 11.8693 6.60713 12.001 6.27561 12.001C5.94409 12.001 5.62615 11.8693 5.39173 11.6349C5.15731 11.4005 5.02561 11.0825 5.02561 10.751C5.02561 10.4195 5.15731 10.1015 5.39173 9.86712C5.62615 9.6327 5.94409 9.501 6.27561 9.501ZM11.5296 9.501C11.8611 9.501 12.1791 9.6327 12.4135 9.86712C12.6479 10.1015 12.7796 10.4195 12.7796 10.751C12.7796 11.0825 12.6479 11.4005 12.4135 11.6349C12.1791 11.8693 11.8611 12.001 11.5296 12.001C11.1981 12.001 10.8801 11.8693 10.6457 11.6349C10.4113 11.4005 10.2796 11.0825 10.2796 10.751C10.2796 10.4195 10.4113 10.1015 10.6457 9.86712C10.8801 9.6327 11.1981 9.501 11.5296 9.501ZM16.7846 9.501C17.1161 9.501 17.4341 9.6327 17.6685 9.86712C17.9029 10.1015 18.0346 10.4195 18.0346 10.751C18.0346 11.0825 17.9029 11.4005 17.6685 11.6349C17.4341 11.8693 17.1161 12.001 16.7846 12.001C16.4531 12.001 16.1351 11.8693 15.9007 11.6349C15.6663 11.4005 15.5346 11.0825 15.5346 10.751C15.5346 10.4195 15.6663 10.1015 15.9007 9.86712C16.1351 9.6327 16.4531 9.501 16.7846 9.501ZM19.2766 1.5H3.77661C3.31248 1.5 2.86736 1.68437 2.53917 2.01256C2.21099 2.34075 2.02661 2.78587 2.02661 3.25V5.003H21.0266V3.25C21.0266 2.78587 20.8422 2.34075 20.514 2.01256C20.1859 1.68437 19.7407 1.5 19.2766 1.5Z" fill="#B0B0B0"/>
</svg>
