<svg width="53" height="42" viewBox="0 0 53 42" fill="none" xmlns="http://www.w3.org/2000/svg">
<g clip-path="url(#clip0_152_177)">
<path d="M44.2087 12.194C43.2508 10.3545 42.0333 8.74082 40.6288 7.36809C40.5989 7.33797 40.5665 7.30786 40.5365 7.27774C40.297 7.04686 40.0525 6.821 39.8031 6.60518C39.7831 6.58762 39.7632 6.57256 39.7432 6.55499C39.5062 6.34921 39.2617 6.15095 39.0148 5.96023C38.9873 5.93764 38.9574 5.91505 38.9299 5.89498C38.673 5.69672 38.4085 5.50599 38.1441 5.3228C38.1067 5.2977 38.0693 5.27261 38.0293 5.245C37.7724 5.07184 37.5154 4.9037 37.251 4.74309C37.2335 4.73305 37.2161 4.7205 37.1986 4.71046C36.9242 4.54483 36.6448 4.38673 36.3654 4.23616C36.3155 4.20855 36.2631 4.18346 36.2132 4.15585C35.6494 3.85972 35.0731 3.5912 34.4844 3.3553C34.4245 3.33021 34.3671 3.30762 34.3072 3.28503C34.0154 3.1721 33.721 3.06168 33.4266 2.9613C33.4017 2.95126 33.3742 2.94624 33.3493 2.93621C33.0724 2.84335 32.7955 2.76054 32.516 2.68274C32.4537 2.66517 32.3938 2.64761 32.3314 2.63004C32.0346 2.54973 31.7377 2.47696 31.4358 2.41171C31.3835 2.39916 31.3311 2.38912 31.2787 2.37908C31.0117 2.32387 30.7398 2.27368 30.4704 2.22851C30.413 2.21847 30.3581 2.20843 30.3007 2.19839C29.9989 2.15071 29.697 2.11307 29.3927 2.08045C29.3253 2.07292 29.258 2.0679 29.1906 2.06037C28.9112 2.03276 28.6318 2.01269 28.3524 1.99763C28.3125 1.99512 28.2726 1.99261 28.2326 1.9901C27.9258 1.97755 27.6164 1.97253 27.3071 1.97253C27.2348 1.97253 27.1624 1.97504 27.0876 1.97504C26.7732 1.98006 26.4589 1.9901 26.1446 2.01269C23.59 2.18585 21.0304 2.88099 18.6156 4.15334C9.34523 9.04447 5.76782 20.5684 10.6275 29.8964C14.2249 36.8002 21.4296 40.5646 28.6892 40.0777C31.2437 39.907 33.8033 39.2069 36.2182 37.937C45.491 33.0459 49.0684 21.522 44.2087 12.194ZM41.1353 25.3541C39.9927 29.0407 37.488 32.0571 34.0902 33.849C32.3015 34.7926 30.3806 35.3396 28.3848 35.4727C24.3708 35.7412 20.5115 34.3007 17.6601 31.6456C17.3981 31.4021 17.1462 31.1462 16.9017 30.8827C16.8343 30.8099 16.7695 30.7371 16.7046 30.6643C16.5549 30.4962 16.4102 30.3255 16.268 30.1499C16.1533 30.0093 16.041 29.8663 15.9337 29.7207C15.8639 29.6279 15.7965 29.5375 15.7292 29.4422C15.5695 29.2163 15.4148 28.988 15.2677 28.7546C15.2302 28.6943 15.1953 28.6341 15.1579 28.5739C14.9957 28.3079 14.8386 28.0368 14.6939 27.7583C11.0142 20.6989 13.7309 11.9455 20.7485 8.24643C22.5372 7.30033 24.4582 6.75325 26.4514 6.62024C26.8032 6.59765 27.1549 6.58762 27.5042 6.58762C27.6264 6.58762 27.7462 6.60016 27.8659 6.60267C28.0929 6.6102 28.32 6.61522 28.547 6.63279C28.7091 6.64534 28.8663 6.67043 29.0285 6.688C29.2106 6.70807 29.3927 6.72564 29.5748 6.75325C29.7719 6.78336 29.964 6.82602 30.1586 6.86367C30.3007 6.89127 30.4429 6.91386 30.5826 6.94648C30.8072 6.99667 31.0242 7.05941 31.2462 7.12215C31.3535 7.15227 31.4608 7.17485 31.5681 7.20748C31.815 7.28276 32.057 7.36809 32.2965 7.45843C32.3738 7.48604 32.4512 7.50862 32.526 7.53874C32.7905 7.63912 33.0499 7.75205 33.3069 7.87C33.3568 7.89259 33.4067 7.91015 33.4566 7.93274C33.7335 8.06324 34.0079 8.20377 34.2773 8.34933C34.3023 8.36438 34.3297 8.37693 34.3546 8.38948C34.6415 8.54758 34.9209 8.71823 35.1954 8.89641C35.2028 8.90143 35.2103 8.90645 35.2178 8.91147C37.1986 10.2014 38.8726 11.9857 40.0426 14.1539C40.075 14.2167 40.1149 14.2744 40.1473 14.3371C41.9286 17.7552 42.2778 21.6701 41.1353 25.3541Z" fill="#D0D0D0"/>
<path d="M22.3926 9.91779C16.5251 12.5277 13.8707 19.429 16.4652 25.3315C16.5351 25.4896 16.6074 25.6452 16.6848 25.7983C14.4345 20.0062 17.0989 13.4036 22.8093 10.8639C28.5147 8.32673 35.1581 10.7811 37.9072 16.3448C37.8448 16.1917 37.7825 16.0336 37.7151 15.878C35.1231 9.97802 28.2627 7.30785 22.3926 9.91779Z" fill="#D0D0D0"/>
<path d="M6.74572 12.593C6.81308 12.46 6.45634 1.14692 6.0946 1.26487C5.80522 1.26236 5.80771 7.55633 5.64556 11.9054C5.41106 11.8351 5.17655 11.7774 4.93706 11.7297C4.75245 7.40325 4.58032 1.26236 4.28345 1.26738C3.99406 1.26738 3.91922 7.38568 3.74709 11.5867C3.50261 11.5741 3.25813 11.5741 3.01364 11.5867C2.83902 7.38819 2.76417 1.26989 2.47229 1.26989C2.17043 1.25985 1.9983 7.40074 1.8112 11.7247C1.56921 11.7724 1.33221 11.8326 1.09771 11.9029C0.933061 7.55633 0.933061 1.26236 0.64617 1.26236C0.314374 1.19962 -0.00245352 10.0308 4.11886e-05 12.588C-0.00744293 14.8491 1.00541 15.9935 2.69682 16.2344C2.38498 23.9965 2.07314 31.756 1.7613 39.5156C1.74633 39.8042 1.88604 40.138 2.13052 40.414C2.00578 40.8682 1.88105 41.325 1.75881 41.7792C1.72388 41.8721 2.4224 41.9975 3.37288 41.995C4.32586 41.9975 5.02188 41.8695 4.98696 41.7792C4.86472 41.3275 4.73998 40.8733 4.61525 40.419C4.86472 40.1405 5.00691 39.8042 4.98945 39.5131C4.67761 31.7535 4.36827 23.9965 4.05643 16.2369C5.74036 16.0261 6.73325 15.0499 6.73824 12.583C6.7083 10.1111 6.74323 12.5905 6.74572 12.593ZM3.37288 41.2221C3.01115 41.2246 2.74671 41.1468 2.75918 41.0916C2.88392 40.3739 3.00616 39.6586 3.1284 38.9434C3.14087 38.8882 3.24815 38.8405 3.37288 38.8405C3.49762 38.8405 3.60489 38.8857 3.61986 38.9434C3.7421 39.6611 3.86434 40.3739 3.98658 41.0916C3.99905 41.1468 3.73461 41.2221 3.37288 41.2221ZM3.37288 35.0134C3.53753 35.0134 3.67225 35.1489 3.67225 35.3146C3.67225 35.4802 3.53753 35.6157 3.37288 35.6157C3.20823 35.6157 3.07352 35.4802 3.07352 35.3146C3.07352 35.1489 3.20823 35.0134 3.37288 35.0134ZM3.14836 33.4575C3.14836 33.332 3.24815 33.2316 3.37288 33.2316C3.49762 33.2316 3.59741 33.332 3.59741 33.4575C3.59741 33.583 3.49762 33.6834 3.37288 33.6834C3.25064 33.6834 3.14836 33.583 3.14836 33.4575ZM3.37288 36.7576C3.63732 36.7576 3.85187 36.9734 3.85187 37.2394C3.85187 37.5054 3.63732 37.7212 3.37288 37.7212C3.10844 37.7212 2.8939 37.5054 2.8939 37.2394C2.8939 36.9734 3.10844 36.7576 3.37288 36.7576ZM3.07851 14.7939C1.05031 14.7512 0.910608 13.647 0.958008 13.0046C0.960502 12.9519 0.965492 12.9092 0.970481 12.859C2.39995 13.4638 3.98159 14.0385 5.52332 14.5003C4.75245 14.6584 3.86933 14.7613 3.07851 14.7939Z" fill="#D0D0D0"/>
<path d="M50.9468 0.336327C49.8018 1.47818 48.3474 3.53602 48.4421 9.58406C48.5494 12.7963 48.3948 18.9598 48.8488 23.2386C49.1332 25.8987 49.6621 24.9652 50.1211 26.3605C49.944 30.7447 49.7693 35.1314 49.5922 39.5156C49.5772 39.8042 49.7169 40.1405 49.9639 40.419C49.8392 40.8733 49.7169 41.3275 49.5922 41.7817C49.5598 41.8746 50.2558 42 51.2063 41.9975C52.1593 42 52.8553 41.8721 52.8204 41.7817C52.6956 41.3275 52.5734 40.8733 52.4486 40.419C52.6956 40.1405 52.8353 39.8042 52.8204 39.5156C52.6233 34.6345 52.4287 29.7509 52.2316 24.8698C52.5958 22.3176 52.9052 19.0225 52.985 15.2155C53.0598 4.64524 52.8378 -1.54835 50.9468 0.336327ZM51.2088 33.2316C51.3335 33.2316 51.4333 33.332 51.4333 33.4575C51.4333 33.583 51.3335 33.6834 51.2088 33.6834C51.084 33.6834 50.9843 33.583 50.9843 33.4575C50.9843 33.332 51.084 33.2316 51.2088 33.2316ZM51.2088 35.0134C51.3734 35.0134 51.5081 35.1489 51.5081 35.3146C51.5081 35.4802 51.3734 35.6157 51.2088 35.6157C51.0441 35.6157 50.9094 35.4802 50.9094 35.3146C50.9094 35.1489 51.0416 35.0134 51.2088 35.0134ZM51.2088 36.7576C51.4732 36.7576 51.6878 36.9734 51.6878 37.2394C51.6878 37.5054 51.4732 37.7212 51.2088 37.7212C50.9443 37.7212 50.7298 37.5054 50.7298 37.2394C50.7298 36.9734 50.9443 36.7576 51.2088 36.7576ZM51.2088 41.2221C50.847 41.2246 50.5826 41.1468 50.5951 41.0916C50.7198 40.3739 50.8421 39.6586 50.9643 38.9434C50.9743 38.8882 51.084 38.8405 51.2088 38.8405C51.3335 38.8405 51.4408 38.8857 51.4533 38.9434C51.5755 39.6611 51.6977 40.3739 51.82 41.0916C51.8325 41.1468 51.568 41.2221 51.2088 41.2221Z" fill="#D0D0D0"/>
</g>
<defs>
<clipPath id="clip0_152_177">
<rect width="53" height="42" fill="white"/>
</clipPath>
</defs>
</svg>
