<svg width="14" height="19" viewBox="0 0 14 19" fill="none" xmlns="http://www.w3.org/2000/svg">
<path fill-rule="evenodd" clip-rule="evenodd" d="M7.92362 0.923321C7.92362 0.678441 7.82634 0.443591 7.65318 0.270435C7.48003 0.0972782 7.24518 0 7.0003 0C6.75542 0 6.52057 0.0972782 6.34741 0.270435C6.17425 0.443591 6.07697 0.678441 6.07697 0.923321V1.61581H5.56268C4.57291 1.61575 3.62032 1.99289 2.89883 2.67046C2.17734 3.34804 1.7412 4.2751 1.67919 5.26293L1.47514 8.52595C1.39733 9.77008 0.979594 10.969 0.267436 11.9921C0.12029 12.2036 0.0303803 12.4496 0.00645267 12.7061C-0.017475 12.9627 0.0253934 13.221 0.130889 13.4561C0.236384 13.6911 0.400915 13.8949 0.608481 14.0476C0.816048 14.2002 1.05958 14.2965 1.31541 14.3272L4.46116 14.7039V15.6965C4.46116 16.3699 4.72868 17.0157 5.20486 17.4919C5.68104 17.9681 6.32688 18.2356 7.0003 18.2356C7.67372 18.2356 8.31955 17.9681 8.79573 17.4919C9.27191 17.0157 9.53943 16.3699 9.53943 15.6965V14.7039L12.6852 14.3263C12.9409 14.2955 13.1842 14.1992 13.3917 14.0466C13.5991 13.894 13.7635 13.6904 13.869 13.4554C13.9745 13.2205 14.0174 12.9623 13.9936 12.7059C13.9698 12.4495 13.8801 12.2036 13.7332 11.9921C13.021 10.969 12.6032 9.77009 12.5254 8.52595L12.3214 5.26386C12.2596 4.27586 11.8236 3.34857 11.1021 2.6708C10.3805 1.99303 9.42783 1.61576 8.43791 1.61581H7.92362V0.923321ZM5.84614 15.6965C5.84614 16.0026 5.96774 16.2961 6.18419 16.5126C6.40063 16.729 6.6942 16.8506 7.0003 16.8506C7.3064 16.8506 7.59996 16.729 7.8164 16.5126C8.03285 16.2961 8.15445 16.0026 8.15445 15.6965V15.004H5.84614V15.6965Z" fill="white"/>
</svg>
