<svg width="31" height="31" viewBox="0 0 31 31" fill="none" xmlns="http://www.w3.org/2000/svg">
<g clip-path="url(#clip0_174_272)">
<path d="M27.9947 23.9648C27.1644 23.2246 26.4374 22.3759 25.8333 21.4418C25.1739 20.1523 24.7787 18.7441 24.6708 17.2998V13.0459C24.6765 10.7774 23.8537 8.58492 22.3568 6.88035C20.86 5.17578 18.7922 4.07647 16.542 3.78898V2.67815C16.542 2.37326 16.4208 2.08086 16.2053 1.86527C15.9897 1.64968 15.6973 1.52856 15.3924 1.52856C15.0875 1.52856 14.7951 1.64968 14.5795 1.86527C14.3639 2.08086 14.2428 2.37326 14.2428 2.67815V3.8062C12.0127 4.11442 9.96993 5.22037 8.49275 6.91921C7.01556 8.61806 6.20409 10.7947 6.20863 13.0459V17.2998C6.10078 18.7441 5.70555 20.1523 5.04613 21.4418C4.45272 22.3738 3.7374 23.2223 2.91918 23.9648C2.82733 24.0455 2.75371 24.1448 2.70323 24.2562C2.65275 24.3676 2.62656 24.4884 2.6264 24.6106V25.7818C2.6264 26.0101 2.71713 26.2292 2.87862 26.3907C3.04011 26.5521 3.25913 26.6429 3.48752 26.6429H27.4264C27.6548 26.6429 27.8738 26.5521 28.0353 26.3907C28.1968 26.2292 28.2875 26.0101 28.2875 25.7818V24.6106C28.2874 24.4884 28.2612 24.3676 28.2107 24.2562C28.1602 24.1448 28.0866 24.0455 27.9947 23.9648ZM4.41752 24.9206C5.2187 24.1467 5.92411 23.2794 6.51863 22.3373C7.34927 20.78 7.83391 19.0617 7.93946 17.2998V13.0459C7.90531 12.0367 8.07459 11.031 8.43722 10.0886C8.79985 9.14618 9.34842 8.28638 10.0503 7.56039C10.7521 6.8344 11.5928 6.25707 12.5224 5.86277C13.4521 5.46848 14.4515 5.26528 15.4613 5.26528C16.471 5.26528 17.4705 5.46848 18.4001 5.86277C19.3297 6.25707 20.1704 6.8344 20.8723 7.56039C21.5741 8.28638 22.1227 9.14618 22.4853 10.0886C22.8479 11.031 23.0172 12.0367 22.9831 13.0459V17.2998C23.0886 19.0617 23.5733 20.78 24.4039 22.3373C24.9984 23.2794 25.7038 24.1467 26.505 24.9206H4.41752Z" fill="#1C1C1C"/>
<path d="M15.5 29.519C16.0424 29.5065 16.563 29.3026 16.9695 28.9433C17.3761 28.584 17.6425 28.0925 17.7216 27.5557H13.1922C13.2736 28.107 13.5524 28.6101 13.9769 28.9713C14.4014 29.3324 14.9427 29.5271 15.5 29.519Z" fill="#1C1C1C"/>
</g>
<defs>
<clipPath id="clip0_174_272">
<rect width="31" height="31" fill="white"/>
</clipPath>
</defs>
</svg>
