<svg width="42" height="50" viewBox="0 0 42 50" fill="none" xmlns="http://www.w3.org/2000/svg">
<g clip-path="url(#clip0_131_348)">
<path d="M42 48.4163C42 49.2892 41.3125 49.9999 40.468 49.9999H1.53203C0.687544 49.9999 0 49.2892 0 48.4163V12.1282C0 11.2553 0.687544 10.5446 1.53203 10.5446H40.468C41.3125 10.5446 42 11.2514 42 12.1282V48.4163Z" fill="#D0D0D0"/>
<path d="M34.3474 13.7968C34.3474 21.4137 28.3725 27.5898 21 27.5898C13.6314 27.5898 7.65271 21.4137 7.65271 13.7968C7.65271 6.17613 13.6276 0 21 0C28.3687 0 34.3474 6.17613 34.3474 13.7968Z" fill="#D0D0D0"/>
<path d="M30.8686 13.7968C30.8686 19.4283 26.4519 23.9938 21.0001 23.9938C15.5521 23.9938 11.1316 19.4283 11.1316 13.7968C11.1316 8.16528 15.5483 3.59595 21.0001 3.59595C26.4481 3.59595 30.8686 8.16142 30.8686 13.7968Z" fill="white"/>
<path d="M23.3242 13.8432C23.3242 15.1372 22.3079 16.1839 21.0598 16.1839C19.808 16.1839 18.7954 15.1333 18.7954 13.8432C18.7954 12.5493 19.808 11.5026 21.0598 11.5026C22.3079 11.5026 23.3242 12.5493 23.3242 13.8432Z" fill="#D0D0D0"/>
<path d="M19.7483 13.8432L18.6198 6.2341C18.6198 6.2341 18.4928 5.45001 18.8104 5.35731C18.8104 5.35731 19.1392 5.22213 19.483 6.10277L22.2369 13.3179L19.7483 13.8432Z" fill="#D0D0D0"/>
<path d="M20.9701 46.5044C20.9664 46.5044 20.9627 46.5044 20.9589 46.5044C19.9015 46.5005 19.0495 45.6083 19.0532 44.5152L19.113 31.9776C19.1168 30.8883 19.9725 30.0077 21.0262 30.0077C21.0299 30.0077 21.0337 30.0077 21.0374 30.0077C22.0949 30.0116 22.9468 30.9038 22.9431 31.9969L22.8833 44.5345C22.8796 45.6238 22.0239 46.5044 20.9701 46.5044Z" fill="white"/>
</g>
<defs>
<clipPath id="clip0_131_348">
<rect width="42" height="50" fill="white"/>
</clipPath>
</defs>
</svg>
