<svg width="33" height="50" viewBox="0 0 33 50" fill="none" xmlns="http://www.w3.org/2000/svg">
<g clip-path="url(#clip0_131_856)">
<path d="M32.9366 29.9601C32.0642 26.6342 26.2814 19.4476 26.2814 19.4476C25.2188 17.9242 22.7283 16.5723 22.7283 16.5723C21.9379 16.2528 20.3123 15.4625 20.3123 15.4625C18.9365 14.8976 19.7083 12.9067 19.7083 12.9067C20.7299 11.0268 21.2295 7.00813 21.2295 7.00813C22.7096 8.71986 23.8543 12.4292 23.8543 12.4292C23.9698 12.9269 24.1973 13.734 24.1973 13.734C24.8236 15.5836 25.9683 14.8606 25.9683 14.8606C27.3105 14.0333 28.6229 11.9752 28.6229 11.9752C29.1933 11.2992 28.9361 10.0852 28.9361 10.0852C27.4671 3.38289 19.794 2.68676 19.794 2.68676C17.7993 -0.124643 13.6869 -0.000214788 13.6869 -0.000214788C8.34414 0.141028 6.68873 4.56664 6.68873 4.56664C5.53293 7.89258 7.03175 11.0504 7.03175 11.0504C7.34493 11.7263 7.53135 12.8832 7.53135 12.8832C7.50152 14.5747 8.81392 14.6319 8.81392 14.6319C10.0965 14.605 11.4685 15.3078 11.4685 15.3078C11.7966 16.0073 11.3119 17.6652 11.3119 17.6652C10.3239 20.174 7.12496 22.1379 7.12496 22.1379C5.2272 23.2847 4.62693 24.7106 4.62693 24.7106C3.45995 27.4547 6.36064 29.2875 6.36064 29.2875C6.96836 29.7314 6.8155 30.3435 6.8155 30.3435C6.62908 31.1472 5.34651 31.8232 5.34651 31.8232C0.473504 34.6043 0.0857509 39.7227 0.0857509 39.7227C-0.622644 45.4497 3.30335 48.7992 3.30335 48.7992C4.60456 49.909 6.25251 50.0031 6.25251 50.0031H21.1102C22.5232 50.0031 22.855 48.9136 22.855 48.9136C23.6455 46.6032 22.2995 41.9422 22.2995 41.9422C28.1494 37.2442 32.4706 32.2334 32.4706 32.2334C33.2498 31.2447 32.9366 29.9601 32.9366 29.9601ZM25.8117 30.8479C24.7491 32.1023 21.0132 36.8911 21.0132 36.8911C19.5741 31.5642 21.7477 25.1478 21.7477 25.1478C22.0273 25.7094 25.7259 30.1148 25.7259 30.1148C26.0689 30.5251 25.8117 30.8479 25.8117 30.8479Z" fill="#D0D0D0"/>
</g>
<defs>
<clipPath id="clip0_131_856">
<rect width="33" height="50" fill="white"/>
</clipPath>
</defs>
</svg>
