<svg width="27" height="28" viewBox="0 0 27 28" fill="none" xmlns="http://www.w3.org/2000/svg">
<path d="M24.4166 14.8088L25.0629 12.3938C25.8179 9.57508 26.1966 8.16633 25.9129 6.94633C25.688 5.9832 25.1825 5.1084 24.4604 4.43258C23.5466 3.57633 22.1366 3.19883 19.3179 2.44383C16.4991 1.68758 15.0891 1.31008 13.8704 1.59383C12.9073 1.81872 12.0325 2.3242 11.3566 3.04633C10.6229 3.82883 10.2404 4.97508 9.67163 7.05758L9.36663 8.18883L8.72038 10.6038C7.96413 13.4226 7.58663 14.8313 7.87038 16.0513C8.09527 17.0145 8.60075 17.8893 9.32288 18.5651C10.2366 19.4213 11.6466 19.7988 14.4654 20.5551C17.0054 21.2351 18.4016 21.6088 19.5454 21.4676C19.6704 21.4526 19.7929 21.4301 19.9129 21.4026C20.8757 21.1784 21.7505 20.6738 22.4266 19.9526C23.2829 19.0376 23.6604 17.6276 24.4166 14.8088Z" stroke="#2E2E2E" stroke-width="1.5"/>
<path d="M19.5454 21.4676C19.2841 22.2681 18.8249 22.9895 18.2104 23.5651C17.2966 24.4214 15.8866 24.7989 13.0679 25.5539C10.2491 26.3089 8.83913 26.6876 7.62038 26.4026C6.6574 26.1781 5.78261 25.6731 5.10663 24.9514C4.25038 24.0376 3.87163 22.6276 3.11663 19.8089L2.47038 17.3939C1.71413 14.5751 1.33663 13.1651 1.62038 11.9464C1.84527 10.9833 2.35075 10.1085 3.07288 9.43265C3.98663 8.5764 5.39663 8.1989 8.21538 7.44265C8.74788 7.30015 9.23163 7.17015 9.67163 7.0564" stroke="#2E2E2E" stroke-width="1.5"/>
<path d="M13.7479 11.5L19.7854 13.1175M12.7766 15.1225L16.3991 16.0925" stroke="#2E2E2E" stroke-width="1.5" stroke-linecap="round"/>
</svg>
