<svg width="23" height="24" viewBox="0 0 23 24" fill="none" xmlns="http://www.w3.org/2000/svg">
<path d="M11.0266 15.3448C12.8386 15.3448 14.3074 13.8759 14.3074 12.064C14.3074 10.2521 12.8386 8.7832 11.0266 8.7832C9.21471 8.7832 7.74585 10.2521 7.74585 12.064C7.74585 13.8759 9.21471 15.3448 11.0266 15.3448Z" stroke="#BBBBBB" stroke-width="1.4"/>
<path d="M12.9568 1.2944C12.5555 1.12817 12.0459 1.12817 11.0266 1.12817C10.0074 1.12817 9.49779 1.12817 9.09644 1.2944C8.83089 1.40432 8.58961 1.5655 8.38639 1.76872C8.18317 1.97194 8.02199 2.21322 7.91207 2.47877C7.81146 2.72264 7.771 3.00807 7.75569 3.42254C7.74887 3.72217 7.66601 4.01516 7.51489 4.27398C7.36377 4.5328 7.14934 4.74897 6.89175 4.90218C6.63027 5.04877 6.33581 5.12647 6.03605 5.128C5.73628 5.12954 5.44105 5.05484 5.17808 4.91093C4.81063 4.71627 4.54489 4.60909 4.28133 4.5741C3.70645 4.4985 3.12507 4.65427 2.665 5.00716C2.32161 5.27291 2.0657 5.71363 1.55609 6.59616C1.04647 7.47869 0.79057 7.91941 0.734797 8.35138C0.697216 8.63621 0.716118 8.92565 0.790424 9.20318C0.864731 9.4807 0.992985 9.74087 1.16786 9.96881C1.32971 10.1788 1.55609 10.3549 1.90713 10.5758C2.4244 10.9006 2.75686 11.4539 2.75686 12.0641C2.75686 12.6744 2.4244 13.2277 1.90713 13.5514C1.55609 13.7734 1.32862 13.9495 1.16786 14.1595C0.992985 14.3874 0.864731 14.6476 0.790424 14.9251C0.716118 15.2026 0.697216 15.4921 0.734797 15.7769C0.791664 16.2078 1.04647 16.6496 1.55499 17.5321C2.0657 18.4147 2.32051 18.8554 2.665 19.1211C2.89294 19.296 3.15311 19.4243 3.43063 19.4986C3.70815 19.5729 3.9976 19.5918 4.28243 19.5542C4.54489 19.5192 4.81063 19.412 5.17808 19.2174C5.44105 19.0734 5.73628 18.9987 6.03605 19.0003C6.33581 19.0018 6.63027 19.0795 6.89175 19.2261C7.41995 19.5323 7.73382 20.0955 7.75569 20.7057C7.771 21.1213 7.81037 21.4056 7.91207 21.6495C8.02199 21.9151 8.18317 22.1563 8.38639 22.3596C8.58961 22.5628 8.83089 22.724 9.09644 22.8339C9.49779 23.0001 10.0074 23.0001 11.0266 23.0001C12.0459 23.0001 12.5555 23.0001 12.9568 22.8339C13.2224 22.724 13.4637 22.5628 13.6669 22.3596C13.8701 22.1563 14.0313 21.9151 14.1412 21.6495C14.2418 21.4056 14.2823 21.1213 14.2976 20.7057C14.3195 20.0955 14.6333 19.5312 15.1615 19.2261C15.423 19.0795 15.7175 19.0018 16.0172 19.0003C16.317 18.9987 16.6122 19.0734 16.8752 19.2174C17.2426 19.412 17.5084 19.5192 17.7708 19.5542C18.0557 19.5918 18.3451 19.5729 18.6226 19.4986C18.9002 19.4243 19.1603 19.296 19.3883 19.1211C19.7328 18.8565 19.9876 18.4147 20.4972 17.5321C21.0068 16.6496 21.2627 16.2089 21.3185 15.7769C21.3561 15.4921 21.3372 15.2026 21.2629 14.9251C21.1885 14.6476 21.0603 14.3874 20.8854 14.1595C20.7236 13.9495 20.4972 13.7734 20.1461 13.5525C19.89 13.3968 19.6776 13.1785 19.5289 12.9182C19.3803 12.6578 19.3003 12.3639 19.2964 12.0641C19.2964 11.4539 19.6289 10.9006 20.1461 10.5769C20.4972 10.3549 20.7247 10.1788 20.8854 9.96881C21.0603 9.74087 21.1885 9.4807 21.2629 9.20318C21.3372 8.92565 21.3561 8.63621 21.3185 8.35138C21.2616 7.9205 21.0068 7.47869 20.4983 6.59616C19.9876 5.71363 19.7328 5.27291 19.3883 5.00716C19.1603 4.83229 18.9002 4.70403 18.6226 4.62972C18.3451 4.55542 18.0557 4.53652 17.7708 4.5741C17.5084 4.60909 17.2426 4.71627 16.8741 4.91093C16.6113 5.05464 16.3162 5.12923 16.0167 5.1277C15.7171 5.12617 15.4229 5.04857 15.1615 4.90218C14.9039 4.74897 14.6895 4.5328 14.5384 4.27398C14.3873 4.01516 14.3044 3.72217 14.2976 3.42254C14.2823 3.00697 14.2429 2.72264 14.1412 2.47877C14.0313 2.21322 13.8701 1.97194 13.6669 1.76872C13.4637 1.5655 13.2224 1.40432 12.9568 1.2944Z" stroke="#BBBBBB" stroke-width="1.4"/>
</svg>
