<svg width="18" height="19" viewBox="0 0 18 19" fill="none" xmlns="http://www.w3.org/2000/svg">
<path d="M15.8813 10.1581C15.9199 9.86899 15.9391 9.57022 15.9391 9.25218C15.9391 8.94377 15.9199 8.63537 15.8717 8.34624L17.8281 6.82348C17.9124 6.75399 17.97 6.65742 17.9911 6.55022C18.0122 6.44302 17.9955 6.33183 17.9438 6.23558L16.0933 3.03587C16.0389 2.93908 15.9519 2.86468 15.8478 2.82588C15.7437 2.78707 15.6293 2.78635 15.5247 2.82384L13.2213 3.74906C12.7394 3.38283 12.2286 3.07442 11.66 2.84312L11.313 0.395148C11.296 0.284825 11.2399 0.184282 11.155 0.111777C11.0701 0.0392717 10.9621 -0.000386958 10.8504 2.84639e-06H7.14956C6.91826 2.84639e-06 6.73514 0.163843 6.69659 0.395148L6.34964 2.84312C5.78101 3.07442 5.26058 3.39247 4.78833 3.74906L2.48493 2.82384C2.2729 2.74674 2.03195 2.82384 1.9163 3.03587L0.0755045 6.23558C-0.0401477 6.43797 -0.00159703 6.68855 0.191157 6.82348L2.14761 8.34624C2.09942 8.63537 2.06087 8.95341 2.06087 9.25218C2.06087 9.55095 2.08014 9.86899 2.12833 10.1581L0.171881 11.6809C0.0875747 11.7504 0.0299699 11.8469 0.0088816 11.9541C-0.0122067 12.0613 0.00452613 12.1725 0.0562292 12.2688L1.90666 15.4685C2.02232 15.6805 2.26326 15.748 2.47529 15.6805L4.77869 14.7553C5.26058 15.1215 5.77138 15.4299 6.34 15.6612L6.68696 18.1092C6.73514 18.3405 6.91826 18.5044 7.14956 18.5044H10.8504C11.0817 18.5044 11.2745 18.3405 11.3034 18.1092L11.6504 15.6612C12.219 15.4299 12.7394 15.1215 13.2117 14.7553L15.5151 15.6805C15.7271 15.7576 15.968 15.6805 16.0837 15.4685L17.9341 12.2688C18.0498 12.0567 18.0016 11.8158 17.8185 11.6809L15.8813 10.1581ZM9 12.7217C7.09174 12.7217 5.53043 11.1604 5.53043 9.25218C5.53043 7.34392 7.09174 5.78261 9 5.78261C10.9083 5.78261 12.4696 7.34392 12.4696 9.25218C12.4696 11.1604 10.9083 12.7217 9 12.7217Z" fill="white"/>
</svg>
