<svg width="16" height="16" viewBox="0 0 16 16" fill="none" xmlns="http://www.w3.org/2000/svg">
<path d="M16 9.92029V14.4001C16 14.8244 15.8314 15.2313 15.5314 15.5314C15.2313 15.8314 14.8243 16 14.4 16H1.6C1.17565 16 0.768687 15.8314 0.468629 15.5314C0.168571 15.2313 0 14.8244 0 14.4001V9.92029C0 9.66569 0.101143 9.42152 0.281178 9.2415C0.461212 9.06147 0.705392 8.96033 0.96 8.96033C1.21461 8.96033 1.45879 9.06147 1.63882 9.2415C1.81886 9.42152 1.92 9.66569 1.92 9.92029V14.0801H14.08V9.92029C14.08 9.66569 14.1811 9.42152 14.3612 9.2415C14.5412 9.06147 14.7854 8.96033 15.04 8.96033C15.2946 8.96033 15.5388 9.06147 15.7188 9.2415C15.8989 9.42152 16 9.66569 16 9.92029ZM5.4792 4.83973L7.04 3.2806V9.92029C7.04 10.1749 7.14114 10.4191 7.32118 10.5991C7.50121 10.7791 7.74539 10.8802 8 10.8802C8.25461 10.8802 8.49879 10.7791 8.67882 10.5991C8.85886 10.4191 8.96 10.1749 8.96 9.92029V3.2806L10.5208 4.84213C10.7011 5.02247 10.9458 5.12378 11.2008 5.12378C11.4558 5.12378 11.7005 5.02247 11.8808 4.84213C12.0611 4.66179 12.1625 4.4172 12.1625 4.16216C12.1625 3.90712 12.0611 3.66253 11.8808 3.48219L8.6808 0.282344C8.59161 0.19285 8.48563 0.121842 8.36895 0.0733913C8.25226 0.0249404 8.12715 0 8.0008 0C7.87445 0 7.74934 0.0249404 7.63265 0.0733913C7.51596 0.121842 7.40999 0.19285 7.3208 0.282344L4.1208 3.48219C4.0315 3.57149 3.96067 3.67749 3.91234 3.79416C3.86401 3.91083 3.83913 4.03588 3.83913 4.16216C3.83913 4.4172 3.94045 4.66179 4.1208 4.84213C4.30115 5.02247 4.54575 5.12378 4.8008 5.12378C5.05585 5.12378 5.30045 5.02247 5.4808 4.84213L5.4792 4.83973Z" fill="#3B3B3B"/>
</svg>
