<svg width="41" height="53" viewBox="0 0 41 53" fill="none" xmlns="http://www.w3.org/2000/svg">
<path d="M16.5272 26.4817L10.1832 50.3059L11.6886 50.7151L18.0326 26.8908L16.5272 26.4817Z" fill="#D0D0D0"/>
<path d="M2.18689 34.5608L1.78174 36.0815L25.8283 42.6206L26.2334 41.0998L2.18689 34.5608Z" fill="#D0D0D0"/>
<path d="M5.75084 29.082L4.64185 30.1888L22.1136 48.0567L23.2226 46.9498L5.75084 29.082Z" fill="#D0D0D0"/>
<path d="M22.4175 29.1927L4.62598 47.2288L5.73014 48.3405L23.5217 30.3045L22.4175 29.1927Z" fill="#D0D0D0"/>
<path d="M11.5701 25.9195L10.0635 26.3235L16.5764 51.1174L18.0831 50.7134L11.5701 25.9195Z" fill="#D0D0D0"/>
<path d="M25.6954 34.7217L1.72595 41.1454L2.12565 42.6677L26.0951 36.2441L25.6954 34.7217Z" fill="#D0D0D0"/>
<path d="M27.8882 33.8202C27.8882 33.8202 28.0797 33.8004 28.318 33.682C28.318 33.682 28.6501 33.5399 28.8571 33.9188L34.7255 46.8975C34.7255 46.8975 35.0068 47.5685 35.6944 48.2119C35.6944 48.2119 36.2883 48.7724 37.4369 48.9461C37.4369 48.9461 38.2808 49.0961 39.2029 48.6856C39.2029 48.6856 39.9139 48.4132 40.5469 47.4422C40.5469 47.4422 40.9259 46.8817 40.9884 45.958C40.9884 45.958 41.0509 45.3107 40.7539 44.5567C40.7539 44.5567 40.457 43.8107 40.1679 43.1949L33.1158 27.7019C33.1158 27.7019 32.6587 26.6559 31.6233 26.3559C31.6233 26.3559 30.8224 26.0796 29.6112 26.3243C29.6112 26.3243 28.6305 26.6243 27.9195 26.8927C27.9195 26.8927 25.3174 27.8203 24.5243 28.1479C24.5243 28.144 26.677 30.0071 27.8882 33.8202Z" fill="#D0D0D0"/>
<path d="M30.8888 45.3384C28.7946 45.3384 27.099 47.0515 27.099 49.1672C27.099 51.283 28.7946 52.9961 30.8888 52.9961C32.9829 52.9961 34.6786 51.283 34.6786 49.1672C34.6786 47.0554 32.9829 45.3384 30.8888 45.3384ZM30.8888 51.6816C29.5135 51.6816 28.4 50.5567 28.4 49.1672C28.4 47.7778 29.5135 46.6528 30.8888 46.6528C32.264 46.6528 33.3775 47.7778 33.3775 49.1672C33.3775 50.5567 32.264 51.6816 30.8888 51.6816Z" fill="#D0D0D0"/>
<path d="M18.9451 11.6129C22.1192 11.6129 24.6923 9.01324 24.6923 5.80643C24.6923 2.59963 22.1192 0 18.9451 0C15.771 0 13.1979 2.59963 13.1979 5.80643C13.1979 9.01324 15.771 11.6129 18.9451 11.6129Z" fill="#D0D0D0"/>
<path d="M17.0423 15.268C17.0306 15.2404 16.8822 14.9444 16.4836 14.7194C16.4719 14.7154 15.9992 14.447 15.3389 14.4352H15.3155C15.3155 14.4352 14.8779 14.4115 14.0574 14.5852L4.40713 16.4206C4.40322 16.4206 3.78201 16.5193 3.41475 17.0246C3.14908 17.3917 3.06703 17.8969 3.16861 18.5364L4.41885 26.1586C4.41885 26.1625 4.56731 26.9638 5.08695 27.4256C5.18071 27.4888 5.77848 27.844 6.63411 27.7177L6.64974 27.7138C6.65756 27.7138 7.70072 27.5756 8.08752 26.873C8.09142 26.8691 8.3024 26.4428 8.23207 25.4954L7.73589 21.3626C7.71635 20.889 8.0211 19.9219 9.32213 19.6298L9.34557 19.6258L15.3584 18.5916C15.6476 18.5324 16.511 18.2522 16.8783 17.7075L16.9095 17.664C16.9173 17.6522 17.226 17.2614 17.265 16.5272C17.269 16.3299 17.2416 15.6904 17.0502 15.2799L17.0423 15.268Z" fill="#D0D0D0"/>
<path d="M8.69709 17.9286C8.5916 17.4431 8.4822 17.0523 8.4822 17.0523C8.29857 16.3418 7.55234 16.1957 7.55234 16.1957L6.63029 16.0023L4.41111 16.4247C4.40721 16.4247 3.78599 16.5234 3.41874 17.0286C3.3406 17.1352 3.28199 17.2576 3.23511 17.3878L5.86842 17.9286C6.26694 18.0273 6.44275 18.2088 6.44275 18.2088C6.73187 18.4496 6.79829 18.8128 6.79829 18.8128L8.04852 23.9363L7.73987 21.3627C7.72034 20.9206 7.98992 20.0364 9.09951 19.6891L8.69709 17.9286Z" fill="#D0D0D0"/>
<path d="M8.68921 21.3114L9.09163 24.6271C9.57219 24.4218 10.1348 24.256 10.1348 24.256L9.31042 20.6324C8.75563 20.8338 8.69702 21.2009 8.68921 21.3114Z" fill="#D0D0D0"/>
<path d="M2.65681 16.4404C3.16863 15.7457 3.92268 15.5365 4.18835 15.4812L2.04341 15.0273C1.83634 14.9839 1.44174 14.901 1.44174 14.901C0.976805 14.8141 0.718943 14.8931 0.718943 14.8931C0.171964 15.0273 0.0508472 15.4773 0.0508472 15.4773C-0.0858976 15.9746 0.0938241 16.2786 0.0938241 16.2786C0.254011 16.5904 0.625175 16.7404 0.625175 16.7404C0.968991 16.9141 1.41048 17.0088 1.41048 17.0088L2.28955 17.1904C2.36769 16.918 2.49272 16.6654 2.65681 16.4404Z" fill="#D0D0D0"/>
<path d="M6.63802 27.7178L6.65365 27.7138C6.66146 27.7138 7.70463 27.5757 8.09142 26.8731C8.09533 26.8691 8.23207 26.5928 8.2477 26.0007C7.29439 26.4428 6.39579 26.9954 5.57532 27.6388C5.8449 27.7217 6.20825 27.781 6.63802 27.7178Z" fill="#D0D0D0"/>
<path d="M13.9754 24.7375C12.2954 24.7375 10.6857 25.0415 9.20104 25.602C9.25183 26.7349 8.95881 27.2875 8.92365 27.3467C8.32197 28.448 6.91545 28.6493 6.7748 28.669C6.60289 28.6927 6.4388 28.7046 6.28252 28.7046C5.58317 28.7046 5.04791 28.4835 4.75879 28.3335C1.99655 30.8716 0.261841 34.5268 0.261841 38.5885C0.261841 46.2383 6.39973 52.4395 13.9715 52.4395C21.5432 52.4395 27.6811 46.2383 27.6811 38.5885C27.685 30.9387 21.5471 24.7375 13.9754 24.7375ZM13.9754 49.7909C7.85313 49.7909 2.88734 44.7778 2.88734 38.5885C2.88734 32.3992 7.84923 27.3862 13.9754 27.3862C20.1016 27.3862 25.0634 32.3992 25.0634 38.5885C25.0634 44.7778 20.0977 49.7909 13.9754 49.7909Z" fill="#D0D0D0"/>
<path d="M16.8782 17.7075L16.9095 17.664C16.9173 17.6522 17.2259 17.2614 17.265 16.5272C17.2689 16.3299 17.2416 15.6904 17.0501 15.2799L17.0462 15.268C17.0345 15.2404 16.886 14.9444 16.4875 14.7194C16.4758 14.7154 16.0031 14.447 15.3428 14.4352H15.3193C15.3193 14.4352 14.8817 14.4115 14.0613 14.5852L13.0884 14.7707C13.0572 14.8102 13.022 14.8496 12.9908 14.8891C12.9908 14.8891 12.1469 15.9391 11.8421 17.0285C11.8421 17.0285 11.5139 18.1101 11.4983 19.0416C11.4983 19.0416 11.4983 19.1206 11.4944 19.2508L15.3584 18.5877C15.6475 18.5324 16.511 18.2522 16.8782 17.7075Z" fill="#D0D0D0"/>
<path d="M21.2814 21.3626C21.2814 21.3626 20.9141 19.5864 20.6602 18.0074C20.6602 18.0074 20.4961 17.0601 20.2617 16.4206C20.2617 16.4206 19.9061 15.4496 19.4646 14.9167C19.4646 14.9167 18.8864 14.1589 18.2339 13.7207C18.2339 13.7207 17.6479 13.322 16.972 13.2549C16.972 13.2549 16.1554 13.1365 15.0419 13.4681C15.0419 13.4681 15.0263 13.472 15.0068 13.4799C15.2021 13.4681 15.3232 13.472 15.3662 13.476C16.2765 13.4957 16.9251 13.8668 16.9525 13.8825C17.6088 14.2496 17.8706 14.7746 17.9136 14.8733C18.2339 15.5641 18.2222 16.468 18.2183 16.5667C18.1675 17.5575 17.7612 18.1338 17.6557 18.268C16.9876 19.239 15.5889 19.5271 15.5303 19.539L11.5178 20.2298C11.5295 20.439 11.5452 20.664 11.5647 20.8929C11.5647 20.8929 11.6116 21.4968 11.7171 22.1994C11.7171 22.1994 11.8343 23.0639 11.8577 23.5573C11.8577 23.5573 11.8421 23.6165 11.8929 23.9047C11.8929 23.9047 14.4832 23.4981 17.0697 24.0349C17.0697 24.0349 18.9646 24.3547 20.9298 25.452C20.9298 25.452 22.0511 26.0678 22.5473 26.5572C22.5473 26.5572 21.7463 23.8297 21.2814 21.3626Z" fill="#D0D0D0"/>
</svg>
