<svg width="16" height="16" viewBox="0 0 16 16" fill="none" xmlns="http://www.w3.org/2000/svg">
<path fill-rule="evenodd" clip-rule="evenodd" d="M7.98019 1.1665C6.91261 1.1665 6.02551 1.20456 5.30588 1.35183C4.57721 1.50096 3.97667 1.77056 3.52549 2.26483C3.07962 2.75327 2.83154 3.40479 2.68935 4.21261C2.54741 5.01898 2.50285 6.03141 2.50285 7.28584C2.50285 7.76996 2.50203 8.2245 2.50126 8.65087L2.50126 8.6509C2.49762 10.6674 2.49511 12.0536 2.58603 12.9578C2.64027 13.4972 2.73382 13.9551 2.93949 14.284C3.05011 14.4609 3.19701 14.6074 3.38775 14.705C3.57508 14.8008 3.77287 14.8332 3.96219 14.8332C4.3947 14.8332 4.81409 14.5952 5.15262 14.36C5.48309 14.1304 5.83095 13.8331 6.15992 13.552L6.15993 13.552L6.2378 13.4855C6.60107 13.1754 6.94228 12.8891 7.26247 12.6789C7.59461 12.4608 7.82808 12.3772 7.98019 12.3772C8.13229 12.3772 8.36577 12.4608 8.6979 12.6789C9.0181 12.8891 9.3593 13.1754 9.72257 13.4855L9.80043 13.552C10.1294 13.8331 10.4773 14.1304 10.8078 14.36C11.1463 14.5952 11.5657 14.8332 11.9982 14.8332C12.1875 14.8332 12.3853 14.8008 12.5726 14.705C12.7634 14.6074 12.9103 14.4609 13.0209 14.284C13.2266 13.9551 13.3201 13.4972 13.3743 12.9578C13.4653 12.0536 13.4628 10.6674 13.4591 8.65091V8.65091L13.4591 8.65006C13.4583 8.22393 13.4575 7.76965 13.4575 7.28584C13.4575 6.03141 13.413 5.01898 13.271 4.21261C13.1288 3.40479 12.8807 2.75327 12.4349 2.26483C11.9837 1.77056 11.3832 1.50096 10.6545 1.35183C9.93486 1.20456 9.04777 1.1665 7.98019 1.1665ZM3.50285 7.28584C3.50285 6.04126 3.54821 5.10177 3.67421 4.38596C3.79995 3.6716 3.99783 3.23065 4.26405 2.93901C4.52495 2.6532 4.90262 2.45509 5.50638 2.33153C6.11919 2.20611 6.91877 2.1665 7.98019 2.1665C9.04161 2.1665 9.84118 2.20611 10.454 2.33153C11.0578 2.45509 11.4354 2.6532 11.6963 2.93901C11.9625 3.23065 12.1604 3.6716 12.2862 4.38596C12.4122 5.10177 12.4575 6.04126 12.4575 7.28584C12.4575 7.78149 12.4583 8.24317 12.459 8.67311V8.6738V8.67382C12.4625 10.691 12.4647 12.0092 12.3794 12.8577C12.3268 13.3807 12.247 13.6355 12.173 13.7537C12.1438 13.8004 12.1243 13.811 12.1172 13.8147C12.1066 13.8201 12.0749 13.8332 11.9982 13.8332C11.899 13.8332 11.7026 13.7641 11.3784 13.5388C11.0909 13.3391 10.78 13.0735 10.4386 12.7819L10.3718 12.7249C10.0157 12.421 9.62794 12.0932 9.24672 11.8429C8.87744 11.6005 8.43708 11.3772 7.98019 11.3772C7.52329 11.3772 7.08293 11.6005 6.71365 11.8429C6.33243 12.0932 5.94463 12.421 5.58857 12.7249L5.52175 12.7819L5.52171 12.782C5.18035 13.0735 4.86942 13.3391 4.58201 13.5388C4.25778 13.7641 4.06134 13.8332 3.96219 13.8332C3.8855 13.8332 3.85381 13.8201 3.84321 13.8147C3.83602 13.811 3.81654 13.8004 3.78734 13.7537C3.71339 13.6355 3.6336 13.3807 3.58101 12.8577C3.49568 12.0092 3.49792 10.691 3.50134 8.67381L3.50134 8.67368C3.50207 8.24358 3.50285 7.78171 3.50285 7.28584ZM5.69501 5.64497C5.41886 5.64497 5.19501 5.86883 5.19501 6.14497C5.19501 6.42111 5.41886 6.64497 5.69501 6.64497H10.265C10.5412 6.64497 10.765 6.42111 10.765 6.14497C10.765 5.86883 10.5412 5.64497 10.265 5.64497H5.69501Z" fill="#1C1C1C"/>
</svg>
