<svg width="54" height="52" viewBox="0 0 54 52" fill="none" xmlns="http://www.w3.org/2000/svg">
<path d="M10.3945 35.0162C10.3945 35.0162 12.4413 34.3575 13.7841 34.2893C13.7841 34.2893 16.2632 33.9751 17.9886 35.5804C17.9886 35.5804 18.4056 36.046 19.3352 35.5804C19.3352 35.5804 21.0874 34.4749 23.0079 34.9595C23.0079 34.9595 23.8189 35.2131 24.5803 34.2818C24.5803 34.2818 26.6155 31.8361 26.7801 25.3697C26.7801 25.3697 26.9637 20.111 27.5261 18.0703C27.5261 18.0703 28.2568 14.7879 29.8062 15.4088C29.8062 15.4088 31.1261 12.0658 34.3358 9.76776C34.3358 9.76776 37.6221 7.29932 42.06 7.44319C42.06 7.44319 46.9951 7.49619 50.0978 10.896C50.0978 10.896 53.6404 14.7122 53.9503 20.1526C53.9503 20.1526 54.2564 24.1241 53.2272 27.9933C53.2272 27.9933 51.0121 35.6447 44.2291 41.0813C44.2291 41.0813 39.5503 44.7991 33.9762 46.5142C33.9762 46.5142 32.775 46.9874 31.6885 47.9566C31.6885 47.9566 29.4007 50.4516 25.2268 50.8226C25.2268 50.8226 21.294 51.205 18.7499 49.028C18.7499 49.028 17.6442 48.1232 16.9786 47.0972C16.9786 47.0972 16.4544 46.2567 15.2723 46.3211C15.2723 46.3211 12.7932 46.4877 11.0028 44.307C11.0028 44.307 10.0999 43.2052 9.82065 42.4102C9.82065 42.4102 9.75944 42.2095 9.53755 42.0543C9.53755 42.0543 8.80683 41.5811 9.24297 40.3847C9.24297 40.3847 10.2568 37.4733 9.48399 35.8264C9.49164 35.8302 9.4113 35.4706 10.3945 35.0162Z" fill="#D0D0D0"/>
<mask id="mask0_131_305" style="mask-type:luminance" maskUnits="userSpaceOnUse" x="9" y="7" width="45" height="44">
<path d="M10.3945 35.0162C10.3945 35.0162 12.4413 34.3575 13.7841 34.2893C13.7841 34.2893 16.2632 33.9751 17.9886 35.5804C17.9886 35.5804 18.4056 36.046 19.3352 35.5804C19.3352 35.5804 21.0874 34.4749 23.0079 34.9595C23.0079 34.9595 23.8189 35.2131 24.5803 34.2818C24.5803 34.2818 26.6155 31.8361 26.7801 25.3697C26.7801 25.3697 26.9637 20.111 27.5261 18.0703C27.5261 18.0703 28.2568 14.7879 29.8062 15.4088C29.8062 15.4088 31.1261 12.0658 34.3358 9.76776C34.3358 9.76776 37.6221 7.29932 42.06 7.44319C42.06 7.44319 46.9951 7.49619 50.0978 10.896C50.0978 10.896 53.6404 14.7122 53.9503 20.1526C53.9503 20.1526 54.2564 24.1241 53.2272 27.9933C53.2272 27.9933 51.0121 35.6447 44.2291 41.0813C44.2291 41.0813 39.5503 44.7991 33.9762 46.5142C33.9762 46.5142 32.775 46.9874 31.6885 47.9566C31.6885 47.9566 29.4007 50.4516 25.2268 50.8226C25.2268 50.8226 21.294 51.205 18.7499 49.028C18.7499 49.028 17.6442 48.1232 16.9786 47.0972C16.9786 47.0972 16.4544 46.2567 15.2723 46.3211C15.2723 46.3211 12.7932 46.4877 11.0028 44.307C11.0028 44.307 10.0999 43.2052 9.82065 42.4102C9.82065 42.4102 9.75944 42.2095 9.53755 42.0543C9.53755 42.0543 8.80683 41.5811 9.24297 40.3847C9.24297 40.3847 10.2568 37.4733 9.48399 35.8264C9.49164 35.8302 9.4113 35.4706 10.3945 35.0162Z" fill="white"/>
</mask>
<g mask="url(#mask0_131_305)">
<path d="M37.4614 19.8952C37.4614 19.8952 37.7063 19.138 38.4408 18.9373C38.4408 18.9373 39.4585 18.6193 39.8334 19.4144C39.8334 19.4144 40.4302 20.641 40.2695 22.2993C40.2695 22.2993 40.1088 25.2485 38.5594 27.9176C38.5594 27.9176 37.1975 30.1021 35.7781 31.1205C35.7781 31.1205 35.0091 31.7906 34.4812 31.8209C34.4812 31.8209 34.1598 31.8436 34.1101 31.624C34.1101 31.624 33.9456 31.2114 34.3358 30.5034C34.3358 30.5034 34.9403 29.4698 35.3955 28.6899C35.3955 28.6899 36.5777 26.4146 36.8723 24.1695C36.8723 24.1695 37.1324 22.3788 37.1477 21.9207C37.1477 21.9244 37.2663 20.4404 37.4614 19.8952Z" fill="white"/>
</g>
<path d="M20.4446 39.5367C20.4446 39.5367 20.4255 40.2484 20.7889 40.2409C20.7889 40.2409 21.1141 40.2939 21.3437 39.6238C21.3437 39.6238 21.7033 38.6735 22.1318 38.3782C22.1318 38.3782 22.6827 37.9542 23.7654 38.0867C23.7654 38.0867 24.4004 38.1965 24.7294 38.0602C24.7294 38.0602 24.9705 37.9769 25.0202 37.6891C25.0202 37.6891 25.1082 37.3408 24.5726 36.9887C24.5726 36.9887 23.6927 36.4019 22.5526 36.436C22.5526 36.436 21.1906 36.4663 20.7124 37.8368C20.7163 37.8406 20.4752 38.4539 20.4446 39.5367Z" fill="white"/>
<path d="M12.7932 38.31C12.7932 38.31 12.8429 38.6129 13.0495 38.5864C13.0495 38.5864 13.3441 38.5864 13.4321 38.1094C13.4321 38.1094 13.6272 37.2916 14.1858 36.9774C14.1858 36.9774 14.8935 36.5571 16.0221 36.6177C16.0221 36.6177 16.485 36.6821 16.6916 36.4398C16.6916 36.4398 16.9173 36.1861 16.5845 35.8416C16.5845 35.8416 15.9647 35.1904 15.1154 35.1563C15.1154 35.1563 14.3464 35.092 13.7229 35.6485C13.7229 35.6485 13.0801 36.1785 12.8391 37.2045C12.8468 37.2007 12.7052 37.7686 12.7932 38.31Z" fill="white"/>
<path d="M19.6069 0.832923C19.6069 0.832923 19.5801 0.636054 19.8441 0.636054H25.0585C25.0585 0.636054 25.2268 0.617124 25.2001 0.957859L25.2039 9.14308C25.2039 9.14308 25.2728 11.5358 26.8681 13.3568C26.8681 13.3568 27.8704 14.4396 28.5093 14.7387C28.5093 14.7387 28.5858 14.7652 28.7197 14.7652C28.7197 14.7652 29.2745 14.7652 29.7029 15.0037C29.7029 15.0037 30.2577 15.2725 30.3954 15.8518C30.3954 15.8518 30.7397 17.1352 30.1238 18.4489C30.1238 18.4489 29.1979 20.5274 27.989 21.2468C27.989 21.2468 27.3807 21.6064 26.9675 21.5837C26.9675 21.5837 26.562 21.614 26.1641 21.2468C26.1641 21.2468 25.8734 21.0007 25.7204 20.6789C25.7204 20.6789 25.6247 20.4896 25.3952 20.3078C25.3952 20.3078 22.0783 17.7788 20.4868 13.8869C20.4868 13.8869 19.5992 11.8917 19.603 8.91971L19.6069 0.832923Z" fill="#D0D0D0"/>
<mask id="mask1_131_305" style="mask-type:luminance" maskUnits="userSpaceOnUse" x="19" y="0" width="12" height="22">
<path d="M19.6069 0.832923C19.6069 0.832923 19.5801 0.636054 19.8441 0.636054H25.0585C25.0585 0.636054 25.2268 0.617124 25.2001 0.957859L25.2039 9.14308C25.2039 9.14308 25.2728 11.5358 26.8681 13.3568C26.8681 13.3568 27.8704 14.4396 28.5093 14.7387C28.5093 14.7387 28.5858 14.7652 28.7197 14.7652C28.7197 14.7652 29.2745 14.7652 29.7029 15.0037C29.7029 15.0037 30.2577 15.2725 30.3954 15.8518C30.3954 15.8518 30.7397 17.1352 30.1238 18.4489C30.1238 18.4489 29.1979 20.5274 27.989 21.2468C27.989 21.2468 27.3807 21.6064 26.9675 21.5837C26.9675 21.5837 26.562 21.614 26.1641 21.2468C26.1641 21.2468 25.8734 21.0007 25.7204 20.6789C25.7204 20.6789 25.6247 20.4896 25.3952 20.3078C25.3952 20.3078 22.0783 17.7788 20.4868 13.8869C20.4868 13.8869 19.5992 11.8917 19.603 8.91971L19.6069 0.832923Z" fill="white"/>
</mask>
<g mask="url(#mask1_131_305)">
<path d="M20.3606 0.866896L20.4409 9.8926C20.4409 9.8926 20.483 11.9067 20.9957 12.9062C20.9957 12.9062 21.7149 14.3752 22.4647 15.0074C22.4647 15.0074 22.8091 15.3141 23.1419 15.2081C23.1419 15.2081 23.4556 15.0831 23.1419 14.5682C23.1419 14.5682 22.4992 13.2621 22.3079 12.6223C22.3079 12.6223 21.9215 11.6001 21.8909 9.81688L21.91 0.86311C21.91 0.86311 21.9177 0.711672 21.6919 0.707886H20.4677C20.4715 0.711672 20.3606 0.72303 20.3606 0.866896Z" fill="white"/>
<path d="M23.0003 15.3368C22.6789 15.3368 22.4073 15.0983 22.392 15.087C21.6383 14.4509 20.9306 13.0123 20.9 12.9517C20.3835 11.9446 20.3338 9.97593 20.3338 9.89264L20.2534 0.866943C20.2534 0.689004 20.3758 0.613285 20.46 0.605713H21.6919C21.8067 0.605713 21.8908 0.639786 21.952 0.700362C22.0209 0.772295 22.0209 0.855585 22.0209 0.870729L22.0018 9.82071C22.0286 11.5585 22.4073 12.5769 22.4111 12.5845C22.6024 13.2129 23.2375 14.5077 23.2413 14.5191C23.379 14.7424 23.4249 14.9431 23.3714 15.0983C23.3216 15.2498 23.1992 15.299 23.1839 15.3066C23.1227 15.3293 23.0615 15.3368 23.0003 15.3368ZM20.4715 0.866943L20.5518 9.89264C20.5518 9.91157 20.6016 11.8916 21.0951 12.857C21.1027 12.8722 21.8143 14.3146 22.5335 14.9242C22.5374 14.928 22.8396 15.1892 23.1074 15.1059C23.1036 15.1059 23.1457 15.0832 23.1648 15.0264C23.1916 14.9355 23.1533 14.7917 23.05 14.6251C23.0194 14.5645 22.3996 13.2962 22.2045 12.6564C22.1892 12.6223 21.8143 11.6039 21.7837 9.8245L21.8028 0.866943C21.799 0.840442 21.7569 0.821512 21.6919 0.821512H20.4715C20.4715 0.825298 20.4715 0.8518 20.4715 0.866943Z" fill="#D0D0D0"/>
<path d="M29.1558 14.6061C29.1558 14.6061 29.8559 15.1286 29.8559 16.3249C29.8559 16.3249 29.8751 17.2979 29.4313 18.2974C29.4313 18.2974 28.6661 19.9784 27.2889 20.7621C27.2889 20.7621 26.4587 21.2505 25.552 21.1255C25.552 21.1255 26.2406 22.1174 27.3042 21.9698C27.3042 21.9698 28.5284 21.7237 29.2706 20.6561C29.2706 20.6561 30.5637 19.0092 30.7473 17.2941C30.7473 17.2941 30.8697 15.7873 30.2117 15.1437C30.2156 15.1399 29.4848 14.5304 29.1558 14.6061Z" fill="#D0D0D0"/>
<path d="M29.0449 15.8441C29.0449 15.8441 29.0679 15.5753 29.2668 15.5867C29.2668 15.5867 29.504 15.6018 29.5117 15.9993C29.5117 15.9993 29.6226 17.1805 28.9455 18.4602C28.9455 18.4602 28.318 19.5733 27.5605 19.9935C27.5605 19.9935 28.3563 19.1038 28.7695 17.7901C28.7695 17.7901 29.0028 17.0632 29.022 16.2492C29.022 16.2492 29.0181 16.0637 29.0449 15.8441Z" fill="white"/>
</g>
<path d="M25.2039 0.734474C25.2039 1.13957 23.9529 1.46895 22.4073 1.46895C20.8617 1.46895 19.6107 1.13957 19.6107 0.734474C19.6107 0.329378 20.8617 0 22.4073 0C23.9491 0 25.2039 0.329378 25.2039 0.734474Z" fill="#D0D0D0"/>
<path d="M6.49229 50.5878L1.23575 50.6143C1.23575 50.6143 1.10185 50.6181 0.983257 50.1903C0.983257 50.1903 0.179856 47.7597 0.0956906 46.1431C0.0956906 46.1431 -0.328964 42.2057 1.97794 39.23C1.97794 39.23 4.2925 36.0876 7.47167 35.3494C7.47167 35.3494 8.54288 35.0654 9.77476 34.9745C9.77476 34.9745 9.91631 34.6565 10.429 34.6565C10.429 34.6565 11.0143 34.63 11.2132 34.755C11.2132 34.755 11.5346 34.8837 11.5193 35.5122C11.5193 35.5122 11.4007 37.8859 10.5322 39.5745C10.5322 39.5745 9.82832 41.1494 9.21238 41.3917C9.21238 41.3917 8.78772 41.5697 8.2942 41.4712C8.2942 41.4712 7.34925 41.6037 6.63002 42.3534C6.63002 42.3534 5.37136 43.5119 5.56264 46.1961C5.56264 46.1961 5.79218 48.6835 6.57263 50.2508C6.57263 50.2508 6.71801 50.5196 6.58411 50.5764C6.58411 50.5764 6.57263 50.5878 6.49229 50.5878Z" fill="#D0D0D0"/>
<mask id="mask2_131_305" style="mask-type:luminance" maskUnits="userSpaceOnUse" x="0" y="34" width="12" height="17">
<path d="M6.49229 50.5878L1.23575 50.6143C1.23575 50.6143 1.10185 50.6181 0.983257 50.1903C0.983257 50.1903 0.179856 47.7597 0.0956906 46.1431C0.0956906 46.1431 -0.328964 42.2057 1.97794 39.23C1.97794 39.23 4.2925 36.0876 7.47167 35.3494C7.47167 35.3494 8.54288 35.0654 9.77476 34.9745C9.77476 34.9745 9.91631 34.6565 10.429 34.6565C10.429 34.6565 11.0143 34.63 11.2132 34.755C11.2132 34.755 11.5346 34.8837 11.5193 35.5122C11.5193 35.5122 11.4007 37.8859 10.5322 39.5745C10.5322 39.5745 9.82832 41.1494 9.21238 41.3917C9.21238 41.3917 8.78772 41.5697 8.2942 41.4712C8.2942 41.4712 7.34925 41.6037 6.63002 42.3534C6.63002 42.3534 5.37136 43.5119 5.56264 46.1961C5.56264 46.1961 5.79218 48.6835 6.57263 50.2508C6.57263 50.2508 6.71801 50.5196 6.58411 50.5764C6.58411 50.5764 6.57263 50.5878 6.49229 50.5878Z" fill="white"/>
</mask>
<g mask="url(#mask2_131_305)">
<path d="M8.16789 37.5186C8.16789 37.5186 8.70731 37.106 8.65375 36.5608C8.65375 36.5608 8.61167 36.1633 8.09137 36.1784C8.09137 36.1784 6.98956 36.2352 5.7003 37.1135C5.7003 37.1135 3.68414 38.4273 2.42548 40.4906C2.42548 40.4906 1.00614 42.7546 1.06735 44.7876C1.06735 44.7876 1.09413 45.348 1.27394 45.3745C1.27394 45.3745 1.46523 45.4123 1.54557 44.9959C1.54557 44.9959 1.9817 42.9552 3.51964 41.1191C3.51964 41.1191 4.96576 39.3397 7.00487 38.238C7.00104 38.2342 7.76619 37.8253 8.16789 37.5186Z" fill="white"/>
<path d="M1.28547 45.4767C1.27016 45.4767 1.25869 45.4767 1.25103 45.473C1.01384 45.4427 0.964105 44.9808 0.956454 44.7877C0.895243 42.7433 2.26868 40.5209 2.32989 40.4301C3.58855 38.3705 5.62 37.0303 5.63913 37.0189C6.93988 36.1368 8.04168 36.0687 8.08759 36.0687C8.58111 36.0497 8.74562 36.3753 8.76092 36.5495C8.82213 37.1514 8.25975 37.5868 8.23297 37.6058C7.82744 37.9162 7.08525 38.3137 7.05082 38.3327C5.05762 39.4079 3.61533 41.1683 3.60002 41.1835C2.10034 42.978 1.65273 44.9959 1.64891 45.0149C1.61065 45.2231 1.53414 45.3632 1.43084 45.4351C1.37346 45.4692 1.3199 45.4767 1.28547 45.4767ZM8.1182 36.2807C8.11055 36.2807 8.10289 36.2807 8.09524 36.2807C8.08759 36.2807 7.00874 36.3488 5.76156 37.1969C5.7386 37.212 3.74923 38.5257 2.51735 40.5437C2.50204 40.5664 1.11713 42.8039 1.17835 44.7801C1.18982 44.9959 1.24721 45.2344 1.29694 45.2647C1.31225 45.2609 1.39259 45.2079 1.43849 44.9694C1.44232 44.9467 1.89758 42.8796 3.43552 41.0434C3.45082 41.0283 4.9199 39.2337 6.95135 38.1358C6.959 38.132 7.71267 37.7269 8.10289 37.4278C8.10672 37.424 8.59259 37.0454 8.54668 36.5646C8.53903 36.5419 8.49694 36.2807 8.1182 36.2807Z" fill="#D0D0D0"/>
<path d="M0 49.1C0 49.1 0.856961 49.471 1.9932 48.8539C1.9932 48.8539 3.26716 48.2254 3.75303 46.923C3.75303 46.923 4.77832 43.8148 5.49756 43.0879C5.49756 43.0879 6.05229 42.4632 6.76004 42.8266C6.76004 42.8266 6.04846 44.2918 6.22827 46.2226C6.22827 46.2226 6.783 49.1832 7.3339 50.4137C7.3339 50.4137 7.46015 51.6176 6.21297 51.8107C6.21297 51.8107 2.13092 52.4959 0.497343 51.2617C0.497343 51.2617 0.0688629 50.8112 0 49.7966C0 49.7966 0 49.2363 0 49.1Z" fill="#D0D0D0"/>
<path d="M9.44184 34.4672C9.44184 34.4672 9.7938 34.9405 9.86649 35.7469C9.86649 35.7469 9.93153 36.9243 9.54513 38.3213C9.54513 38.3213 8.81442 41.0018 7.87329 42.1376C7.87329 42.1376 8.0684 43.315 9.18934 41.8763C9.18934 41.8763 10.5742 40.0666 11.2667 37.9314C11.2667 37.9314 11.8482 36.3716 11.5575 34.9026C11.5575 34.9026 11.5575 34.4634 11.0869 33.9145C11.0869 33.9145 11.0333 33.3655 9.81293 33.6532C9.81293 33.6608 8.96362 33.9334 9.44184 34.4672Z" fill="#D0D0D0"/>
<path d="M10.23 35.6484C10.23 35.6484 10.2491 35.2888 10.5016 35.2698C10.5016 35.2698 10.888 35.2547 10.8689 35.7506C10.8689 35.7506 10.6432 37.8064 10.2262 39.0293C10.2262 39.0293 9.92009 39.9795 9.5337 40.3619C9.5337 40.3619 9.48396 40.4566 9.39597 40.3884C9.39597 40.3884 9.33476 40.3809 9.48014 40.1158C9.48014 40.1158 9.93157 38.8475 10.0961 37.4505C10.0961 37.4505 10.1955 36.4208 10.2032 35.9399C10.207 35.9399 10.2108 35.7696 10.23 35.6484Z" fill="white"/>
</g>
<path d="M6.65292 50.5084C6.65292 50.8908 5.41339 51.2012 3.8831 51.2012C2.35281 51.2012 1.11328 50.8908 1.11328 50.5084C1.11328 50.126 2.35281 49.8156 3.8831 49.8156C5.41339 49.8156 6.65292 50.126 6.65292 50.5084Z" fill="#D0D0D0"/>
</svg>
