<svg width="39" height="43" viewBox="0 0 39 43" fill="none" xmlns="http://www.w3.org/2000/svg">
<g clip-path="url(#clip0_139_858)">
<path d="M38.692 34.7939C33.8251 39.8563 27.0247 43 19.4999 43C11.9751 43 5.17479 39.8563 0.307861 34.7939C5.42466 30.2225 12.1428 27.4492 19.4999 27.4492C26.8571 27.4492 33.5752 30.2225 38.692 34.7939Z" fill="#D0D0D0"/>
<path d="M35.2255 17.9993C30.7474 24.1246 25.4574 23.9815 22.8941 23.4425C26.2171 12.8684 30.3517 8.57048 30.5422 8.3754C24.1154 13.9099 21.3462 22.978 21.3462 22.978C21.3462 22.978 15.8374 16.5101 22.0071 8.07121C28.1776 -0.367964 38.144 0.00234944 38.144 0.00234944C38.144 0.00234944 41.3952 9.56007 35.2255 17.9993Z" fill="#D0D0D0"/>
<path d="M18.0513 18.995C18.2376 19.817 18.4907 20.5516 18.7598 21.1858C18.2027 22.3331 17.654 22.9779 17.654 22.9779C17.654 22.9779 14.8849 13.9098 8.45807 8.37528C8.64857 8.57035 12.7832 12.8683 16.1055 23.4424C13.5429 23.9813 8.25289 24.1245 3.77414 17.9991C-2.39531 9.55995 0.856269 0.00222737 0.856269 0.00222737C0.856269 0.00222737 10.8221 -0.368086 16.9931 8.07109C17.7502 9.10665 18.3309 10.1128 18.7683 11.0799C17.4811 14.2659 17.6051 17.0294 18.0513 18.995Z" fill="#D0D0D0"/>
</g>
<defs>
<clipPath id="clip0_139_858">
<rect width="39" height="43" fill="white"/>
</clipPath>
</defs>
</svg>
