<svg width="49" height="40" viewBox="0 0 49 40" fill="none" xmlns="http://www.w3.org/2000/svg">
<g clip-path="url(#clip0_142_879)">
<path d="M3.50486 3.34343C4.35358 4.44381 5.60569 5.52832 6.51203 6.93025C10.5775 12.8924 18.1478 25.3458 24.0625 38.3071C34.9805 31.7048 26.2262 15.8391 26.2262 15.8391L25.5923 17.9447C21.7312 9.42199 14.1976 5.05749 14.1976 5.05749L14.47 6.89851C11.0175 2.52872 2.21608 0.772339 2.21608 0.772339C2.21608 0.772339 -0.612958 9.36909 1.45119 14.5536L0 13.4056C0 13.4056 0.0419116 22.1769 5.48519 29.7791L3.35817 29.2977C3.35817 29.2977 12.0915 43.7984 22.6847 39.0371C22.6847 39.0371 13.6999 18.77 6.15054 7.12071C4.51075 4.72949 3.50486 3.34343 3.50486 3.34343Z" fill="#D0D0D0"/>
<path d="M48.738 12.9031L47.2868 14.0458C49.351 8.86127 46.5219 0.264526 46.5219 0.264526C46.5219 0.264526 37.7205 2.02091 34.2732 6.3907L34.5404 4.54967C34.5404 4.54967 29.7887 7.30592 25.9014 12.7073C27.2216 15.1356 29.8149 20.4312 30.7212 25.8643C35.2005 17.6855 39.6013 10.5806 42.3779 6.51238C43.2842 5.11045 44.3897 3.94129 45.2384 2.84091C45.2384 2.84091 44.3058 4.45445 42.6713 6.85096C38.6792 13.0089 34.268 21.5051 30.9936 28.155C31.2765 32.2603 30.344 36.228 26.902 38.8679C37.1075 42.5235 45.3851 28.7951 45.3851 28.7951L43.258 29.2766C48.6961 21.6744 48.738 12.9031 48.738 12.9031Z" stroke="#D0D0D0" stroke-miterlimit="10" stroke-linecap="round" stroke-linejoin="round"/>
</g>
<defs>
<clipPath id="clip0_142_879">
<rect width="49" height="40" fill="white"/>
</clipPath>
</defs>
</svg>
