<svg width="20" height="19" viewBox="0 0 20 19" fill="none" xmlns="http://www.w3.org/2000/svg">
<path d="M14.2936 0.714355C13.3854 0.714514 12.4935 0.956404 11.7097 1.41519C10.9259 1.87397 10.2783 2.53312 9.83338 3.32493C9.38841 2.53293 8.7406 1.87366 7.95652 1.41487C7.17244 0.956072 6.28035 0.714288 5.3719 0.714355C3.98058 0.789498 2.67178 1.39814 1.71777 2.41366C0.763766 3.42919 0.237994 4.77342 0.249829 6.16672C0.249829 13.2718 9.83338 18.2287 9.83338 18.2287C9.83338 18.2287 19.4169 13.2744 19.4169 6.16672C19.4288 4.77321 18.9028 3.4288 17.9485 2.41324C16.9943 1.39768 15.6851 0.789182 14.2936 0.714355V0.714355Z" fill="white"/>
</svg>
